<?xml version="1.0" encoding="UTF-8"?>
<svg width="42px" height="44px" viewBox="0 0 42 44" version="1.1" xmlns="http://www.w3.org/2000/svg" xmlns:xlink="http://www.w3.org/1999/xlink">
    <!-- Generator: Sketch 55.2 (78181) - https://sketchapp.com -->
    <title>Domiciliacion</title>
    <desc>Created with Sketch.</desc>
    <defs>
        <polygon id="path-1" points="0 0.17325 41.9996943 0.17325 41.9996943 43.6292983 0 43.6292983"></polygon>
        <polygon id="path-3" points="0 43.6370948 41.999819 43.6370948 41.999819 0.181034483 0 0.181034483"></polygon>
    </defs>
    <g id="Page-1" stroke="none" stroke-width="1" fill="none" fill-rule="evenodd">
        <g id="Personas-Morales-Copy" transform="translate(-883.000000, -274.000000)">
            <g id="Domiciliacion" transform="translate(883.000000, 274.000000)">
                <g id="Group-3" transform="translate(0.000000, 0.007784)">
                    <mask id="mask-2" fill="white">
                        <use xlink:href="#path-1"></use>
                    </mask>
                    <g id="Clip-2"></g>
                    <path d="M19.6525422,24.1052302 L18.1229819,24.1052302 L18.1229819,26.9521784 C18.6338612,26.0013853 19.1396716,25.0594629 19.6525422,24.1052302 L19.6525422,24.1052302 Z M33.317025,3.07300603 C33.5721026,3.07300603 33.8286284,3.08984224 34.0822578,3.06920431 C34.4736543,3.03734224 34.7540767,2.72723017 34.7569932,2.35538534 C34.7596888,1.98046293 34.4845164,1.65731638 34.0909474,1.63830776 C33.5816974,1.61368707 33.0699129,1.61441121 32.5604819,1.634325 C32.1453698,1.65043707 31.8535422,1.98118707 31.8634991,2.37041121 C31.8729129,2.74587672 32.1520681,3.04023879 32.5516112,3.06848017 C32.8056026,3.08640259 33.0617664,3.07173879 33.317025,3.07300603 L33.317025,3.07300603 Z M24.6181371,1.62835086 C24.3780853,1.62835086 24.1371284,1.61748879 23.8978009,1.63070431 C23.4720078,1.65423879 23.1796371,1.9487819 23.174025,2.34162672 C23.1684129,2.73501466 23.4549905,3.05164397 23.8789733,3.06866121 C24.3735595,3.088575 24.8701371,3.08821293 25.3645422,3.06775603 C25.7872578,3.05037672 26.072025,2.73266121 26.0651457,2.33746293 C26.0582664,1.944075 25.7658957,1.65260948 25.3386543,1.63034224 C25.0989647,1.61766983 24.8583698,1.62798879 24.6181371,1.62835086 L24.6181371,1.62835086 Z M15.8866629,3.07481638 C16.1419216,3.07481638 16.3977233,3.08531638 16.6522578,3.0722819 C17.0776888,3.05073879 17.3724129,2.75438534 17.3767578,2.36244569 C17.3811026,1.96724741 17.0936198,1.64971293 16.6728957,1.63360086 C16.1781284,1.61477328 15.6815509,1.61459224 15.1867836,1.6337819 C14.7669647,1.650075 14.4778526,1.97050603 14.4843698,2.36335086 C14.4910681,2.75293707 14.7877836,3.04929052 15.2110422,3.072825 C15.435525,3.08531638 15.661456,3.07517845 15.8866629,3.07481638 L15.8866629,3.07481638 Z M7.24262845,3.07318707 L7.24262845,3.07499741 C7.48286121,3.07499741 7.72363707,3.08585948 7.96314569,3.07264397 C8.3894819,3.04910948 8.68167155,2.75492845 8.68764569,2.36208362 C8.69343879,1.97249741 8.39980086,1.64935086 7.98305948,1.63360086 C7.48811121,1.61495431 6.99153362,1.61604052 6.49676638,1.6337819 C6.0963181,1.64826466 5.81118879,1.94534224 5.79525776,2.31863534 C5.77842155,2.71093707 6.06445603,3.03806638 6.47703362,3.06956638 C6.73084397,3.08893707 6.98736983,3.07318707 7.24262845,3.07318707 L7.24262845,3.07318707 Z M34.0199819,18.3142991 L29.7111802,18.3142991 L29.7111802,18.8718853 C31.1708612,19.1416267 32.5946974,19.4048509 34.0199819,19.668256 L34.0199819,18.3142991 Z M23.9159043,18.3027129 L23.9159043,20.298075 C25.3314129,19.857075 26.7528957,19.4142647 28.2156543,18.9586009 L28.2156543,18.3027129 L23.9159043,18.3027129 Z M22.4478957,18.313575 L18.1398181,18.313575 L18.1398181,22.6276267 C18.7194905,22.6276267 19.2653095,22.5903336 19.8040681,22.6366784 C20.5808871,22.7032991 21.2563267,22.581825 21.7661198,21.9248509 C21.8915767,21.7631871 22.108456,21.6755664 22.2538267,21.5253078 C22.3466974,21.4289974 22.4373957,21.2810922 22.4395681,21.1549112 C22.454956,20.2207733 22.4478957,19.2862733 22.4478957,18.313575 L22.4478957,18.313575 Z M12.3289733,28.3872388 L16.6337922,28.3872388 L16.6337922,24.1008853 L12.3289733,24.1008853 L12.3289733,28.3872388 Z M6.54999052,28.3823509 L10.836525,28.3823509 L10.836525,24.094006 L6.54999052,24.094006 L6.54999052,28.3823509 Z M12.3456284,22.602825 L16.6339733,22.602825 L16.6339733,18.3142991 L12.3456284,18.3142991 L12.3456284,22.602825 Z M6.55071466,22.6062647 L10.8368871,22.6062647 L10.8368871,18.3128509 L6.55071466,18.3128509 L6.55071466,22.6062647 Z M29.7097319,16.8028422 L33.9977147,16.8028422 L33.9977147,12.5134112 L29.7097319,12.5134112 L29.7097319,16.8028422 Z M23.9160853,16.8019371 L28.2049733,16.8019371 L28.2049733,12.5137733 L23.9160853,12.5137733 L23.9160853,16.8019371 Z M18.1260595,16.8064629 L22.4305164,16.8064629 L22.4305164,12.5246353 L18.1260595,12.5246353 L18.1260595,16.8064629 Z M12.3363957,16.8167819 L16.6214819,16.8167819 L16.6214819,12.512325 L12.3363957,12.512325 L12.3363957,16.8167819 Z M6.55143879,16.812256 L10.8359819,16.812256 L10.8359819,12.5074371 L6.55143879,12.5074371 L6.55143879,16.812256 Z M1.46925776,42.1404284 L23.7480853,42.1404284 C23.1725767,41.7387129 22.6401543,41.3436957 22.081844,40.9895922 C21.8696716,40.8549026 21.5975767,40.7419371 21.3526371,40.741575 C14.8545853,40.7283595 8.35671466,40.731075 1.85866293,40.7325233 C1.72904224,40.7325233 1.59942155,40.7486353 1.46925776,40.757144 L1.46925776,42.1404284 Z M29.7225853,20.4566583 C23.6543095,20.461006 18.8257578,25.3096526 18.8288339,31.3956698 C18.8317319,37.3033681 23.7301629,42.1824284 29.6537922,42.1779057 C35.7151888,42.1730147 40.5533353,37.3147733 40.5500784,31.2361784 C40.5469991,25.3295664 35.648025,20.4523164 29.7225853,20.4566583 L29.7225853,20.4566583 Z M39.0842405,3.078075 C38.1242147,3.078075 37.1924302,3.06934299 36.2613698,3.08984224 C36.157456,3.09219569 36.0245767,3.23847155 35.9604905,3.34998879 C35.5151457,4.12427328 34.8558181,4.52073879 33.9618698,4.52381638 C33.5244905,4.52526466 33.0871112,4.52725603 32.6495509,4.52381638 C31.7561457,4.5171181 31.1044216,4.11268707 30.6505681,3.34437672 C30.5738095,3.21439397 30.3656198,3.09219569 30.214456,3.08766983 C29.3856802,3.0628681 28.555456,3.08549741 27.7261371,3.06974741 C27.4811974,3.06504052 27.3622578,3.14560086 27.2453095,3.36284224 C26.8314647,4.13169569 26.1685164,4.5160319 25.2930336,4.52345431 C24.8556543,4.52725603 24.418094,4.52635086 23.9807147,4.52490259 C23.0887578,4.52218707 22.4299733,4.13006638 21.9726802,3.36175603 C21.8937491,3.22923879 21.693344,3.09454914 21.5450767,3.09002328 C20.701094,3.06359224 19.8556629,3.06323017 19.0116802,3.08821293 C18.8628698,3.09255776 18.6601112,3.22344569 18.5820853,3.35505776 C18.1271457,4.12463534 17.4694474,4.51947155 16.5778526,4.52490259 C16.1252664,4.5276181 15.6726802,4.53105776 15.220275,4.52218707 C14.364344,4.50498879 13.7153353,4.12119569 13.3085509,3.36990259 C13.193594,3.15754914 13.0838871,3.06413534 12.8324302,3.06934299 C12.0031112,3.08748879 11.1730681,3.08622155 10.3439302,3.06974741 C10.096456,3.06467845 9.980775,3.15030776 9.86491293,3.36591983 C9.46066293,4.11920431 8.81074914,4.50263534 7.95536121,4.521825 C7.51816293,4.53160086 7.08042155,4.52091983 6.64304224,4.52472155 C5.712525,4.53268707 5.02495603,4.13350603 4.57671466,3.31468707 C4.52584397,3.22181638 4.42482672,3.09038534 4.34535259,3.0891181 C3.38695603,3.07354914 2.42819741,3.07898017 1.4710681,3.07898017 L1.4710681,6.70256638 L34.7271026,6.70256638 L34.7271026,8.16894569 L1.4710681,8.16894569 L1.4710681,39.2484026 L20.2765681,39.2484026 C18.0487578,36.4876267 17.0977836,33.391575 17.4609388,29.868644 L16.9835509,29.868644 C13.3333526,29.868644 9.68315431,29.868644 6.03295603,29.868644 C5.30139569,29.868644 5.06768017,29.6342043 5.06768017,28.8908767 C5.06749914,23.2646871 5.06804224,17.6384974 5.06912845,12.0123078 C5.06930948,11.2711526 5.29868017,11.0417819 6.04055948,11.0417819 C15.5280336,11.0412388 25.0155078,11.0412388 34.5031629,11.0416009 C35.249025,11.0416009 35.4818353,11.2702474 35.4821974,12.0039802 C35.4836457,14.6887216 35.4883526,17.373644 35.4771284,20.0585664 C35.4758612,20.3512991 35.5761543,20.492325 35.8140336,20.6646698 C36.7146802,21.316756 37.5867233,22.0084888 38.4576802,22.7002216 C38.6727491,22.8711181 38.8436457,23.0979543 39.0842405,23.3508595 L39.0842405,3.078075 Z M-6.3362069e-05,22.6095233 C-6.3362069e-05,15.956506 -6.3362069e-05,9.30366983 -6.3362069e-05,2.65065259 C-6.3362069e-05,1.84251466 0.211973276,1.6285319 1.01015431,1.62780776 C2.05092155,1.62708362 3.09205086,1.61966121 4.1328181,1.63341983 C4.37649052,1.63649741 4.49832672,1.560825 4.61545603,1.34177328 C5.02749052,0.57020431 5.69442155,0.190031897 6.5677319,0.178988793 C7.03534397,0.173227559 7.50313707,0.170480172 7.9705681,0.181885345 C8.80821466,0.201980172 9.45161121,0.577988793 9.84970603,1.31135948 C9.98638707,1.56354052 10.1286802,1.64048017 10.4043957,1.63341983 C11.188275,1.61350603 11.9732405,1.61766983 12.7574819,1.63269569 C13.0221543,1.63776466 13.1796543,1.58417845 13.3188698,1.32095431 C13.7095422,0.583238793 14.3549302,0.205781897 15.1916716,0.182428448 C15.6741284,0.168850862 16.1573095,0.171928448 16.6397664,0.181161207 C17.4958784,0.19745431 18.1456112,0.580885345 18.5525767,1.33254052 C18.6675336,1.54489397 18.7770595,1.639575 19.0285164,1.634325 C19.8728612,1.61622155 20.7182922,1.63776466 21.562456,1.61477328 C21.6998612,1.61097155 21.8899474,1.49004052 21.9592836,1.36838534 C22.4131371,0.573100862 23.0858612,0.179350862 23.9961026,0.179350862 C24.4336629,0.179350862 24.8712233,0.174281897 25.3086026,0.180437069 C26.1837233,0.193109483 26.8231371,0.594100862 27.2706543,1.34430776 C27.3495853,1.47646293 27.5494474,1.61060948 27.6973526,1.61495431 C28.5415164,1.64066121 29.3871284,1.64048017 30.2311112,1.61459224 C30.3795595,1.61006638 30.5801457,1.47591983 30.6590767,1.34358362 C31.106956,0.593557759 31.7461888,0.192023276 32.6216716,0.180437069 C33.0740767,0.174462931 33.526844,0.175549138 33.9792491,0.179531897 C34.8540078,0.187316379 35.5254647,0.566040517 35.9324302,1.33851466 C36.0644043,1.58888534 36.214844,1.6337819 36.4599647,1.63142845 C37.5159388,1.62165259 38.5719129,1.62418707 39.6280681,1.62690259 C40.3062233,1.6285319 40.551344,1.87763534 40.551525,2.55597155 C40.551706,10.0536957 40.5491716,17.5514198 40.5602147,25.049144 C40.5605767,25.3512905 40.6326284,25.6798681 40.7636974,25.9514198 C44.2936888,33.2525405 39.9235164,41.9447302 31.9594474,43.4112905 C31.1638009,43.5577474 30.3413612,43.6174888 29.5312319,43.618756 C20.0271026,43.6330578 10.5229733,43.6285319 1.01884397,43.6292983 C0.217042241,43.6292983 -6.3362069e-05,43.4111095 -6.3362069e-05,42.6134716 C-6.3362069e-05,35.9454284 -6.3362069e-05,29.2773853 -6.3362069e-05,22.6095233 L-6.3362069e-05,22.6095233 Z" id="Fill-1" fill="#000000" mask="url(#mask-2)"></path>
                </g>
                <mask id="mask-4" fill="white">
                    <use xlink:href="#path-3"></use>
                </mask>
                <g id="Clip-5"></g>
                <polygon id="Fill-4" fill="#000000" mask="url(#mask-4)" points="8.71264655 36.3678362 15.1748534 36.3678362 15.1748534 34.9637328 8.71264655 34.9637328"></polygon>
                <polygon id="Fill-6" fill="#000000" mask="url(#mask-4)" points="8.72043103 33.47925 15.1835431 33.47925 15.1835431 32.0751466 8.72043103 32.0751466"></polygon>
                <polygon id="Fill-7" fill="#000000" mask="url(#mask-4)" points="5.09937931 33.4629569 6.49461207 33.4629569 6.49461207 32.0691724 5.09937931 32.0691724"></polygon>
                <polygon id="Fill-8" fill="#000000" mask="url(#mask-4)" points="5.09159483 36.3739914 6.48592241 36.3739914 6.48592241 34.980569 5.09159483 34.980569"></polygon>
                <polygon id="Fill-9" fill="#000000" mask="url(#mask-4)" points="36.2329655 8.13605172 37.6207759 8.13605172 37.6207759 6.72615517 36.2329655 6.72615517"></polygon>
                <path d="M29.6982724,23.359529 C25.3290052,23.3564534 21.7361948,26.9257293 21.7240337,31.281419 C21.7117552,35.6803759 25.2788586,39.2822379 29.6559103,39.2903984 C34.0454534,39.298531 37.6469534,35.7207466 37.6549322,31.3438759 C37.6628845,26.9546948 34.0831086,23.3626086 29.6982724,23.359529 M39.1028456,31.3400741 C39.0943241,36.5587552 34.8550397,40.7495224 29.596169,40.7383208 C24.4766948,40.7274362 20.2636603,36.4561086 20.2759438,31.2897466 C20.2884621,26.078669 24.5382466,21.8951431 29.8027293,21.9115688 C34.8905224,21.9275483 39.1113414,26.2066603 39.1028456,31.3400741" id="Fill-10" fill="#000000" mask="url(#mask-4)"></path>
                <path d="M28.9652095,27.0009853 L30.3483129,27.0009853 C30.3675026,27.025606 30.4028043,27.0509509 30.3999078,27.0703216 C30.3245974,27.5723302 30.5233733,27.8563733 30.9833819,28.117606 C31.6055974,28.4713474 31.8677353,29.1035198 31.8583216,29.8566233 L30.4811922,29.8566233 C30.2764422,29.2709767 30.1001147,29.1319422 29.6154853,29.151675 C29.2870888,29.1650716 29.0157181,29.3254681 29.004494,29.6337698 C28.9963474,29.8587957 29.1355629,30.1772353 29.3151491,30.3026922 C29.7054595,30.5756922 30.1607612,30.7576319 30.5945198,30.9663647 C31.3847353,31.346175 31.8432957,31.9627784 31.8550629,32.8435112 C31.8666491,33.7227957 31.4316233,34.3517095 30.6522698,34.7608474 C30.5403905,34.8196836 30.4572957,34.9902181 30.4227181,35.1250888 C30.3834336,35.278606 30.4136664,35.4500457 30.4136664,35.6417612 L28.9657526,35.6417612 C28.9657526,35.5320543 28.951994,35.4294078 28.9682871,35.3316491 C29.025494,34.9847871 28.8757784,34.8151578 28.5625888,34.648244 C27.8545629,34.270606 27.5287009,33.6317353 27.5171147,32.7997009 C27.9952267,32.7997009 28.4565026,32.7997009 28.9179595,32.7993388 C29.0812526,33.3614509 29.2606578,33.5075457 29.7409422,33.4990371 C30.0687957,33.4930629 30.2983474,33.3447957 30.3868733,33.0375802 C30.4779336,32.7213129 30.3378129,32.4723905 30.0543129,32.322675 C29.6154853,32.0907698 29.1681491,31.8747957 28.7242526,31.6519422 C27.9552181,31.2661578 27.5268905,30.6443043 27.5234509,29.7838474 C27.5201922,28.9232095 27.9505112,28.3082353 28.7050629,27.896744 C28.8268991,27.8303043 28.9141578,27.6481836 28.9557957,27.5019078 C28.9985198,27.3529164 28.9652095,27.1822009 28.9652095,27.0009853" id="Fill-11" fill="#000000" mask="url(#mask-4)"></path>
                <polygon id="Fill-12" fill="#000000" mask="url(#mask-4)" points="24.6371638 32.0150431 26.0466983 32.0150431 26.0466983 30.6272328 24.6371638 30.6272328"></polygon>
                <polygon id="Fill-13" fill="#000000" mask="url(#mask-4)" points="33.3423879 32.0284397 34.734 32.0284397 34.734 30.6292241 33.3423879 30.6292241"></polygon>
            </g>
        </g>
    </g>
</svg>