<svg xmlns="http://www.w3.org/2000/svg" viewBox="0 0 42 28.59"><title>big-ic-monitorH2H</title><g id="Capa_2" data-name="Capa 2"><g id="Capa_1-2" data-name="Capa 1"><circle cx="21" cy="3.84" r="0.9" transform="translate(17.08 24.82) rotate(-89.78)"/><path d="M20.1,22.48a.9.9,0,1,0,.9-.9A.9.9,0,0,0,20.1,22.48Z"/><path d="M4.73,22.48a.91.91,0,1,0,.9-.9A.9.9,0,0,0,4.73,22.48Z"/><path d="M35.25,22.48a.91.91,0,1,0,.9-.9A.9.9,0,0,0,35.25,22.48Z"/><path d="M41.44,18.65H36.71v-4a.56.56,0,0,0-.56-.56H21.56V9.94h2a.56.56,0,0,0,0-1.12h-2V7.67h4.73a.56.56,0,0,0,.56-.56V.56A.56.56,0,0,0,26.29,0H15.71a.56.56,0,0,0-.56.56V7.11a.56.56,0,0,0,.56.56h4.73V8.82h-2a.56.56,0,1,0,0,1.12h2V14.1H5.85a.55.55,0,0,0-.56.53c-.1,2.17-.11,3.35-.08,4H.56a.56.56,0,0,0-.56.56v6.55a.56.56,0,0,0,.56.56H5.29v1.15h-2a.56.56,0,0,0,0,1.12H8.39a.56.56,0,1,0,0-1.12h-2V26.32h4.74a.56.56,0,0,0,.55-.56V19.21a.56.56,0,0,0-.55-.56H6.32c0-.67,0-2.07.06-3.44H20.44v3.44H15.71a.56.56,0,0,0-.56.56v6.55a.56.56,0,0,0,.56.56h4.73v1.15h-2a.56.56,0,1,0,0,1.12h5.08a.56.56,0,1,0,0-1.12h-2V26.32h4.73a.56.56,0,0,0,.56-.56V19.21a.56.56,0,0,0-.56-.56H21.56V15.21h14v3.44H30.86a.56.56,0,0,0-.55.56v6.55a.56.56,0,0,0,.55.56H35.6v1.15h-2a.56.56,0,1,0,0,1.12H38.7a.56.56,0,1,0,0-1.12h-2V26.32h4.73a.56.56,0,0,0,.56-.56V19.21A.56.56,0,0,0,41.44,18.65ZM16.27,1.12h9.46V6.55H16.27ZM10.58,25.2H1.12V19.76h9.46Zm15.15,0H16.27V19.76h9.46Zm15.15,0H31.42V19.76h9.46Z"/></g></g></svg>