<svg xmlns="http://www.w3.org/2000/svg" viewBox="0 0 43.3 34.99"><defs><style>.cls-1,.cls-2{fill:none;stroke:#000;stroke-width:1.3px;}.cls-1{stroke-linecap:round;stroke-linejoin:round;}.cls-2{stroke-miterlimit:10;}</style></defs><title>big-ic-configuradorH2H</title><g id="Capa_2" data-name="Capa 2"><g id="Capa_1-2" data-name="Capa 1"><rect class="cls-1" x="0.65" y="0.65" width="42" height="25.16"/><path class="cls-1" d="M29.36,34.34H13.94a1.89,1.89,0,0,1-1.89-1.89h0a1.89,1.89,0,0,1,1.89-1.89H29.36a1.89,1.89,0,0,1,1.89,1.89h0A1.89,1.89,0,0,1,29.36,34.34Z"/><line class="cls-1" x1="25.18" y1="25.81" x2="27.39" y2="30.56"/><line class="cls-1" x1="18.12" y1="25.81" x2="15.91" y2="30.56"/><polyline class="cls-2" points="35.36 24.16 35.36 21.3 32.05 19.93 31.24 17.96 32.62 14.66 30.09 12.13 26.78 13.5 24.81 12.68 23.45 9.37 19.88 9.36 18.51 12.68 16.54 13.49 13.23 12.11 10.7 14.63 12.07 17.94 11.26 19.91 7.94 21.27 7.94 24.02"/><path class="cls-2" d="M15.48,23.92a6.23,6.23,0,1,1,12.3.27"/></g></g></svg>