<?xml version="1.0" encoding="UTF-8"?>
<svg width="42px" height="43px" viewBox="0 0 42 43" version="1.1" xmlns="http://www.w3.org/2000/svg" xmlns:xlink="http://www.w3.org/1999/xlink">
    <!-- Generator: Sketch 55.2 (78181) - https://sketchapp.com -->
    <title>Bitacora</title>
    <desc>Created with Sketch.</desc>
    <g id="Page-1" stroke="none" stroke-width="1" fill="none" fill-rule="evenodd">
        <g id="Personas-Morales-Copy" transform="translate(-698.000000, -274.000000)" fill="#000000" fill-rule="nonzero">
            <g id="Bitacora" transform="translate(698.000000, 274.000000)">
                <path d="M41.4608536,18.9896234 C41.0606102,18.5360691 40.4848684,18.2762301 39.8799665,18.2761506 L39.3640167,18.2761506 L39.3640167,7.73221757 C39.3640167,6.56756689 38.4198808,5.62343096 37.2552301,5.62343096 L16.8702929,5.62343096 C16.482076,5.62343096 16.167364,5.30871899 16.167364,4.92050209 L16.167364,2.10878661 C16.167364,0.944135925 15.2232281,0 14.0585774,0 L2.10878661,0 C0.944135925,0 0,0.944135925 0,2.10878661 L0,40.0669456 C0,41.2315963 0.944135925,42.1757322 2.10878661,42.1757322 L38.6610879,42.1757322 C39.015525,42.1757322 39.3144431,41.9116682 39.3583933,41.5599665 L41.9725858,20.6464268 C42.0474651,20.0463308 41.8611058,19.4429668 41.4608536,18.9896234 Z M1.40585774,40.0669456 L1.40585774,2.10878661 C1.40585774,1.72056972 1.72056972,1.40585774 2.10878661,1.40585774 L14.0585774,1.40585774 C14.4467943,1.40585774 14.7615063,1.72056972 14.7615063,2.10878661 L14.7615063,4.92050209 C14.7615063,6.08515278 15.7056422,7.0292887 16.8702929,7.0292887 L37.2552301,7.0292887 C37.643447,7.0292887 37.958159,7.34400068 37.958159,7.73221757 L37.958159,18.2761506 L35.1464435,18.2761506 L35.1464435,13.3556485 C35.1464435,12.9674316 34.8317315,12.6527197 34.4435146,12.6527197 L27.7052385,12.6527197 L25.0994812,10.0469623 C24.9676871,9.91512847 24.7889236,9.841044 24.6025105,9.84100418 L4.92050209,9.84100418 C4.5322852,9.84100418 4.21757322,10.1557162 4.21757322,10.5439331 L4.21757322,40.7698745 L2.10878661,40.7698745 C1.72056972,40.7698745 1.40585774,40.4551625 1.40585774,40.0669456 Z M25.3054393,12.2408033 L28.5290711,15.4644351 L25.3054393,15.4644351 L25.3054393,12.2408033 Z M30.7229121,15.6703933 L29.1110962,14.0585774 L33.7405858,14.0585774 L33.7405858,18.2761506 L30.9288703,18.2761506 L30.9288703,16.167364 C30.9288305,15.9809509 30.854746,15.8021874 30.7229121,15.6703933 L30.7229121,15.6703933 Z M5.62343096,40.7698745 L5.62343096,11.2468619 L23.8995816,11.2468619 L23.8995816,16.167364 C23.8995816,16.5555809 24.2142936,16.8702929 24.6025105,16.8702929 L29.5230126,16.8702929 L29.5230126,18.2761506 L13.1911632,18.2761506 C12.1275838,18.2760963 11.2304278,19.0680768 11.0985439,20.1234477 L8.51738912,40.7698745 L5.62343096,40.7698745 Z M38.0404017,40.7698745 L9.93449372,40.7698745 L12.4931548,20.2977741 C12.5371382,19.9458065 12.8364582,19.6817538 13.1911632,19.6820082 L39.8799665,19.6820082 C40.081672,19.6820082 40.2737204,19.7683747 40.4072665,19.9195387 C40.5408125,20.0707026 40.6029864,20.2719517 40.5779749,20.4721004 L38.0404017,40.7698745 Z" id="Shape"></path>
                <rect id="Rectangle" x="35.1464435" y="21.0878661" width="4.21757322" height="1.40585774"></rect>
                <rect id="Rectangle" x="32.334728" y="21.0878661" width="1.40585774" height="1.40585774"></rect>
            </g>
        </g>
    </g>
</svg>