<?xml version="1.0" encoding="UTF-8"?>
<svg width="45px" height="45px" viewBox="0 0 45 45" version="1.1" xmlns="http://www.w3.org/2000/svg" xmlns:xlink="http://www.w3.org/1999/xlink">
    <!-- Generator: Sketch 55.2 (78181) - https://sketchapp.com -->
    <title>ConfiguradorProductos</title>
    <desc>Created with Sketch.</desc>
    <g id="Page-1" stroke="none" stroke-width="1" fill="none" fill-rule="evenodd">
        <g id="Personas-Morales-Copy" transform="translate(-523.000000, -273.000000)">
            <g id="ConfiguradorProductos" transform="translate(523.000000, 273.000000)">
                <g id="Group" fill="#000000" fill-rule="nonzero">
                    <path d="M45,15.0866129 L45,9.59153226 L43.0504839,9.11685484 C42.8523387,8.47596774 42.5968548,7.85758065 42.2869355,7.26967742 L43.3291935,5.5575 L39.4432258,1.67153226 L37.7310484,2.71379032 C37.1424194,2.40387097 36.5247581,2.1483871 35.883871,1.95024194 L35.4091935,-3.55271368e-15 L29.9133871,-3.55271368e-15 L29.4394355,1.94951613 C28.7985484,2.14766129 28.1808871,2.40314516 27.5922581,2.71306452 L25.8800806,1.67080645 L21.9941129,5.55677419 L23.036371,7.26895161 C22.7264516,7.85685484 22.4716935,8.47524194 22.2728226,9.11612903 L20.3225806,9.59080645 L20.3225806,11.6129032 L7.6833871,11.6129032 L-7.10542736e-15,19.2962903 L-7.10542736e-15,45 L27.5806452,45 L27.5806452,21.9716129 L27.5922581,21.9643548 C28.1808871,22.2742742 28.7985484,22.5297581 29.4394355,22.7279032 L29.9133871,24.6774194 L35.4091935,24.6774194 L35.8831452,22.7279032 C36.5240323,22.5297581 37.1416935,22.2742742 37.7303226,21.9643548 L39.4425,23.0066129 L43.3284677,19.1206452 L42.2862097,17.4084677 C42.596129,16.8205645 42.8508871,16.2021774 43.0497581,15.5612903 L45,15.0866129 Z M7.25806452,14.0908065 L7.25806452,18.8709677 L2.47790323,18.8709677 L7.25806452,14.0908065 Z M26.1290323,43.5483871 L1.4516129,43.5483871 L1.4516129,20.3225806 L8.70967742,20.3225806 L8.70967742,13.0645161 L26.1290323,13.0645161 L26.1290323,43.5483871 Z M26.1718548,11.6129032 C26.5340323,8.35185484 29.3044355,5.80645161 32.6612903,5.80645161 C36.2634677,5.80645161 39.1935484,8.73725806 39.1935484,12.3387097 C39.1935484,15.9401613 36.2634677,18.8709677 32.6612903,18.8709677 C30.6631452,18.8709677 28.8283065,17.9804032 27.5806452,16.4308065 L27.5806452,11.6129032 L26.1718548,11.6129032 Z M41.8790323,14.3520968 L41.7679839,14.7687097 C41.5531452,15.5772581 41.2345161,16.3487903 40.8200806,17.0615323 L40.6037903,17.4345968 L41.4958065,18.9007258 L39.2225806,21.1732258 L37.7564516,20.2812097 L37.3826613,20.4975 C36.6691935,20.9119355 35.8976613,21.2305645 35.0898387,21.446129 L34.6739516,21.5571774 L34.2682258,23.2258065 L31.0543548,23.2258065 L30.6471774,21.5571774 L30.2312903,21.446129 C29.4234677,21.2312903 28.6519355,20.9119355 27.9384677,20.4975 L27.5806452,20.2899194 L27.5806452,18.5008065 C28.9937903,19.6729839 30.7698387,20.3225806 32.6612903,20.3225806 C37.0633065,20.3225806 40.6451613,16.7407258 40.6451613,12.3387097 C40.6451613,7.93669355 37.0633065,4.35483871 32.6612903,4.35483871 C28.503871,4.35483871 25.0824194,7.54983871 24.7144355,11.6129032 L21.7741935,11.6129032 L21.7741935,10.7317742 L23.4435484,10.3253226 L23.5545968,9.90870968 C23.7694355,9.10016129 24.0880645,8.32862903 24.5025,7.6158871 L24.7187903,7.24282258 L23.8267742,5.77669355 L26.1,3.50419355 L27.566129,4.39620968 L27.9399194,4.17991935 C28.6533871,3.76548387 29.4249194,3.44685484 30.2327419,3.23129032 L30.648629,3.12024194 L31.0543548,1.4516129 L34.2682258,1.4516129 L34.6754032,3.12024194 L35.0912903,3.23129032 C35.8991129,3.44612903 36.6706452,3.76548387 37.3841129,4.17991935 L37.7579032,4.39620968 L39.2240323,3.50419355 L41.4972581,5.77669355 L40.6052419,7.24282258 L40.8215323,7.6158871 C41.2352419,8.32862903 41.5545968,9.10016129 41.7694355,9.90870968 L41.8804839,10.3253226 L43.5498387,10.7317742 L43.5498387,13.946371 L41.8790323,14.3520968 Z" id="Shape"></path>
                    <polygon id="Path" points="10.1612903 14.516129 11.6129032 14.516129 11.6129032 15.9677419 10.1612903 15.9677419"></polygon>
                    <polygon id="Path" points="13.0645161 14.516129 24.6774194 14.516129 24.6774194 15.9677419 13.0645161 15.9677419"></polygon>
                    <polygon id="Path" points="10.1612903 17.4193548 24.6774194 17.4193548 24.6774194 18.8709677 10.1612903 18.8709677"></polygon>
                    <path d="M37.7419355,12.3387097 L36.2903226,12.3387097 C36.2903226,14.3397581 34.6623387,15.9677419 32.6612903,15.9677419 L32.6612903,17.4193548 C35.4621774,17.4193548 37.7419355,15.1403226 37.7419355,12.3387097 Z" id="Path"></path>
                </g>
                <g id="Group-4" transform="translate(4.000000, 27.000000)" stroke="#000000">
                    <g id="Group-7">
                        <g id="Group-9">
                            <rect id="Rectangle" x="0.5" y="0.5" width="7.55" height="7.55"></rect>
                        </g>
                    </g>
                </g>
                <g id="Group-4" transform="translate(15.000000, 27.000000)" stroke="#000000">
                    <g id="Group-7">
                        <g id="Group-9">
                            <rect id="Rectangle" x="0.5" y="0.5" width="7.55" height="7.55"></rect>
                        </g>
                    </g>
                </g>
            </g>
        </g>
    </g>
</svg>