<?xml version="1.0" encoding="UTF-8"?>
<svg width="40px" height="48px" viewBox="0 0 40 48" version="1.1" xmlns="http://www.w3.org/2000/svg" xmlns:xlink="http://www.w3.org/1999/xlink">
    <!-- Generator: Sketch 60 (88103) - https://sketch.com -->
    <title>Group</title>
    <desc>Created with Sketch.</desc>
    <defs>
        <polygon id="path-1" points="0 0 22 0 22 8 0 8"></polygon>
    </defs>
    <g id="Portal-de-personas-morales" stroke="none" stroke-width="1" fill="none" fill-rule="evenodd">
        <g id="DomiciliacionesMenu" transform="translate(-610.000000, -285.000000)">
            <g id="Group" transform="translate(610.000000, 285.000000)">
                <path d="M25.9962122,25.9999932 C24.9088653,26.0027575 24.0079314,26.8988262 24.0000548,27.985186 C23.9919281,29.0910501 24.8888612,29.9978712 25.9928366,30.0000034 C27.1076891,30.0019971 27.9979958,29.1164306 28,28.003565 C28.0021217,26.8973259 27.1016879,25.9971312 25.9962122,25.9999932 Z M7,29.4805001 L7,27.2437726 L21.8434862,27.2437726 C22.2773224,25.8523837 23.0949566,24.8449715 24.3605936,24.3083311 C25.2573789,23.9281464 26.1765188,23.9016023 27.0968285,24.2173227 C28.9748789,24.861544 30.1674733,26.8273531 29.980838,28.960713 C29.7992715,31.0357883 28.2722671,32.7131233 26.3002492,32.9698568 C24.580501,33.1938666 22.4455021,32.1829433 21.756797,29.4805001 L7,29.4805001 Z" id="Fill-1" fill="#006341"></path>
                <g id="Group-5" transform="translate(7.000000, 33.000000)">
                    <mask id="mask-2" fill="white">
                        <use xlink:href="#path-1"></use>
                    </mask>
                    <g id="Clip-4"></g>
                    <path d="M12.7048442,4.01762471 C12.7049754,2.89042084 11.7574244,1.97471111 10.596858,1.98029472 C9.45609778,1.98580212 8.51405575,2.90125688 8.5083892,4.00984825 C8.50264421,5.13756206 9.44521091,6.05888103 10.6048591,6.05888103 C11.7734267,6.05888103 12.7048442,5.1536249 12.7048442,4.01762471 L12.7048442,4.01762471 Z M22,2.86951364 L22,4.89967895 L14.7092085,4.89967895 C13.9904129,6.93813065 12.5736772,8.10689395 10.3315069,7.99228681 C8.34957222,7.89081042 7.10571471,6.75047581 6.49342674,4.91102493 L0,4.91102493 L0,2.88009472 L6.56701148,2.88009472 C6.61331346,2.77020445 6.65423759,2.67535717 6.69319422,2.57987247 C7.33027277,1.02266875 8.87594574,0.000765762603 10.5958086,4.32333101e-07 C12.32,-0.000764032292 13.8642301,1.01234264 14.4938322,2.57796023 C14.58237,2.79837818 14.6812699,2.87767255 14.9336354,2.87639772 C17.1628201,2.86454181 19.3920048,2.86951364 21.6213206,2.86951364 L22,2.86951364 Z" id="Fill-3" fill="#006341" mask="url(#mask-2)"></path>
                </g>
                <path d="M17.9999488,17.9999906 C16.9148253,17.9966329 16.0060329,18.8970516 16.0000301,19.9814309 C15.9940274,21.0930729 16.8853118,21.9974935 17.989569,22.0000053 C19.1082078,22.0024958 19.9971161,21.1218363 20.0000075,20.0079433 C20.0029938,18.8980521 19.1117094,18.003386 17.9999488,17.9999906 Z M29,18.8602021 L29,20.8845719 L21.706382,20.8845719 C20.7681737,23.050378 19.3844805,24.0647252 17.4714541,23.9968053 C15.8254563,23.9382975 14.1131934,22.9579103 13.5030299,20.8994533 L7,20.8994533 L7,18.8673248 L13.5658833,18.8673248 C14.2503161,17.1339676 15.4968866,16.1175854 17.3948229,16.0092188 C19.307718,15.8999618 20.5264702,16.7565923 21.6457593,18.8602021 L29,18.8602021 Z" id="Fill-6" fill="#006341"></path>
                <path d="M36,0 L7.2,0 C5.2432,0 3.6168,1.4144 3.2736,3.2736 C1.4144,3.6168 0,5.2432 0,7.2 L0,44 C0,46.2056 1.7944,48 4,48 L32.8,48 C34.7568,48 36.3832,46.5856 36.7264,44.7264 C38.5856,44.3832 40,42.7568 40,40.8 L40,4 C40,1.7944 38.2056,0 36,0 Z M35.2,44 C35.2,45.3232 34.1232,46.4 32.8,46.4 L4,46.4 C2.6768,46.4 1.6,45.3232 1.6,44 L1.6,7.2 C1.6,5.8768 2.6768,4.8 4,4.8 L28,4.8 L28,11.2 C28,11.6424 28.3576,12 28.8,12 L35.2,12 L35.2,44 Z M29.6,10.4 L29.6,5.9312 L34.0688,10.4 L29.6,10.4 Z M38.4,40.8 C38.4,41.8416 37.7288,42.7216 36.8,43.0528 L36.8,11.2 C36.8,10.9784 36.7096,10.7784 36.5648,10.6336 L29.3672,3.436 C29.2216,3.2904 29.0216,3.2 28.8,3.2 L4.9472,3.2 C5.2784,2.2712 6.1584,1.6 7.2,1.6 L36,1.6 C37.3232,1.6 38.4,2.6768 38.4,4 L38.4,40.8 Z" id="Shape" fill="#006341" fill-rule="nonzero"></path>
            </g>
        </g>
    </g>
</svg>