<?xml version="1.0" encoding="utf-8"?>
<!-- Generator: Adobe Illustrator 22.0.1, SVG Export Plug-In . SVG Version: 6.00 Build 0)  -->
<svg version="1.1" id="Capa_1" xmlns="http://www.w3.org/2000/svg" xmlns:xlink="http://www.w3.org/1999/xlink" x="0px" y="0px"
	 viewBox="0 0 512 512" style="enable-background:new 0 0 512 512;" xml:space="preserve">
<style type="text/css">
	.st0{fill:#006341;}
</style>
<g id="Check">
	<path class="st0" d="M488,336H384V24c0-4.4-3.6-8-8-8H120c-4.4,0-8,3.6-8,8v24H88c-4.4,0-8,3.6-8,8v280H48c-17.7,0-32,14.3-32,32
		c0,9.2,4,17.9,10.8,24c-13.3,11.7-14.6,31.9-2.9,45.1c0.9,1,1.9,2,2.9,2.9c-13.3,11.7-14.5,31.9-2.8,45.2C30.1,492,38.8,496,48,496
		h440c4.4,0,8-3.6,8-8V344C496,339.6,492.4,336,488,336z M128,32h240v304h-16V120.1c0-2.1-0.8-4.2-2.3-5.7l-64.1-64.1
		c-1.5-1.5-3.6-2.4-5.7-2.3H128V32z M288,75.4l36.6,36.6H288V75.4z M96,64h176v56c0,4.4,3.6,8,8,8h56v208H96V64z M48,352h432v32h-32
		v-8c0-4.4-3.6-8-8-8h-48c-4.4,0-8,3.6-8,8v8H48c-8.8,0-16-7.2-16-16S39.2,352,48,352z M448,400h32v32h-32V400z M432,384v65.1
		l-11.6-7.7c-2.7-1.8-6.2-1.8-8.9,0l-11.6,7.7V384H432z M48,400h336v32H48c-8.8,0-16-7.2-16-16S39.2,400,48,400z M48,480
		c-8.8,0-16-7.2-16-16s7.2-16,16-16h336v16c0,4.4,3.6,8,8,8c1.6,0,3.1-0.5,4.4-1.3l19.6-13.1l19.6,13c3.7,2.5,8.6,1.5,11.1-2.2
		c0.9-1.3,1.3-2.8,1.3-4.4v-16h32v32H48z"/>
	<path class="st0" d="M488,96h-24V72c0-4.4-3.6-8-8-8V40c0-13.3-10.7-24-24-24s-24,10.7-24,24v24c-4.4,0-8,3.6-8,8v192
		c0,1.2,0.3,2.4,0.8,3.6l23.8,48c1.3,2.7,4.1,4.4,7.1,4.4l0,0c3,0,5.8-1.7,7.1-4.4l24.2-48c0.6-1.1,0.9-2.3,0.9-3.6V112h16v56h16
		v-64C496,99.6,492.4,96,488,96z M448,80v16h-32V80H448z M424,40c0-4.4,3.6-8,8-8s8,3.6,8,8v24h-16V40z M431.9,294.1l-11-22.1H443
		L431.9,294.1z M448,256h-32V112h32V256z"/>
	<path class="st0" d="M216,128c-48.6,0-88,39.4-88,88s39.4,88,88,88s88-39.4,88-88C303.9,167.4,264.6,128.1,216,128z M216,288
		c-39.8,0-72-32.2-72-72s32.2-72,72-72s72,32.2,72,72C288,255.7,255.7,288,216,288z"/>
	<path class="st0" d="M192,236.7l-17-17L163.7,231l22.6,22.6c3.1,3.1,8.2,3.1,11.3,0l67.9-67.9l-11.3-11.3L192,236.7z"/>
</g>
</svg>
