<?xml version="1.0" encoding="UTF-8"?>
<svg width="45px" height="37px" viewBox="0 0 45 37" version="1.1" xmlns="http://www.w3.org/2000/svg" xmlns:xlink="http://www.w3.org/1999/xlink">
    <!-- Generator: Sketch 55.2 (78181) - https://sketchapp.com -->
    <title>TarjetaDebito</title>
    <desc>Created with Sketch.</desc>
    <g id="Page-1" stroke="none" stroke-width="1" fill="none" fill-rule="evenodd">
        <g id="Personas-Morales-Copy" transform="translate(-330.000000, -633.000000)" fill="#000000" fill-rule="nonzero">
            <g id="TarjetaDebito" transform="translate(330.000000, 633.000000)">
                <path d="M23.9532456,25.4514912 L35.9298246,25.4514912 C36.3789474,25.4514912 36.6783333,25.1521053 36.6783333,24.7029825 L36.6783333,17.9661404 C36.6783333,17.5170175 36.3789474,17.2176316 35.9298246,17.2176316 L23.9532456,17.2176316 C23.5041228,17.2176316 23.2047368,17.5170175 23.2047368,17.9661404 L23.2047368,24.7029825 C23.2047368,25.1520175 23.5041228,25.4514912 23.9532456,25.4514912 Z M24.7017544,18.7146491 L35.1813158,18.7146491 L35.1813158,23.954386 L24.7017544,23.954386 L24.7017544,18.7146491 Z" id="Shape"></path>
                <path d="M3.7427193,15.7204386 L9.73105263,15.7204386 C10.1801754,15.7204386 10.4795614,15.4210526 10.4795614,14.9719298 C10.4795614,14.522807 10.1801754,14.2234211 9.73105263,14.2234211 L3.7427193,14.2234211 C3.29359649,14.2234211 2.99421053,14.522807 2.99421053,14.9719298 C2.99421053,15.4210526 3.29359649,15.7204386 3.7427193,15.7204386 Z" id="Path"></path>
                <path d="M12.7251754,15.7204386 L18.7135088,15.7204386 C19.1626316,15.7204386 19.4620175,15.4210526 19.4620175,14.9719298 C19.4620175,14.522807 19.1626316,14.2234211 18.7135088,14.2234211 L12.7251754,14.2234211 C12.2760526,14.2234211 11.9766667,14.522807 11.9766667,14.9719298 C11.9766667,15.4210526 12.2760526,15.7204386 12.7251754,15.7204386 Z" id="Path"></path>
                <path d="M3.7427193,18.7146491 L13.4736842,18.7146491 C13.922807,18.7146491 14.222193,18.4152632 14.222193,17.9661404 C14.222193,17.5170175 13.922807,17.2176316 13.4736842,17.2176316 L3.7427193,17.2176316 C3.29359649,17.2176316 2.99421053,17.5170175 2.99421053,17.9661404 C2.99421053,18.4152632 3.29359649,18.7146491 3.7427193,18.7146491 Z" id="Path"></path>
                <path d="M18.7134211,17.2175439 L16.467807,17.2175439 C16.0186842,17.2175439 15.7192982,17.5169298 15.7192982,17.9660526 C15.7192982,18.4151754 16.0186842,18.7145614 16.467807,18.7145614 L18.7134211,18.7145614 C19.1625439,18.7145614 19.4619298,18.4151754 19.4619298,17.9660526 C19.4619298,17.5169298 19.1625439,17.2175439 18.7134211,17.2175439 Z" id="Path"></path>
                <path d="M44.2385965,7.93570175 C43.7146491,7.26201754 43.0409649,6.8877193 42.2175439,6.81289474 L40.4210526,6.59517544 L40.4210526,4.49236842 L40.4210526,2.99535088 C40.4210526,1.34859649 39.0736842,0.00122807018 37.4269298,0.00122807018 L2.99412281,0.00122807018 C1.34736842,0.00122807018 0,1.34850877 0,2.99535088 L0,4.49245614 L0,10.4807895 L0,26.9485965 C0,28.300614 0.908508772,29.4501754 2.145,29.8185965 C2.1072807,31.332807 3.25298246,32.6473684 4.79070175,32.787193 L39.3731579,36.6795614 C39.4479825,36.6795614 39.5977193,36.6795614 39.6725439,36.6795614 C41.1696491,36.6795614 42.5170175,35.5567544 42.6666667,34.1345614 L44.9122807,10.1064912 C44.9871053,9.35789474 44.7625439,8.53447368 44.2385965,7.93570175 Z M1.49710526,5.24096491 L38.9240351,5.24096491 L38.9240351,7.18719298 L38.9240351,9.73219298 L1.49710526,9.73219298 L1.49710526,5.24096491 Z M2.99412281,1.49824561 L37.4268421,1.49824561 C38.2502632,1.49824561 38.9239474,2.17192982 38.9239474,2.99535088 L38.9239474,3.74385965 L1.49710526,3.74385965 L1.49710526,2.99535088 C1.49710526,2.17192982 2.17078947,1.49824561 2.99412281,1.49824561 Z M1.49710526,26.9485088 L1.49710526,11.2292105 L38.9240351,11.2292105 L38.9240351,26.9485088 C38.9240351,27.7719298 38.2503509,28.445614 37.4269298,28.445614 L3.06903509,28.445614 L2.99421053,28.445614 C2.17078947,28.445614 1.49710526,27.7719298 1.49710526,26.9485088 Z M43.4151754,9.80701754 L41.1695614,33.8350877 C41.0947368,34.6585088 40.3461404,35.2572807 39.522807,35.1824561 L5.01517544,31.2900877 C4.26666667,31.2152632 3.74263158,30.6164035 3.66780702,29.9427193 L37.4268421,29.9427193 C39.0735965,29.9427193 40.4209649,28.5953509 40.4209649,26.9485965 L40.4209649,10.4807018 L40.4209649,8.01052632 L42.1426316,8.16026316 C42.5169298,8.16026316 42.8911404,8.38482456 43.1157018,8.68421053 C43.3403509,8.98359649 43.4900877,9.4327193 43.4151754,9.80701754 Z" id="Shape"></path>
            </g>
        </g>
    </g>
</svg>