<?xml version="1.0" encoding="UTF-8"?>
<svg width="50px" height="39px" viewBox="0 0 50 39" version="1.1" xmlns="http://www.w3.org/2000/svg" xmlns:xlink="http://www.w3.org/1999/xlink">
    <!-- Generator: Sketch 55.2 (78181) - https://sketchapp.com -->
    <title>Dashboard</title>
    <desc>Created with Sketch.</desc>
    <defs>
        <polygon id="path-1" points="6.21324235e-05 0.159973218 49.7700498 0.159973218 49.7700498 38.0597015 6.21324235e-05 38.0597015"></polygon>
    </defs>
    <g id="Page-1" stroke="none" stroke-width="1" fill="none" fill-rule="evenodd">
        <g id="Personas-Morales-Copy" transform="translate(-879.000000, -453.000000)">
            <g id="Dashboard" transform="translate(879.000000, 453.000000)">
                <g id="Group-5">
                    <g id="Group-3" transform="translate(0.000000, 0.000000)">
                        <mask id="mask-2" fill="white">
                            <use xlink:href="#path-1"></use>
                        </mask>
                        <g id="Clip-2"></g>
                        <path d="M47.777623,9.10221393 C47.777623,7.195 47.777623,5.35246269 47.777623,3.50992537 C47.777623,2.24947761 47.6812438,2.15097015 46.4474129,2.15097015 C40.9563682,2.15121891 35.4650746,2.15171642 29.9737811,2.15196517 C21.0220398,2.15246269 12.0702985,2.15196517 3.11855721,2.15420398 C2.23348259,2.15445274 2.02278607,2.36738806 2.01905473,3.25395522 C2.01308458,4.58007463 2.01606965,5.90619403 2.01521282,7.23231343 C2.01521282,7.84674129 2.01521282,8.46116915 2.01521282,9.10221393 L47.777623,9.10221393 Z M47.7777612,11.1748507 L2.015199,11.1748507 L2.015199,11.7845522 C2.015199,19.4524627 2.015199,27.1203731 2.0158209,34.7882836 C2.01606965,35.8711194 2.19218905,36.044005 3.28074627,36.044005 C17.7252736,36.0435075 32.1702985,36.04301 46.6150746,36.0425124 C47.5964179,36.0422637 47.7767662,35.8611692 47.7767662,34.8860448 C47.7767662,29.6014677 47.7777612,24.3166418 47.7777612,19.0318159 L47.7777612,11.1748507 Z M24.9441791,0.160422886 C32.1969154,0.160671642 39.4499005,0.159973218 46.7028856,0.160920398 C48.6859701,0.16141791 49.7670647,1.24599502 49.7673134,3.23504975 C49.768806,13.7828109 49.7700498,24.3305721 49.7700498,34.8783333 C49.7700498,36.9775871 48.7021393,38.0380348 46.5924378,38.0377861 C32.1693035,38.0365423 17.7461692,38.0114179 3.32353234,38.0597058 C1.00910448,38.0673881 -0.0107960199,36.5457463 6.21324235e-05,34.7385323 C0.05039801,26.5537065 0.0133333333,18.3681343 0.0110945274,10.1825622 C0.0103482587,7.8410199 0.0193034826,5.49947761 0.0247761194,3.15793532 C0.0295024876,1.28455224 1.16507463,0.161169154 3.06084577,0.160671642 C10.3553731,0.159427861 17.6496517,0.159973218 24.9441791,0.160422886 L24.9441791,0.160422886 Z" id="Fill-1" fill="#000000" mask="url(#mask-2)"></path>
                    </g>
                    <g id="Group-4" transform="translate(11.000000, 16.000000)" stroke="#000000">
                        <rect id="Rectangle" x="0.5" y="0.5" width="4" height="4"></rect>
                        <rect id="Rectangle" x="8.5" y="0.5" width="4" height="4"></rect>
                        <rect id="Rectangle" x="16.5" y="0.5" width="4" height="4"></rect>
                        <rect id="Rectangle" x="24.5" y="0.5" width="4" height="4"></rect>
                    </g>
                    <g id="Group-4" transform="translate(11.000000, 26.000000)" stroke="#000000">
                        <rect id="Rectangle" x="0.5" y="0.5" width="4" height="4"></rect>
                        <rect id="Rectangle" x="8.5" y="0.5" width="4" height="4"></rect>
                        <rect id="Rectangle" x="16.5" y="0.5" width="4" height="4"></rect>
                        <rect id="Rectangle" x="24.5" y="0.5" width="4" height="4"></rect>
                    </g>
                </g>
                <path d="M7.0111194,6.72338308 C6.48350746,6.7318408 6.01659204,6.26965174 6.01832848,5.74004975 C6.02007463,5.23606965 6.45017413,4.78681592 6.95415423,4.76243781 C7.48873134,4.73656716 7.95241294,5.17139303 7.96883085,5.71343284 C7.98475124,6.25323383 7.54718905,6.71467662 7.0111194,6.72338308" id="Fill-4" fill="#000000"></path>
                <path d="M11.0390796,4.76161692 C11.5761443,4.77405473 12.0032587,5.23251244 11.9848507,5.77728856 C11.9666915,6.31858209 11.4990299,6.75415423 10.9691791,6.72330846 C10.455,6.69320896 10.0582338,6.26261194 10.0594747,5.73699005 C10.0607214,5.18748756 10.5010199,4.7491791 11.0390796,4.76161692" id="Fill-6" fill="#000000"></path>
            </g>
        </g>
    </g>
</svg>