<?xml version="1.0" encoding="UTF-8"?>
<svg width="48px" height="48px" viewBox="0 0 48 48" version="1.1" xmlns="http://www.w3.org/2000/svg" xmlns:xlink="http://www.w3.org/1999/xlink">
    <!-- Generator: Sketch 60 (88103) - https://sketch.com -->
    <title>Group 12</title>
    <desc>Created with Sketch.</desc>
    <defs>
        <polygon id="path-1" points="0 0.004875 47.9919375 0.004875 47.9919375 47.9999985 0 47.9999985"></polygon>
    </defs>
    <g id="Portal-de-personas-morales" stroke="none" stroke-width="1" fill="none" fill-rule="evenodd">
        <g id="DomiciliacionesMenu" transform="translate(-787.000000, -284.000000)">
            <g id="Group-12" transform="translate(787.000000, 284.000000)">
                <g id="Group-3">
                    <mask id="mask-2" fill="white">
                        <use xlink:href="#path-1"></use>
                    </mask>
                    <g id="Clip-2"></g>
                    <path d="M24.0019875,12.0117563 L24.0019875,12.0087563 C30.812925,12.0087563 37.6238625,12.0048188 44.4349875,12.0179494 C44.8786125,12.0188813 45.021675,11.9041313 45.0156786,11.4471938 C44.9913,9.66669375 45.011175,7.88563125 45.0068625,6.10494375 C45.00255,4.29500625 43.718175,2.99488125 41.92005,2.99413125 C29.9697375,2.99011725 18.0192375,2.98906875 6.0687375,2.99113125 C4.299675,2.99150625 2.9941125,4.29950625 2.9873625,6.06463125 C2.981175,7.70488125 2.9854875,9.34513125 2.9858625,10.9853813 C2.9858625,12.0110063 2.986425,12.0117563 3.990675,12.0117563 C10.661175,12.0119438 17.3314875,12.0117563 24.0019875,12.0117563 L24.0019875,12.0117563 Z M47.9911125,20.9871938 C47.0423625,20.9871938 46.1693625,20.9843813 45.2963625,20.9883188 C44.936925,20.9900063 45.0109875,20.7282563 45.010425,20.5238813 C45.0063,18.8834438 45.0087375,17.2430063 45.0063,15.6023813 C45.00555,14.9950688 45.0019875,14.9909438 44.3866125,14.9909438 C30.7624875,14.9907563 17.13855,14.9931938 3.514425,14.9841938 C3.111675,14.9840063 2.9791125,15.0816938 2.979675,15.5043188 C2.9918625,24.3320063 2.986425,33.1593188 2.991675,41.9868188 C2.9928,43.6926938 4.313925,45.0066938 6.0252375,45.0089438 C10.8218625,45.0155063 15.6183,45.0173813 20.4147375,45.0023813 C20.857425,45.0010688 21.0166125,45.1086938 20.995425,45.5697563 C20.95905,46.3602563 20.9853,47.1535688 20.9853,47.9946938 L20.424675,47.9946938 C15.6438,47.9945063 10.862925,47.9796938 6.08205,47.9999985 C3.1204875,48.0125063 0.665175,45.8613188 0.17055,43.2878813 C0.086175,42.8481938 0.0102375,42.3980063 0.0098625,41.9526938 C0.0012375,29.9845688 0.00705,18.0168188 -7.60162164e-05,6.04888125 C-0.0017625,3.13569375 2.098425,0.68844375 4.6988625,0.17638125 C5.1379875,0.08994375 5.5883625,0.01381875 6.0338625,0.01344375 C18.0173625,0.00481843289 30.0008625,0.00875625 41.98455,0.00481843289 C44.8388625,0.00388125 47.2977375,2.08175625 47.819175,4.69194375 C47.9127375,5.16088125 47.9824875,5.64388125 47.9838,6.12069375 C47.9958,10.8860063 47.9911125,15.6511313 47.9911125,20.4164438 L47.9911125,20.9871938 Z" id="Fill-1" fill="#006341" mask="url(#mask-2)"></path>
                </g>
                <path d="M35.9992008,39.0104816 C35.9992008,39.8865827 36.0048334,40.7626838 35.9958213,41.638785 C35.9931927,41.9048448 36.0628491,42.0436015 36.363254,42.0383441 C37.1294742,42.025013 37.8962576,42.0287682 38.6626655,42.0375931 C38.9185729,42.0405973 39.0285962,41.9497201 39.0274783,41.683848 C39.0207106,39.9160615 39.0186453,38.148275 39.0261554,36.3804884 C39.0272819,36.0894561 38.909373,35.9998933 38.6343148,36.0036486 C37.8992616,36.0137877 37.1634575,36.017543 36.4287798,35.9989545 C36.1045303,35.9908807 35.9864336,36.0986565 35.9931927,36.429119 C36.0106538,37.2892603 35.9990131,38.1499648 35.9992008,39.0104816 M37.4950293,30.0153304 C38.8545491,30.0153304 40.2140689,30.0160814 41.5735888,30.0147671 C41.7895048,30.0145793 42.0452244,30.057577 42.0236328,29.7109669 C41.9750048,28.9199224 42.0185635,28.1074728 41.8490225,27.3425273 C41.4607492,25.5908884 39.8888807,24.237682 38.1390223,24.0144321 C36.2877773,23.7782265 34.469389,24.7087788 33.560101,26.3107708 C32.9823849,27.3286328 32.9767523,28.4246042 32.9865155,29.539164 C32.9897073,29.8996685 33.0817062,30.0311025 33.4632204,30.0250941 C34.8067812,30.0033136 36.151093,30.0166447 37.4950293,30.0153304 M48,30.016457 L48,48 L27.0319276,48 C27.024042,47.8214376 27.010336,47.6547043 27.010336,47.4877832 C27.0092095,41.8565898 27.0140911,36.2252086 27,30.5938275 C26.9988831,30.1559647 27.0965147,29.9820964 27.563832,30.0087587 C28.2342981,30.0468745 28.9087071,30.0057545 29.580863,30.0228409 C29.9043615,30.0309147 30.0104419,29.9171305 30.0205806,29.5907988 C30.046115,28.7652058 30.030156,27.9253429 30.1788564,27.1187141 C30.6681408,24.4676914 32.2484582,22.6287428 34.6884968,21.5889126 C38.9523685,19.7719322 43.6420641,22.3544214 44.762011,26.6611362 C44.997641,27.5674671 44.966474,28.5498419 44.9993308,29.4991705 C45.0137878,29.9154406 45.133011,30.0388007 45.5402473,30.0247185 C46.3485242,29.9967419 47.1583031,30.016457 48,30.016457" id="Fill-4" fill="#006341"></path>
                <path d="M12,7.99597855 C12.0005027,9.08650272 11.0938808,9.99731252 10.0050292,10 C8.91919526,10.0025095 7.99983236,9.08817916 8,8.00570191 C8.00016764,6.91886591 8.91165125,6.00352972 9.99731758,6 C11.081978,5.99665631 11.9993292,6.910819 12,7.99597855" id="Fill-6" fill="#006341"></path>
                <path d="M15.977213,9.99985339 C14.8853219,9.98643472 13.991011,9.07128083 14.0000682,7.97648438 C14.0091254,6.89124875 14.9322849,5.99018447 16.0251824,6.00008075 C17.1281434,6.00997702 18.0204416,6.94425253 17.9996437,8.06756367 C17.9801875,9.12629741 17.0521639,10.0131043 15.977213,9.99985339" id="Fill-8" fill="#006341"></path>
                <path d="M21.9955944,6 C23.0929006,6.00353181 23.9983208,6.90511048 24,7.99589487 C24.0015077,9.08584059 23.0912233,9.99916075 22.0023037,10 C20.8949335,10.0008381 19.9901842,9.07862796 20.0000804,7.95966399 C20.0094734,6.89554955 20.9247899,5.99665465 21.9955944,6" id="Fill-10" fill="#006341"></path>
            </g>
        </g>
    </g>
</svg>