<svg xmlns="http://www.w3.org/2000/svg" viewBox="0 0 38.69 42"><defs><style>.cls-1{fill:none;stroke:#000;stroke-miterlimit:10;stroke-width:1.3px;}</style></defs><title>big-ic-seguridad</title><g id="Capa_2" data-name="Capa 2"><g id="Capa_1-2" data-name="Capa 1"><path d="M19.35,30.18A9.18,9.18,0,1,1,28.52,21,9.19,9.19,0,0,1,19.35,30.18Zm0-16.63A7.45,7.45,0,1,0,26.79,21,7.46,7.46,0,0,0,19.35,13.55Z"/><path d="M19.36,42a4.28,4.28,0,0,1-2.46-.78C12.1,37.83.83,27.85,0,8.32a2.57,2.57,0,0,1,.72-1.9,2.9,2.9,0,0,1,2.44-.85,26,26,0,0,0,3.15.19c3.64,0,8.54-.83,11.23-4.8a2.18,2.18,0,0,1,3.61,0c2.69,4,7.59,4.8,11.23,4.8a26,26,0,0,0,3.15-.19A2.88,2.88,0,0,1,38,6.42a2.61,2.61,0,0,1,.73,1.93c-.84,19.54-12.12,29.51-16.93,32.89A4.15,4.15,0,0,1,19.36,42ZM2.8,7.28A1.14,1.14,0,0,0,2,7.62a.88.88,0,0,0-.24.63C2.52,27,13.3,36.57,17.9,39.81a2.55,2.55,0,0,0,2.86,0C25.37,36.59,36.16,27,37,8.28a.84.84,0,0,0-.25-.66,1.13,1.13,0,0,0-1-.33,29.53,29.53,0,0,1-3.36.2c-4.06,0-9.54-1-12.66-5.56a.45.45,0,0,0-.37-.2.46.46,0,0,0-.38.2c-3.11,4.6-8.6,5.56-12.66,5.56A29.53,29.53,0,0,1,3,7.29Z"/><circle cx="5.29" cy="10.6" r="0.99"/><path d="M20.34,6.64a1,1,0,1,1-1-1A1,1,0,0,1,20.34,6.64Z"/><path d="M20.34,36.9a1,1,0,1,1-1-1A1,1,0,0,1,20.34,36.9Z"/><circle cx="33.4" cy="10.6" r="0.99"/><circle class="cls-1" cx="19.35" cy="18.73" r="2.05"/><polygon points="20.1 24.5 19.62 20.91 19.07 20.91 18.6 24.5 19.35 25.33 20.1 24.5"/><line x1="19.69" y1="21.6" x2="20.1" y2="20.85"/><line x1="18.6" y1="20.85" x2="19.01" y2="21.6"/><path class="cls-1" d="M23.07,24.51a3.73,3.73,0,1,0-7.45,0"/></g></g></svg>