<?xml version="1.0" encoding="UTF-8"?>
<svg width="48px" height="46px" viewBox="0 0 48 46" version="1.1" xmlns="http://www.w3.org/2000/svg" xmlns:xlink="http://www.w3.org/1999/xlink">
    <!-- Generator: Sketch 55.2 (78181) - https://sketchapp.com -->
    <title>HostToHost</title>
    <desc>Created with Sketch.</desc>
    <defs>
        <polygon id="path-1" points="1.77777778e-05 0 47.9731556 0 47.9731556 45.4854925 1.77777778e-05 45.4854925"></polygon>
    </defs>
    <g id="Page-1" stroke="none" stroke-width="1" fill="none" fill-rule="evenodd">
        <g id="Personas-Morales-Copy" transform="translate(-1064.000000, -273.000000)">
            <g id="HostToHost" transform="translate(1064.000000, 273.000000)">
                <mask id="mask-2" fill="white">
                    <use xlink:href="#path-1"></use>
                </mask>
                <g id="Clip-2"></g>
                <path d="M25.3299556,38.3660444 L45.8232889,38.3660444 L45.8232889,24.3550222 L25.3299556,24.3550222 L25.3299556,38.3660444 Z M36.6165333,40.5105778 L36.6165333,43.3699556 C37.0519111,43.3699556 37.4746667,43.368 37.8974222,43.3704889 C38.6577778,43.3747556 39.1016889,43.7672889 39.0988444,44.4288 C39.0958222,45.0766222 38.6343111,45.4816 37.8833778,45.4830222 C36.3278222,45.4858667 34.7722667,45.4869333 33.2167111,45.4824889 C32.5144889,45.4803556 32.0380444,45.0497778 32.032,44.4311111 C32.0261333,43.8085333 32.4988444,43.3779556 33.1998222,43.3706667 C33.4961778,43.3674667 33.7925333,43.3715556 34.0887111,43.3681778 C34.2037333,43.3669333 34.3184,43.3543111 34.4592,43.3452444 L34.4592,40.5105778 L33.9482667,40.5105778 C30.7777778,40.5105778 27.6074667,40.5105778 24.4371556,40.5107556 C23.5720889,40.5107556 23.1859556,40.1331556 23.1856,39.2752 C23.1838222,34.0604444 23.1827556,28.8456889 23.1838222,23.6309333 C23.184,22.5438222 23.5045333,22.2200889 24.5783111,22.2200889 C31.9560889,22.2192 39.3336889,22.2196968 46.7114667,22.2213333 C47.5658667,22.2215111 47.9717333,22.6209778 47.9720889,23.4647111 C47.9735111,28.7386667 47.9736889,34.0128 47.9719111,39.2869333 C47.9715556,40.1082667 47.5649778,40.5095111 46.7406222,40.5098667 C43.5553778,40.5112889 40.3703111,40.5105778 37.1850667,40.5105778 L36.6165333,40.5105778 Z" id="Fill-1" fill="#000000" mask="url(#mask-2)"></path>
                <path d="M22.6343289,16.2442489 L22.6343289,2.15571556 L2.11415111,2.15571556 L2.11415111,2.68336 C2.11486222,6.99340444 2.11557333,11.3034489 2.11592889,15.6134933 C2.11610667,16.2440711 2.11575111,16.2442489 2.72659556,16.2442489 C6.26544,16.2442489 9.80410667,16.2442489 13.3427733,16.2442489 L22.0961956,16.2442489 L22.6343289,16.2442489 Z M13.5034844,18.3566044 L13.5034844,21.2031822 C13.9264178,21.2031822 14.3354844,21.1967822 14.7441956,21.2046044 C15.4743289,21.2184711 15.92624,21.61296 15.9401067,22.2367822 C15.9539733,22.86896 15.4785956,23.3045156 14.7367289,23.3078933 C13.1527289,23.31536 11.5683733,23.3167822 9.98455111,23.3059378 C9.43397333,23.3020267 9.06206222,23.0328711 8.91841778,22.59536 C8.78046222,22.1758044 8.89761778,21.67536 9.26650667,21.4438933 C9.48997333,21.3034489 9.78330667,21.2371378 10.0519289,21.2136711 C10.4741511,21.1766933 10.9020622,21.2038933 11.3452622,21.2038933 L11.3452622,18.3566044 C11.14544,18.3566044 10.9721067,18.3566044 10.7985956,18.3566044 C7.64392889,18.35696 4.48926222,18.3573156 1.33459556,18.3574933 C0.399484444,18.3576711 0.000551111111,17.9676267 0.000551111111,17.0467378 C1.77777778e-05,11.8035378 1.77777778e-05,6.56051556 0.000551111111,1.31749333 C0.000551111111,0.383626667 0.38544,0.000337777778 1.32321778,0.000337777778 C8.71379556,-6.22222222e-05 16.1043733,-6.22222222e-05 23.4949511,0.000337777778 C24.4192178,0.000515555556 24.7872178,0.366382222 24.7873956,1.29047111 C24.78864,6.56318222 24.78864,11.8357156 24.7872178,17.1082489 C24.78704,17.9662044 24.4012622,18.3542933 23.5392178,18.35536 C20.3993067,18.3583822 17.2593956,18.3566044 14.1194844,18.3566044 L13.5034844,18.3566044 Z" id="Fill-3" fill="#000000" mask="url(#mask-2)"></path>
                <path d="M28.3967467,13.1436444 C28.9531911,13.6979556 29.4966578,14.2389333 30.0282133,14.7681778 C29.8035022,14.9930667 29.5931911,15.2035556 29.3963911,15.4005333 C28.4934578,14.4961778 27.5704356,13.5715556 26.6575467,12.6572444 C27.5560356,11.7585778 28.4778133,10.8368 29.3905244,9.92408889 C29.5875022,10.1212444 29.7981689,10.3319111 30.0159467,10.5498667 C29.4854578,11.0757333 28.9386133,11.6177778 28.3915911,12.16 C28.3992356,12.1728 28.4067022,12.1852444 28.4141689,12.1978667 L37.7402133,12.1978667 L37.7402133,19.7998222 L36.8283911,19.7998222 L36.8283911,13.1436444 L28.3967467,13.1436444 Z" id="Fill-4" fill="#000000" mask="url(#mask-2)"></path>
                <path d="M18.6851911,33.5579556 C18.1285689,33.0038222 17.58528,32.4626667 17.0537244,31.9334222 C17.2782578,31.7087111 17.4887467,31.4980444 17.6853689,31.3012444 C18.5883022,32.2056 19.5115022,33.1302222 20.4243911,34.0443556 C19.5259022,34.9430222 18.6039467,35.8649778 17.6912356,36.7775111 C17.4942578,36.5803556 17.2835911,36.3696889 17.0658133,36.1519111 C17.5963022,35.6260444 18.1433244,35.0838222 18.6901689,34.5416 C18.6827022,34.5289778 18.6752356,34.5165333 18.6675911,34.5037333 L9.34172444,34.5037333 L9.34172444,26.9019556 L10.2535467,26.9019556 L10.2535467,33.5579556 L18.6851911,33.5579556 Z" id="Fill-5" fill="#000000" mask="url(#mask-2)"></path>
            </g>
        </g>
    </g>
</svg>