<?xml version="1.0" encoding="UTF-8"?>
<svg width="45px" height="40px" viewBox="0 0 45 40" version="1.1" xmlns="http://www.w3.org/2000/svg" xmlns:xlink="http://www.w3.org/1999/xlink">
    <!-- Generator: Sketch 55.2 (78181) - https://sketchapp.com -->
    <title>VisorProductos</title>
    <desc>Created with Sketch.</desc>
    <defs>
        <polygon id="path-1" points="0.0926992744 0.0793240799 43.0556471 0.0793240799 43.0556471 28.0587 0.0926992744 28.0587"></polygon>
    </defs>
    <g id="Page-1" stroke="none" stroke-width="1" fill="none" fill-rule="evenodd">
        <g id="Personas-Morales-Copy" transform="translate(-514.000000, -453.000000)">
            <g id="VisorProductos" transform="translate(514.000000, 453.000000)">
                <g id="Group-3" transform="translate(1.941176, 11.011588)">
                    <mask id="mask-2" fill="white">
                        <use xlink:href="#path-1"></use>
                    </mask>
                    <g id="Clip-2"></g>
                    <path d="M38.1239647,26.5249941 C38.2381412,25.8205235 38.3526706,25.1271706 38.4627882,24.4331118 C39.0402,20.7927 39.6176118,17.1521118 40.1929059,13.5111706 C40.6328471,10.7261118 41.0796706,7.94193529 41.5037294,5.15440588 C41.7364941,3.62458235 40.8345529,2.17734706 39.3869647,1.76175882 C38.9704941,1.64228824 38.5178471,1.60646471 38.0816118,1.60558235 C33.4210235,1.59481765 28.7602588,1.59887647 24.0996706,1.59887647 C19.3656706,1.59887647 14.6314941,1.59605294 9.89731765,1.60011176 C7.50472941,1.60222941 5.44284706,3.25611176 5.04049412,5.5287 C4.74367059,7.20587647 4.50031765,8.89258235 4.23384706,10.5752294 C3.54014118,14.9555824 2.84661176,19.3361118 2.15396471,23.7166412 C2.00784706,24.6409941 1.86578824,25.5660529 1.71649412,26.5249941 L38.1239647,26.5249941 Z M19.7854941,28.0583471 C13.5664941,28.0581706 7.34767059,28.0587 1.12884706,28.0578176 C0.221258824,28.0576412 -0.0115058824,27.7585235 0.131788235,26.8572882 C0.944788235,21.7377 1.75002353,16.6167 2.55861176,11.4962294 C2.88402353,9.43664118 3.19567059,7.37440588 3.54190588,5.31817059 C4.01961176,2.48034706 6.67884706,0.0672882353 9.89890588,0.0803470588 C17.7790235,0.112817647 25.6593176,0.0881117647 33.5394353,0.0925235294 C35.3325529,0.0934058824 37.1307882,0.0364058824 38.9172,0.1527 C41.5076118,0.321229412 43.3947882,2.73005294 43.0044353,5.29646471 C42.3486706,9.60834706 41.6500235,13.9138765 40.9688471,18.2218765 C40.4962588,21.2098765 40.0247294,24.1980529 39.5479059,27.1853471 C39.4330235,27.9053471 39.2362588,28.0587 38.4862588,28.0587 C32.2526118,28.0587 26.0189647,28.0587 19.7854941,28.0583471 L19.7854941,28.0583471 Z" id="Fill-1" fill="#000000" mask="url(#mask-2)"></path>
                </g>
                <g id="Group-4" transform="translate(12.000000, 23.000000)" stroke="#000000">
                    <g id="Group-7">
                        <g id="Group-9">
                            <rect id="Rectangle" x="0.5" y="0.5" width="5" height="5"></rect>
                            <rect id="Rectangle" x="9.5" y="0.5" width="5" height="5"></rect>
                            <rect id="Rectangle" x="18.5" y="0.5" width="5" height="5"></rect>
                        </g>
                    </g>
                </g>
                <path d="M1.50622941,18.7698706 C1.52917059,18.7728706 1.55211176,18.7756941 1.57505294,18.7785176 C1.75381765,17.6678118 1.92975882,16.5565765 2.11240588,15.4465765 C2.30528824,14.2732235 2.4447,13.0869882 2.71364118,11.9311059 C3.24817059,9.63257647 5.64587647,7.19163529 9.08458235,7.21069412 C18.2735824,7.26134118 27.4629353,7.22922353 36.6521118,7.23010588 L37.3114059,7.23010588 C37.2969353,7.12387059 37.3031118,7.07569412 37.2837,7.04234118 C37.2244059,6.94122353 37.1601706,6.84222353 37.0894059,6.74851765 C36.2079353,5.57957647 35.0400529,4.97357647 33.5702294,4.97269412 C30.4678765,4.97075294 27.3657,4.97198824 24.2633471,4.97163529 C22.9306412,4.97163529 22.9306412,4.97145882 22.6631118,3.67404706 C22.3267588,2.04381176 21.6932294,1.51810588 20.0232882,1.51687059 C14.7154059,1.51298824 9.4077,1.51351765 4.09999412,1.51704706 C2.93705294,1.51792941 2.03334706,2.16222353 1.67987647,3.27116471 C1.56605294,3.62834118 1.51734706,4.01975294 1.51381765,4.39634118 C1.49705294,6.16051765 1.50622941,7.92487059 1.50622941,9.68922353 L1.50622941,18.7698706 Z M23.3621118,8.73822353 C18.6572294,8.73822353 13.9505824,8.81551765 9.24834706,8.70751765 C6.6567,8.64804706 4.34440588,10.4845765 3.95122941,13.2666353 C3.24658235,18.2536941 2.39899412,23.2204588 1.61122941,28.1956941 C1.57434706,28.4277529 1.54911176,28.6622824 1.50005294,28.8916941 C1.40811176,29.3226353 1.09011176,29.5601647 0.679111765,29.5211647 C0.302347059,29.4853412 0.0358764706,29.1929294 0.00322941176,28.7761059 C-0.00241764706,28.7030471 0.00111176471,28.6292824 0.00111176471,28.5556941 C0.00111176471,20.4544588 -0.00153529412,12.3534 0.00322941176,4.25216471 C0.00446470588,2.35369412 1.13158235,0.726811765 2.82534706,0.198282353 C3.23846471,0.0694588235 3.69022941,0.0110470588 4.12434706,0.00998823529 C9.38793529,-0.00271764706 14.6513471,-0.00342352941 19.9149353,0.00857647059 C20.4540529,0.00963529412 21.0090529,0.0500470588 21.5287588,0.182047059 C22.9733471,0.548929412 23.6958176,1.61781176 24.0302294,2.98316471 C24.1271118,3.37828235 24.2843471,3.47728235 24.6778765,3.47481176 C27.5887588,3.45610588 30.4998176,3.46034118 33.4108765,3.46616471 C36.2019353,3.47181176 38.3914059,5.06357647 39.2562882,7.70198824 C39.4465235,8.28257647 39.1428176,8.71334118 38.4907588,8.72869412 C37.5798176,8.75004706 36.6678176,8.73787059 35.7561706,8.73804706 C31.6248176,8.73857647 27.4934647,8.73822353 23.3621118,8.73822353 L23.3621118,8.73822353 Z" id="Fill-4" fill="#000000"></path>
            </g>
        </g>
    </g>
</svg>