<svg xmlns="http://www.w3.org/2000/svg" viewBox="0 0 42.26 43"><title>big-ic-Usuarios</title><g id="Capa_2" data-name="Capa 2"><g id="Capa_1-2" data-name="Capa 1"><path d="M40.78,33.92l-.5.08a2.94,2.94,0,0,0-2,4.56l.27.4-.57.57-.13-.1A3,3,0,0,0,35,39.08a2.91,2.91,0,0,0-1.78,2.28l0,.16h-.8l-.09-.47a2.95,2.95,0,0,0-4.64-1.82l-.4.3L26.68,39l.27-.4A2.94,2.94,0,0,0,25,34l-.49-.08v-.8l.46-.09a2.94,2.94,0,0,0,1.82-4.63L26.46,28l.57-.57.66.45a2.91,2.91,0,0,0,2.77.28A3,3,0,0,0,32.23,26l.15-.78h.8l.08.49a2.94,2.94,0,0,0,4.56,2l.4-.27.56.57-.29.41A2.94,2.94,0,0,0,40.31,33l.47.09v.8Zm.88-2.14-1.07-.21a1.41,1.41,0,0,1-1.09-.9,1.44,1.44,0,0,1,.18-1.4l.68-.91a.76.76,0,0,0-.08-1l-1.45-1.45a.74.74,0,0,0-.94-.09l-.9.61a1.47,1.47,0,0,1-2.27-1l-.17-1.13a.74.74,0,0,0-.73-.63H31.76a.74.74,0,0,0-.72.61l-.27,1.38a1.46,1.46,0,0,1-2.25.93l-1.17-.79a.76.76,0,0,0-.94.09L25,27.39a.76.76,0,0,0-.08,1l.68.91a1.44,1.44,0,0,1,.18,1.4,1.41,1.41,0,0,1-1.09.9l-1.07.21a.74.74,0,0,0-.6.73v2.05a.73.73,0,0,0,.63.73l1.12.18a1.46,1.46,0,0,1,1,2.26l-.61.9a.74.74,0,0,0,.09.94L26.65,41a.76.76,0,0,0,1,.08l.91-.67a1.44,1.44,0,0,1,1.4-.18,1.42,1.42,0,0,1,.9,1.08L31,42.4a.73.73,0,0,0,.72.6h2.06a.74.74,0,0,0,.73-.63l.12-.79A1.46,1.46,0,0,1,37,40.63l.65.47a.73.73,0,0,0,1-.08L40,39.57a.74.74,0,0,0,.09-.94l-.61-.9a1.42,1.42,0,0,1-.13-1.41,1.45,1.45,0,0,1,1.12-.86l1.12-.17a.73.73,0,0,0,.63-.73V32.51a.74.74,0,0,0-.6-.73Z"/><path d="M32.62,35.59a2.23,2.23,0,1,1,2.22-2.23,2.22,2.22,0,0,1-2.22,2.23Zm0-5.93a3.71,3.71,0,1,0,3.71,3.7,3.71,3.71,0,0,0-3.71-3.7Z"/><path d="M20.39,39.29c-.47,0-.94,0-1.41,0l-.24,0c-.47,0-.94-.1-1.4-.18h-.06a18,18,0,0,1-2.89-.72l-.08,0c-.47-.16-.93-.33-1.38-.53h0c-.43-.18-.85-.39-1.27-.61l-.16-.08c-.38-.2-.75-.42-1.12-.65l-.32-.2c-.33-.22-.67-.45-1-.7L9,35.44l.07,0,5.86-3.2a3.14,3.14,0,0,0,1.64-2.75V26.78l-.17-.21A12.39,12.39,0,0,1,14.13,22l-.06-.29-.26-.17a1.23,1.23,0,0,1-.57-1V17.84a1.2,1.2,0,0,1,.42-.9l.24-.22V12.49a4.46,4.46,0,0,1,1-3.23C16,8,17.84,7.41,20.39,7.41s4.37.62,5.44,1.83a4.54,4.54,0,0,1,1.05,3.25v4.23l.25.22a1.19,1.19,0,0,1,.41.9v2.63a1.24,1.24,0,0,1-.87,1.17.75.75,0,0,0-.49.93.74.74,0,0,0,.92.49A2.72,2.72,0,0,0,29,20.47V17.84a2.7,2.7,0,0,0-.66-1.75V12.63A6,6,0,0,0,27,8.28c-1.36-1.56-3.58-2.35-6.57-2.35s-5.21.79-6.58,2.35a6,6,0,0,0-1.39,4.35v3.46a2.7,2.7,0,0,0-.66,1.75v2.63a2.7,2.7,0,0,0,1,2.09,13.75,13.75,0,0,0,2.3,4.74v2.15a1.66,1.66,0,0,1-.86,1.45L8.32,34.09a5.74,5.74,0,0,0-.55.36A18.9,18.9,0,1,1,39.29,20.39a.74.74,0,0,0,.74.74.75.75,0,0,0,.75-.74,20.39,20.39,0,1,0-34.16,15h0l.66.56.13.1c.35.29.72.57,1.09.84l.36.26c.4.27.8.53,1.22.77l.27.16c.45.26.92.5,1.39.73l.11,0a20.1,20.1,0,0,0,4.93,1.56l.14,0c.53.09,1.08.17,1.63.22h.2c.54,0,1.1.08,1.66.08a.75.75,0,0,0,.74-.75.74.74,0,0,0-.74-.74Z"/></g></g></svg>