<svg xmlns="http://www.w3.org/2000/svg" viewBox="0 0 42 36.48"><title>big-ic-roles</title><g id="Capa_2" data-name="Capa 2"><g id="Capa_1-2" data-name="Capa 1"><path d="M30.15,18.66H28.56A5.61,5.61,0,0,0,23,13.05H19a5.61,5.61,0,0,0-5.6,5.61H11.85A7.2,7.2,0,0,1,19,11.47H23A7.2,7.2,0,0,1,30.15,18.66Z"/><path d="M21,13.06a4.9,4.9,0,0,1-1.65-.29l-.87-.32A5.57,5.57,0,0,1,14.8,7.22v-1a6.2,6.2,0,0,1,12.4,0v1a5.57,5.57,0,0,1-3.68,5.23l-.87.32A4.9,4.9,0,0,1,21,13.06ZM21,1.58A4.63,4.63,0,0,0,16.38,6.2v1A4,4,0,0,0,19,11l.88.32a3.26,3.26,0,0,0,2.22,0L23,11a4,4,0,0,0,2.63-3.74v-1A4.63,4.63,0,0,0,21,1.58Z"/><path d="M36,33H31.74V31.41H36A4.46,4.46,0,0,0,40.42,27V21.83A4.4,4.4,0,0,0,36,17.44H34.83V15.85H36a6,6,0,0,1,6,6V27A6,6,0,0,1,36,33Z"/><path d="M34.83,17.44a3.87,3.87,0,0,1-1.34-.24L32.81,17a4.52,4.52,0,0,1-3-4.25v-.79a5,5,0,1,1,10,0v.79a4.52,4.52,0,0,1-3,4.25l-.68.24A3.88,3.88,0,0,1,34.83,17.44Zm0-9a3.44,3.44,0,0,0-3.43,3.43v.79a3,3,0,0,0,1.94,2.76l.68.24a2.37,2.37,0,0,0,1.62,0l.68-.24a3,3,0,0,0,1.94-2.76v-.79A3.44,3.44,0,0,0,34.83,8.49Z"/><path d="M10.26,33H6a6,6,0,0,1-6-6V21.83a6,6,0,0,1,6-6H7.17v1.59H6a4.4,4.4,0,0,0-4.4,4.39V27A4.46,4.46,0,0,0,6,31.41h4.22Z"/><path d="M7.17,17.44a3.88,3.88,0,0,1-1.35-.24L5.14,17a4.52,4.52,0,0,1-3-4.25v-.79a5,5,0,1,1,10,0v.79a4.52,4.52,0,0,1-3,4.25l-.68.24A3.87,3.87,0,0,1,7.17,17.44Zm0-9a3.44,3.44,0,0,0-3.43,3.43v.79a3,3,0,0,0,1.93,2.76l.69.24a2.37,2.37,0,0,0,1.62,0l.68-.24a3,3,0,0,0,1.94-2.76v-.79A3.44,3.44,0,0,0,7.17,8.49Z"/><path d="M29,27.53l-.49.07a2.9,2.9,0,0,0-2,4.5l.26.39-.56.56L26.16,33a2.89,2.89,0,0,0-4.58,1.89l0,.16h-.79l-.09-.46a2.9,2.9,0,0,0-4.56-1.79l-.4.29-.56-.56.26-.39a2.9,2.9,0,0,0-2-4.5L13,27.53v-.79l.46-.09a2.9,2.9,0,0,0,1.8-4.57l-.3-.4.57-.56.65.44a2.9,2.9,0,0,0,4.47-1.85l.15-.77h.79l.08.48a2.91,2.91,0,0,0,4.49,2l.39-.27.57.56-.3.4a2.9,2.9,0,0,0,1.8,4.57l.46.09v.79Zm.87-2.12-1.06-.2a1.42,1.42,0,0,1-1.07-.89A1.4,1.4,0,0,1,28,23l.66-.91a.72.72,0,0,0-.07-.95l-1.43-1.43a.74.74,0,0,0-.93-.09l-.89.61a1.39,1.39,0,0,1-1.38.12,1.42,1.42,0,0,1-.85-1.1l-.17-1.11a.72.72,0,0,0-.72-.61h-2a.72.72,0,0,0-.72.59l-.26,1.36a1.43,1.43,0,0,1-.87,1.06A1.41,1.41,0,0,1,17,20.35l-1.14-.78a.74.74,0,0,0-.93.09l-1.43,1.43a.73.73,0,0,0-.08.95L14,23a1.4,1.4,0,0,1,.18,1.37,1.42,1.42,0,0,1-1.07.89l-1.06.2a.74.74,0,0,0-.59.72v2a.73.73,0,0,0,.62.72l1.11.17a1.4,1.4,0,0,1,1.1.85,1.42,1.42,0,0,1-.13,1.38l-.6.89a.73.73,0,0,0,.09.93l1.43,1.43a.74.74,0,0,0,1,.07l.9-.66a1.44,1.44,0,0,1,2.27.89l.2,1.05a.73.73,0,0,0,.72.6h2a.73.73,0,0,0,.72-.62l.12-.78a1.45,1.45,0,0,1,2.28-.95l.63.47a.74.74,0,0,0,.95-.07l1.43-1.43a.73.73,0,0,0,.09-.93l-.6-.89a1.42,1.42,0,0,1-.13-1.38,1.38,1.38,0,0,1,1.1-.85l1.11-.17a.73.73,0,0,0,.62-.72v-2a.74.74,0,0,0-.59-.72Z"/><path d="M21,29.17A2.2,2.2,0,1,1,23.19,27,2.2,2.2,0,0,1,21,29.17Zm0-5.85A3.66,3.66,0,1,0,24.65,27,3.66,3.66,0,0,0,21,23.32Z"/></g></g></svg>