<?xml version="1.0" encoding="UTF-8"?>
<svg width="33px" height="46px" viewBox="0 0 33 46" version="1.1" xmlns="http://www.w3.org/2000/svg" xmlns:xlink="http://www.w3.org/1999/xlink">
    <!-- Generator: Sketch 55.2 (78181) - https://sketchapp.com -->
    <title>CuentaClave</title>
    <desc>Created with Sketch.</desc>
    <defs>
        <polygon id="path-1" points="3.20111751e-05 0.113050665 32.8117149 0.113050665 32.8117149 27.9074074 3.20111751e-05 27.9074074"></polygon>
        <polygon id="path-3" points="0.105792828 0.00998148148 15.7895658 0.00998148148 15.7895658 15.6951878 0.105792828 15.6951878"></polygon>
    </defs>
    <g id="Page-1" stroke="none" stroke-width="1" fill="none" fill-rule="evenodd">
        <g id="Personas-Morales-Copy" transform="translate(-519.000000, -629.000000)">
            <g id="CuentaClave" transform="translate(519.000000, 629.000000)">
                <g id="Group-3" transform="translate(0.000000, 17.915944)">
                    <mask id="mask-2" fill="white">
                        <use xlink:href="#path-1"></use>
                    </mask>
                    <g id="Clip-2"></g>
                    <path d="M19.9663648,24.3291278 C19.9663648,24.1525167 19.9651426,24.0341648 19.9665685,23.915813 C19.9751241,23.1476463 20.1981796,22.9286648 20.9744944,22.9254056 C21.3307722,22.9239796 21.6884759,22.9435352 22.0431241,22.9184796 C22.6067722,22.87835 22.9047907,23.1315537 23.0932167,23.6591463 C23.81555,25.6819241 25.8641981,26.8132944 27.9698833,26.3869426 C29.9759574,25.9805537 31.3992352,24.2032389 31.3699019,22.1411463 C31.3399574,20.0399426 29.8409019,18.3510352 27.6794019,17.9829426 C25.7831241,17.6600722 23.802513,18.8368685 23.1052352,20.7007574 C22.8328833,21.4285907 22.7298093,21.5011093 21.9526796,21.5011093 C19.0006056,21.5017204 16.0483278,21.5004981 13.09605,21.5021278 C12.47455,21.5023315 12.119087,21.7726463 12.1313093,22.2246648 C12.1431241,22.6573315 12.4955315,22.9205167 13.0746611,22.9245907 C13.4140315,22.9270352 13.7534019,22.9194981 14.0927722,22.9237759 C14.7059204,22.9315167 14.9609574,23.1800352 14.9768463,23.7811648 C14.9815315,23.9608315 14.9774574,24.1411093 14.9774574,24.3128315 L15.688587,24.3128315 C15.688587,24.1567944 15.6873648,24.03885 15.6887907,23.9209056 C15.69755,23.1482574 15.9185685,22.9280537 16.6914204,22.9256093 C17.2514019,22.9239796 17.8113833,22.920313 18.3711611,22.9266278 C18.9814574,22.9337574 19.2387352,23.1877759 19.2544204,23.7862574 C19.2593093,23.9657204 19.2552352,24.1455907 19.2552352,24.3291278 L19.9663648,24.3291278 Z M21.3747722,20.07335 C21.382513,19.9152759 21.3914759,19.8164796 21.3914759,19.7176833 C21.3912722,16.9169611 21.4000315,14.1162389 21.3808833,11.3155167 C21.377013,10.7596093 21.2991981,10.1982019 21.1987722,9.64962778 C20.2933093,4.70146111 15.6517167,1.13236852 10.6962167,1.5605537 C5.4622537,2.01277593 1.46843889,6.23453519 1.43930926,11.3709241 C1.42056852,14.6637944 1.43197593,17.9568685 1.43217963,21.2497389 C1.43238333,21.9749241 1.67519815,22.2112204 2.41851296,22.2116278 C5.03243889,22.2132574 7.64656852,22.2125539 10.2604944,22.2114241 C10.3943278,22.2114241 10.5281611,22.1989981 10.6566981,22.1926833 C10.982013,20.62335 11.6668648,20.07335 13.2759204,20.07335 L21.3747722,20.07335 Z M21.4240685,24.4171278 C21.3175315,25.7817389 21.3175315,25.7819426 19.8948648,25.7817389 C19.5383833,25.7817389 19.1819019,25.7821463 18.8256241,25.7792944 C18.0539944,25.7729796 17.8368463,25.5546093 17.8276796,24.7774796 C17.8262537,24.6599426 17.8274759,24.5426093 17.8274759,24.3894241 L17.1739944,24.3894241 C17.1587167,24.4161093 17.1297907,24.4436093 17.1283648,24.4721278 C17.0637907,25.7251093 17.0075685,25.7790907 15.7613093,25.7790907 C15.371013,25.7790907 14.9807167,25.7799056 14.5904204,25.778887 C13.7754019,25.7770537 13.5606981,25.5690722 13.5472537,24.7691278 C13.5452167,24.652813 13.5468463,24.5364981 13.5468463,24.3554056 C13.3019944,24.3554056 13.0807722,24.3896278 12.8748278,24.3480722 C12.4977722,24.271887 12.0418833,24.2531463 11.7772722,24.0262204 C11.3052907,23.62085 10.8013278,23.6377574 10.2621241,23.6385722 C7.63149444,23.6424426 5.00086481,23.6420352 2.37023519,23.6395907 C0.870772222,23.6381648 0.00156851852,22.7673315 0.00116111111,21.2672574 C3.20111751e-05,18.0597389 -0.00209814815,14.8520167 0.00442037037,11.6442944 C0.0180685185,5.03227593 5.24021667,-0.05115 11.8402167,0.117109259 C17.3671056,0.257868519 22.1932537,4.66031296 22.701087,10.165813 C22.8921611,12.2370722 22.7913278,14.3350167 22.8190315,16.4211463 C22.8271796,17.04835 22.8202537,17.6757574 22.8202537,18.4239611 C23.0253833,18.2339056 23.1622722,18.1053685 23.3011981,17.9788685 C25.0465315,16.38835 27.7238093,16.049387 29.7508648,17.161813 C31.9127722,18.3487944 33.1244019,20.7060537 32.7416426,22.9816278 C32.3108093,25.5436093 30.5212722,27.4089241 28.1002537,27.8197944 C25.5627167,28.2502204 23.225013,27.0754611 21.9858833,24.7615907 C21.8876981,24.5780537 21.707013,24.4387204 21.5646241,24.2790167 C21.5177722,24.32485 21.4709204,24.370887 21.4240685,24.4171278 L21.4240685,24.4171278 Z" id="Fill-1" fill="#000000" mask="url(#mask-2)"></path>
                </g>
                <g id="Group-6" transform="translate(3.462963, 0.193722)">
                    <mask id="mask-4" fill="white">
                        <use xlink:href="#path-3"></use>
                    </mask>
                    <g id="Clip-5"></g>
                    <path d="M1.53375482,7.81101852 C1.52704444,11.3599444 4.38235926,14.2505 7.90908148,14.2646071 C11.4512852,14.2786111 14.3469333,11.4184074 14.3614506,7.89127778 C14.3758593,4.32992593 11.5007852,1.44181481 7.93637778,1.43712441 C4.43695185,1.43264815 1.54048889,4.31627778 1.53375482,7.81101852 M15.7895658,7.85522222 C15.7932296,12.1747593 12.2807667,15.6851852 7.94472963,15.6951878 C3.6583963,15.7051481 0.11272963,12.1788333 0.105792828,7.89881481 C0.0986740741,3.55564815 3.5978963,0.014462963 7.90093333,0.00997717619 C12.2718037,0.0055 15.7858963,3.50024074 15.7895658,7.85522222" id="Fill-4" fill="#000000" mask="url(#mask-4)"></path>
                </g>
                <path d="M29.9450556,40.1401815 C29.9362963,40.5170333 29.5950926,40.8441815 29.2204815,40.8354222 C28.8434259,40.826663 28.5166852,40.4850519 28.5266667,40.1104407 C28.5368519,39.730737 28.8735741,39.4084778 29.251037,39.417237 C29.6297222,39.4257926 29.9538148,39.7635333 29.9450556,40.1401815" id="Fill-7" fill="#000000"></path>
            </g>
        </g>
    </g>
</svg>