<?xml version="1.0" encoding="UTF-8"?>
<svg width="42px" height="42px" viewBox="0 0 42 42" version="1.1" xmlns="http://www.w3.org/2000/svg" xmlns:xlink="http://www.w3.org/1999/xlink">
    <!-- Generator: Sketch 55.2 (78181) - https://sketchapp.com -->
    <title>Autorizaciones</title>
    <desc>Created with Sketch.</desc>
    <g id="Page-1" stroke="none" stroke-width="1" fill="none" fill-rule="evenodd">
        <g id="Personas-Morales-Copy" transform="translate(-330.000000, -275.000000)" fill="#000000" fill-rule="nonzero">
            <g id="Autorizaciones" transform="translate(330.000000, 275.000000)">
                <path d="M35.8492148,6.15070313 C31.8828398,2.18441016 26.6092969,0 21,0 C15.3906211,0 10.1169961,2.18441016 6.15070313,6.15070313 C2.18432812,10.1170781 0,15.3907031 0,21 C0,26.6092969 2.18432812,31.8828398 6.15070313,35.8492148 C10.1170781,39.8155898 15.3906211,42 21,42 C26.6092969,42 31.8828398,39.8155898 35.8492148,35.8492148 C39.8155898,31.8828398 42,26.6092969 42,21 C42,15.3907031 39.8155898,10.1171602 35.8492148,6.15070313 Z M21,39.5390625 C10.7775117,39.5390625 2.4609375,31.2224883 2.4609375,21 C2.4609375,10.7775117 10.7775117,2.4609375 21,2.4609375 C31.2224883,2.4609375 39.5390625,10.7775117 39.5390625,21 C39.5390625,31.2224883 31.2224883,39.5390625 21,39.5390625 Z" id="Shape"></path>
                <path d="M31.032832,14.2618711 C30.552375,13.7814961 29.7732422,13.7814961 29.2927852,14.2619531 L18.4270078,25.1277305 L12.7072148,19.4079375 C12.2267578,18.9274805 11.447625,18.9274805 10.9670859,19.4079375 C10.4865469,19.8883945 10.4865469,20.6675273 10.9670859,21.1480664 L17.5569023,27.7378828 C17.7971719,27.9781523 18.1120898,28.0982461 18.4269258,28.0982461 C18.7417617,28.0982461 19.0567617,27.9780703 19.2969492,27.7378828 L31.032832,16.002 C31.5133711,15.521543 31.5133711,14.7424102 31.032832,14.2618711 Z" id="Path"></path>
            </g>
        </g>
    </g>
</svg>