<?xml version="1.0" encoding="UTF-8"?>
<svg width="37px" height="50px" viewBox="0 0 37 50" version="1.1" xmlns="http://www.w3.org/2000/svg" xmlns:xlink="http://www.w3.org/1999/xlink">
    <!-- Generator: Sketch 59 (86127) - https://sketch.com -->
    <title>ConfiguracionBloqueo</title>
    <desc>Created with Sketch.</desc>
    <defs>
        <polygon id="path-1" points="0 0.217777778 36.5104146 0.217777778 36.5104146 50 0 50"></polygon>
    </defs>
    <g id="Portal-de-personas-morales" stroke="none" stroke-width="1" fill="none" fill-rule="evenodd">
        <g id="DomiciliacionesMenu" transform="translate(-702.000000, -276.000000)">
            <g id="ConfiguracionBloqueo" transform="translate(702.000000, 276.000000)">
                <g id="Group-3">
                    <mask id="mask-2" fill="white">
                        <use xlink:href="#path-1"></use>
                    </mask>
                    <g id="Clip-2"></g>
                    <path d="M33.4341778,7.67262222 C31.9552889,6.18684444 30.4944,4.71973333 29.0361778,3.25484444 C29.0361778,4.43617778 29.0212889,5.65484444 29.0439556,6.87262222 C29.0526222,7.33862222 29.3457333,7.65395556 29.8152889,7.66395556 C31.0324,7.68973333 32.2506222,7.67262222 33.4341778,7.67262222 M27.3670667,1.91795556 C27.1677333,1.90373333 27.0586222,1.88951111 26.9495111,1.88951111 C18.8575111,1.88837114 10.7655111,1.88728889 2.67373333,1.8904 C1.95195556,1.89062222 1.6664,2.17773333 1.66284444,2.90528889 C1.65551111,4.44217778 1.66395556,5.97906667 1.66373333,7.51617778 C1.66262222,20.7370667 1.66084444,33.9581778 1.66062222,47.1792889 C1.66062222,48.0828444 1.91528889,48.3310667 2.81728889,48.3310667 C13.0386222,48.3317333 23.2599556,48.3317333 33.4812889,48.3317333 C34.6755111,48.3317333 34.8450667,48.1588444 34.8452889,46.9404 C34.8455111,39.5152889 34.8452889,32.0899556 34.8452889,24.6646222 C34.8452889,19.7946222 34.8379556,14.9248444 34.8555349,10.0548444 C34.8572889,9.52306667 34.7606222,9.30017778 34.1606222,9.32951111 C33.0521778,9.38351111 31.9392889,9.34284444 30.8281778,9.34151111 C30.4948444,9.34106667 30.1612889,9.3484 29.8284,9.33728889 C28.4308444,9.29084444 27.3839556,8.24062222 27.3706222,6.84151111 C27.3552889,5.21617778 27.3670667,3.59084444 27.3670667,1.91795556 M0.0004,25.0830667 C0.0004,17.6957333 -0.00115555556,10.3086222 0.00195555556,2.92128889 C0.0024,1.51995556 0.721955556,0.565955556 1.98506667,0.282622222 C2.21662222,0.230622222 2.46195556,0.222622222 2.70106667,0.2224 C10.7915111,0.219511111 18.8824,0.221733333 26.9730667,0.217732921 C28.0281778,0.217732921 28.9161778,0.575955556 29.6630667,1.32706667 C31.5950667,3.26995556 33.5406222,5.19951111 35.4759556,7.13884444 C36.2084,7.8724 36.5128444,8.76506667 36.5104146,9.80217778 C36.4988444,14.6899556 36.5097333,19.5777333 36.5095111,24.4655111 C36.5092889,32.0008444 36.5068444,39.5361778 36.5044,47.0715111 C36.5037333,49.0566222 35.5628444,50.0001015 33.5852889,50.0001015 C23.3468444,50.0001015 13.1084,50.0001015 2.86995556,50.0001015 C0.965511111,50.0001015 0.00106666667,49.0379556 0.000622222222,47.1332889 C-0.000488888889,39.7832889 -1.70312629e-06,32.4330667 0.0004,25.0830667" id="Fill-1" fill="#006341" mask="url(#mask-2)"></path>
                </g>
                <path d="M14.9651111,24.2384444 L21.5373333,24.2384444 L21.5373333,22.6568889 L14.9651111,22.6568889 L14.9651111,24.2384444 Z M21.546,20.9155556 C21.7013333,19.4024444 21.3097778,18.1502222 20.0091111,17.3348889 C18.8602222,16.6146667 17.6442222,16.624 16.4977778,17.3377778 C15.1937778,18.1493333 14.8093333,19.406 14.9604444,20.9155556 L21.546,20.9155556 Z M13.268,24.2428889 C13.268,22.8582222 13.2544444,21.5288889 13.2706667,20.2004444 C13.3062222,17.3404444 15.4595556,15.1704444 18.2506667,15.1642222 C21.0264444,15.158 23.2051111,17.3493333 23.2388889,20.1955556 C23.2526667,21.3431111 23.2388889,22.4911111 23.2377778,23.6388889 C23.2375556,23.8346667 23.2377778,24.0304444 23.2377778,24.2222222 L24.8775556,24.2222222 C24.8775556,22.7108889 24.9397778,21.2484444 24.8653333,19.7928889 C24.6813333,16.1928889 21.716,13.4382222 18.1706667,13.5055556 C14.5288889,13.5744444 11.6826667,16.4186667 11.6206667,20.0637778 C11.604,21.0446667 11.6202222,22.026 11.6208889,23.0073333 C11.6213333,23.4086667 11.6211111,23.8104444 11.6211111,24.2428889 L13.268,24.2428889 Z M18.2526667,43.358 L18.2526667,43.3524444 C20.9004444,43.3524444 23.5482222,43.3537778 26.196,43.3515556 C27.1208889,43.3511111 27.364,43.1155556 27.3644444,42.2177778 C27.3675556,37.1631111 27.3691111,32.1082222 27.3687414,27.0535556 C27.3687414,26.2135556 27.1171111,25.9542222 26.2766667,25.9531111 C20.9255556,25.9475556 15.5746667,25.9451111 10.2235556,25.9475556 C9.39133333,25.9477778 9.13644444,26.2155556 9.13622222,27.0555556 C9.13488889,32.0548889 9.13488889,37.0542222 9.13844444,42.0535556 C9.13911111,43.1804444 9.32733333,43.3575556 10.476,43.358 C13.0682222,43.3584444 15.6604444,43.358 18.2526667,43.358 L18.2526667,43.358 Z M26.4533333,18.4733333 C26.4884444,19.2493333 26.4991111,19.9508889 26.5717778,20.646 C26.584,20.7637778 26.8606667,20.9406667 27.0173333,20.9431111 C28.4057778,20.9646667 29.7946667,20.9511111 31.1833333,20.9535556 C31.3855556,20.954 31.6022222,20.9457778 31.7868889,21.0124444 C32.1726667,21.1513333 32.394,21.4528889 32.3473333,21.87 C32.2982222,22.3115556 32.0117778,22.5784444 31.57,22.5995556 C30.9233333,22.6302222 30.2746667,22.6217778 29.6266667,22.6233333 C28.7564444,22.6255556 27.8857778,22.6346667 27.016,22.6128889 C26.6491111,22.6037778 26.504,22.738 26.5477778,23.0951111 C26.5566667,23.1682222 26.5582222,23.2446667 26.5468889,23.3168889 C26.45,23.9404444 26.5731111,24.3957778 27.3304444,24.4242222 C27.4684444,24.4293333 27.6446667,24.4953333 27.7324444,24.5953333 C28.3048889,25.2486667 29.0657778,25.1008889 29.7906667,25.1077778 C30.346,25.1131111 30.902,25.0977778 31.4571111,25.1126667 C31.9757778,25.1268889 32.3402222,25.4624444 32.358,25.9082222 C32.3766667,26.3748889 31.9997778,26.7602222 31.4664444,26.7715556 C30.6753333,26.7882222 29.8837778,26.776 29.0633333,26.776 L29.0633333,29.2533333 C29.8277778,29.2533333 30.5642222,29.2253333 31.2966667,29.2671111 C31.5875556,29.2835556 31.9473333,29.3806667 32.132,29.5766667 C32.2915556,29.7462222 32.3744444,30.1868889 32.2631111,30.3648889 C32.1051111,30.6171111 31.7491111,30.8646667 31.4575556,30.8911111 C30.6731111,30.9624444 29.8775556,30.9155556 29.0606667,30.9155556 L29.0606667,33.4013333 C29.648,33.4013333 30.2333333,33.4006667 30.8182222,33.4017778 C31.0588889,33.4022222 31.3008889,33.3915556 31.54,33.4124444 C32.0235556,33.4544444 32.354,33.7948889 32.3573333,34.2306667 C32.3606667,34.666 32.0384444,35.0224444 31.5437778,35.0468889 C30.8971111,35.0793333 30.248,35.0588889 29.6,35.064 C29.4355556,35.0655556 29.2711111,35.0782222 29.0702222,35.0873333 L29.0702222,37.5517778 C29.7957778,37.5517778 30.5286667,37.5511111 31.2613333,37.552 C31.9513333,37.5528889 32.3557778,37.8566667 32.3586844,38.374 C32.3617778,38.8917778 31.9544444,39.2173333 31.2786667,39.2224444 C30.5582222,39.2282222 29.8377778,39.2237778 29.0755556,39.2237778 L29.0755556,41.648 C29.2086667,41.6657778 29.348,41.6982222 29.4875556,41.6997778 C30.0615556,41.706 30.6355556,41.7 31.2095556,41.7035556 C31.9651111,41.7086667 32.3586844,41.9957778 32.3573333,42.5331111 C32.3557778,43.0646667 31.9524444,43.3582222 31.2097778,43.3613333 C30.5617778,43.3644444 29.9124444,43.3411111 29.2662222,43.3768889 C29.0895556,43.3866667 28.8528889,43.5255556 28.7622222,43.6762222 C28.2286667,44.5642222 27.4704444,45.0184444 26.4306667,45.018 C20.9868889,45.0153333 15.5428889,45.0144444 10.0991111,45.0188909 C9.03733333,45.02 8.26355556,44.5664444 7.72444444,43.6535556 C7.63777778,43.5066667 7.38955556,43.3842222 7.21,43.3755556 C6.52644444,43.3428889 5.84022222,43.3686667 5.15533333,43.3595556 C4.52422222,43.3511111 4.13,43.0088889 4.14666667,42.5048889 C4.16311111,42.0166667 4.52955556,41.7155556 5.156,41.7062222 C5.89533333,41.6953333 6.63488889,41.7035556 7.47266667,41.7035556 L7.47266667,40.4777778 L7.47266667,39.2215556 L5.64555556,39.2215556 C5.44177778,39.2215556 5.23777778,39.2306667 5.03444444,39.2206667 C4.52466667,39.1953333 4.15822222,38.8573333 4.14488889,38.4102222 C4.13111111,37.942 4.50288889,37.572 5.04466667,37.5562222 C5.65511111,37.5386667 6.26666667,37.5517778 6.87755556,37.5515556 L7.442,37.5515556 L7.442,35.0611111 C6.642,35.0611111 5.87022222,35.0744444 5.09933333,35.0568889 C4.45777778,35.0422222 4.03955556,34.6093333 4.16222222,34.0942222 C4.27622222,33.6155556 4.61244444,33.3988889 5.10222222,33.4017778 C5.87533333,33.4062222 6.64844444,33.4028889 7.44622222,33.4028889 L7.44622222,30.9177778 C6.84222222,30.9177778 6.24,30.9182222 5.63777778,30.9173333 C5.41577778,30.9171111 5.19244444,30.9266667 4.97155556,30.9091111 C4.48355556,30.8706667 4.15422222,30.5426667 4.14422222,30.1035556 C4.13444444,29.6657778 4.45177778,29.2962222 4.94088889,29.2713333 C5.60577778,29.2373333 6.27355556,29.2608889 6.94,29.2573333 C7.08688889,29.2564444 7.234,29.244 7.42644444,29.2346667 L7.42644444,26.7771111 C6.70733333,26.7771111 5.97488889,26.7793333 5.24266667,26.7762222 C4.562,26.7733333 4.15111111,26.4597778 4.14555556,25.9466667 C4.14,25.4317778 4.54955556,25.1135556 5.23066667,25.1095556 C5.712,25.1064444 6.19355556,25.1108889 6.67488889,25.1084444 C7.41933333,25.1042222 8.19866667,25.2517778 8.78822222,24.59 C8.86622222,24.5022222 9.01933333,24.48 9.13933333,24.432 C9.40266667,24.3268889 9.84555556,24.2782222 9.89577778,24.1108889 C10.0128889,23.7193333 9.97066667,23.2682222 9.92533333,22.8484444 C9.91533333,22.7564444 9.62488889,22.6315556 9.462,22.6291111 C8.20311111,22.6106667 6.94377778,22.6191111 5.68466667,22.6188889 C5.518,22.6186667 5.35133333,22.6217778 5.18466667,22.6173333 C4.52066667,22.5993333 4.144,22.2995556 4.144,21.7926667 C4.14422222,21.2877778 4.53377778,20.9575556 5.17377778,20.9544444 C6.544,20.948 7.91422222,20.9553333 9.28444444,20.9568889 C9.48377778,20.9571111 9.68311111,20.9568889 9.91511111,20.9568889 C9.96488889,20.1073333 10.0104444,19.3233333 10.0597778,18.4762222 C9.45577778,18.4762222 8.88688889,18.4766667 8.318,18.4762222 C7.26266667,18.4751111 6.20711111,18.4795556 5.15177778,18.4704444 C4.54022222,18.4651111 4.16444444,18.154 4.14755556,17.6682222 C4.13022222,17.1608889 4.51444444,16.822 5.15955556,16.8175556 C6.75177778,16.8071111 8.34466667,16.7926667 9.93644444,16.8202222 C10.4342222,16.8288889 10.7217778,16.7191111 10.9615556,16.2293333 C11.2802222,15.5784444 11.7524444,15.0026667 12.198,14.3357778 C11.9875556,14.3357778 11.8104444,14.336 11.6335556,14.3357778 C9.52266667,14.3346667 7.41177778,14.3342222 5.30088889,14.3322222 C4.56844444,14.3313333 4.15244444,14.0324444 4.14288889,13.5068889 C4.13355556,12.9751111 4.55155556,12.6617778 5.27577778,12.6617778 C8.25688889,12.6613333 11.2382222,12.6655556 14.2193333,12.6562222 C14.4695556,12.6553333 14.7368889,12.61 14.9668889,12.5144444 C17.1475556,11.6113333 19.3235556,11.6266667 21.5102222,12.4917778 C21.7597778,12.5906667 22.0417778,12.6531111 22.3091111,12.6542222 C25.2533333,12.6655556 28.1973333,12.6608889 31.1415556,12.6617778 C31.308,12.6617778 31.48,12.6444444 31.6397778,12.6793333 C32.0635556,12.7722222 32.348,13.0344444 32.3506667,13.4806667 C32.3535556,13.9506667 32.0682222,14.2308889 31.6148889,14.3173333 C31.4357778,14.3513333 31.2457778,14.3322222 31.0606667,14.3322222 C28.8226667,14.3326667 26.5846667,14.3326667 24.2815556,14.3326667 C24.6995556,14.9346667 25.1771111,15.444 25.4377778,16.0471111 C25.7297778,16.7224444 26.1513333,16.8422222 26.8088889,16.8222222 C28.2331111,16.7784444 29.6597778,16.812 31.0855556,16.814 C31.2151111,16.8142222 31.3453333,16.8093333 31.4742222,16.8191111 C32.0097778,16.8597778 32.3511111,17.176 32.3575556,17.6313333 C32.3642222,18.1015556 31.9968889,18.4622222 31.4446667,18.4671111 C29.982,18.4804444 28.5191111,18.4726667 27.0564444,18.4733333 L26.4533333,18.4733333 Z" id="Fill-4" fill="#006341"></path>
                <path d="M14.0794889,10.1743556 C11.2121556,10.1743556 8.34482222,10.1748 5.47748889,10.1732444 C5.27437778,10.1732444 5.06815556,10.1788 4.86882222,10.1472444 C4.4286,10.0772444 4.15771111,9.80591111 4.15592221,9.36146667 C4.15393333,8.8968 4.42171111,8.60435556 4.88926667,8.53235556 C5.07037778,8.50435556 5.25815556,8.51324444 5.44282222,8.51302222 C11.2146,8.51235556 16.9863778,8.51235556 22.7581556,8.51257778 C23.6694889,8.5128 24.0530444,8.76435556 24.0497326,9.35457778 C24.0461556,9.9348 23.6659333,10.1736889 22.7370444,10.1739111 C19.8512667,10.1748 16.9654889,10.1743556 14.0794889,10.1743556" id="Fill-6" fill="#006341"></path>
                <path d="M20.7286667,33.5766889 C20.7162222,32.2833556 19.9364444,31.2733556 18.894,31.0062444 C17.7744444,30.7193556 16.654,31.1949111 16.0966667,32.1935778 C15.5406667,33.1895778 15.6471111,34.5018 16.5635556,35.1684667 C17.3582222,35.7464667 17.5002222,36.4209111 17.424,37.2698 C17.4157778,37.3613556 17.422,37.4551333 17.4315556,37.5469111 C17.4833333,38.0442444 17.798,38.3622444 18.2402222,38.3684667 C18.6888889,38.3751333 19.0226667,38.0680222 19.0671111,37.5709111 C19.0953333,37.2584667 19.0968889,36.9413556 19.0786667,36.6280222 C19.048,36.1013556 19.2246667,35.7260222 19.684,35.4178 C20.3891111,34.9444667 20.7171111,34.2326889 20.7286667,33.5766889 M22.3991116,33.7124667 C22.3908889,34.5140222 22.0224444,35.4900222 21.2373333,36.2602444 C20.8762222,36.6146889 20.7362222,36.9586889 20.7331111,37.4611333 C20.7231111,39.0982444 19.4777778,40.2058 17.9253333,40.0182444 C16.7133333,39.8720222 15.8088889,38.8866889 15.7735556,37.5824667 C15.7582222,37.0162444 15.6117778,36.6075778 15.1966667,36.1824667 C13.9033333,34.8575778 13.7515556,32.8175778 14.7364444,31.2038 C15.6866667,29.6471333 17.6228889,28.9146889 19.4282222,29.4293556 C21.1762222,29.9273556 22.4,31.5669111 22.3991116,33.7124667" id="Fill-7" fill="#006341"></path>
            </g>
        </g>
    </g>
</svg>