<svg xmlns="http://www.w3.org/2000/svg" viewBox="0 0 42 33.62"><title>big-ic-visorH2H</title><g id="Capa_2" data-name="Capa 2"><g id="Capa_1-2" data-name="Capa 1"><path d="M34,23.84H17.85a.81.81,0,1,1,0-1.62H34a.81.81,0,0,1,0,1.62Z"/><path d="M34,28.34H17.85a.81.81,0,1,1,0-1.62H34a.81.81,0,0,1,0,1.62Z"/><path d="M13.57,29.14H8.05a.8.8,0,0,1-.8-.8v-15a.8.8,0,0,1,.8-.81h5.52a.8.8,0,0,1,.8.81V28.34A.8.8,0,0,1,13.57,29.14ZM8.86,27.53h3.9V14.09H8.86Z"/><path d="M34,19.61H18.06a.81.81,0,0,1-.81-.81V13.29a.81.81,0,0,1,.81-.81H34a.8.8,0,0,1,.8.81V18.8A.8.8,0,0,1,34,19.61ZM18.87,18H33.14v-3.9H18.87Z"/><path d="M7.47,4.66A1.28,1.28,0,1,1,6.19,3.38,1.28,1.28,0,0,1,7.47,4.66Z"/><path d="M12.74,4.66a1.28,1.28,0,1,1-1.28-1.28A1.28,1.28,0,0,1,12.74,4.66Z"/><path d="M18,4.66a1.28,1.28,0,1,1-1.28-1.28A1.28,1.28,0,0,1,18,4.66Z"/><rect x="1.64" y="7.53" width="38.78" height="1.61"/><path d="M39.17,0H2.81a2.77,2.77,0,0,0-2,.83,2.8,2.8,0,0,0-.82,2v28a3,3,0,0,0,3,2.81H39.35a3,3,0,0,0,2-1.07,2.68,2.68,0,0,0,.66-2V2.82A2.84,2.84,0,0,0,39.17,0Zm1,31.42c-.22.23-.53.59-.85.59H3a1.36,1.36,0,0,1-1.37-1.2v-28A1.17,1.17,0,0,1,2,2a1.2,1.2,0,0,1,.85-.36H39.17a1.23,1.23,0,0,1,1.22,1.22V30.56A1.11,1.11,0,0,1,40.19,31.42Z"/></g></g></svg>