<?xml version="1.0" encoding="UTF-8"?>
<svg width="79px" height="20px" viewBox="0 0 79 20" version="1.1" xmlns="http://www.w3.org/2000/svg" xmlns:xlink="http://www.w3.org/1999/xlink">
    <!-- Generator: Sketch 55.2 (78181) - https://sketchapp.com -->
    <title>Alnova</title>
    <desc>Created with Sketch.</desc>
    <g id="Page-1" stroke="none" stroke-width="1" fill="none" fill-rule="evenodd">
        <g id="Personas-Morales-Copy" transform="translate(-1049.000000, -467.000000)" fill="#333333" fill-rule="nonzero">
            <path d="M1051.75,485.9 L1049,485.9 L1056.675,468.2 L1058.925,468.2 L1066.525,485.9 L1063.725,485.9 L1061.925,481.55 L1053.525,481.55 L1051.75,485.9 Z M1054.4,479.375 L1061.025,479.375 L1057.725,471.075 L1054.4,479.375 Z M1071.075,485.9 L1068.725,485.9 L1068.725,467 L1071.075,467 L1071.075,485.9 Z M1077.3,474.05 C1077.33333,474.350001 1077.35833,474.687498 1077.375,475.0625 C1077.39167,475.437502 1077.4,475.749999 1077.4,476 L1077.475,476 C1077.625,475.683332 1077.82917,475.387501 1078.0875,475.1125 C1078.34583,474.837499 1078.64166,474.595834 1078.975,474.3875 C1079.30833,474.179166 1079.675,474.016667 1080.075,473.9 C1080.475,473.783333 1080.89166,473.725 1081.325,473.725 C1082.09167,473.725 1082.75,473.854165 1083.3,474.1125 C1083.85,474.370835 1084.30833,474.716664 1084.675,475.15 C1085.04167,475.583335 1085.3125,476.091664 1085.4875,476.675 C1085.6625,477.258336 1085.75,477.88333 1085.75,478.55 L1085.75,485.9 L1083.4,485.9 L1083.4,479.325 C1083.4,478.841664 1083.3625,478.383335 1083.2875,477.95 C1083.2125,477.516664 1083.075,477.133335 1082.875,476.8 C1082.675,476.466665 1082.4,476.200001 1082.05,476 C1081.7,475.799999 1081.25,475.7 1080.7,475.7 C1079.76666,475.7 1079.00417,476.054163 1078.4125,476.7625 C1077.82083,477.470837 1077.525,478.416661 1077.525,479.6 L1077.525,485.9 L1075.175,485.9 L1075.175,476.6 C1075.175,476.283332 1075.16667,475.875002 1075.15,475.375 C1075.13333,474.874997 1075.10833,474.433335 1075.075,474.05 L1077.3,474.05 Z M1101.725,479.95 C1101.725,480.866671 1101.5625,481.708329 1101.2375,482.475 C1100.9125,483.24167 1100.4625,483.904164 1099.8875,484.4625 C1099.3125,485.020836 1098.63334,485.454165 1097.85,485.7625 C1097.06666,486.070835 1096.225,486.225 1095.325,486.225 C1094.425,486.225 1093.58334,486.070835 1092.8,485.7625 C1092.01666,485.454165 1091.34167,485.020836 1090.775,484.4625 C1090.20833,483.904164 1089.7625,483.24167 1089.4375,482.475 C1089.1125,481.708329 1088.95,480.866671 1088.95,479.95 C1088.95,479.033329 1089.1125,478.195837 1089.4375,477.4375 C1089.7625,476.679163 1090.20833,476.025003 1090.775,475.475 C1091.34167,474.924997 1092.01666,474.495835 1092.8,474.1875 C1093.58334,473.879165 1094.425,473.725 1095.325,473.725 C1096.225,473.725 1097.06666,473.879165 1097.85,474.1875 C1098.63334,474.495835 1099.3125,474.924997 1099.8875,475.475 C1100.4625,476.025003 1100.9125,476.679163 1101.2375,477.4375 C1101.5625,478.195837 1101.725,479.033329 1101.725,479.95 Z M1099.275,479.95 C1099.275,479.38333 1099.1875,478.841669 1099.0125,478.325 C1098.8375,477.808331 1098.58334,477.354169 1098.25,476.9625 C1097.91666,476.570831 1097.50417,476.258334 1097.0125,476.025 C1096.52083,475.791665 1095.95834,475.675 1095.325,475.675 C1094.69166,475.675 1094.12917,475.791665 1093.6375,476.025 C1093.14583,476.258334 1092.73333,476.570831 1092.4,476.9625 C1092.06667,477.354169 1091.8125,477.808331 1091.6375,478.325 C1091.4625,478.841669 1091.375,479.38333 1091.375,479.95 C1091.375,480.516669 1091.4625,481.058331 1091.6375,481.575 C1091.8125,482.091669 1092.06667,482.549998 1092.4,482.95 C1092.73333,483.350002 1093.14583,483.666665 1093.6375,483.9 C1094.12917,484.133334 1094.69166,484.25 1095.325,484.25 C1095.95834,484.25 1096.52083,484.133334 1097.0125,483.9 C1097.50417,483.666665 1097.91666,483.350002 1098.25,482.95 C1098.58334,482.549998 1098.8375,482.091669 1099.0125,481.575 C1099.1875,481.058331 1099.275,480.516669 1099.275,479.95 Z M1110.55,485.9 L1108,485.9 L1103.175,474.05 L1105.775,474.05 L1109.25,483.375 L1109.3,483.375 L1112.8,474.05 L1115.3,474.05 L1110.55,485.9 Z M1124.95,478.225 C1124.95,477.341662 1124.68334,476.687502 1124.15,476.2625 C1123.61666,475.837498 1122.90834,475.625 1122.025,475.625 C1121.35833,475.625 1120.72917,475.754165 1120.1375,476.0125 C1119.54583,476.270835 1119.05,476.599998 1118.65,477 L1117.4,475.5 C1117.98334,474.949997 1118.69583,474.516668 1119.5375,474.2 C1120.37917,473.883332 1121.28333,473.725 1122.25,473.725 C1123.1,473.725 1123.8375,473.845832 1124.4625,474.0875 C1125.0875,474.329168 1125.6,474.658331 1126,475.075 C1126.4,475.491669 1126.7,475.98333 1126.9,476.55 C1127.1,477.11667 1127.2,477.725 1127.2,478.375 L1127.2,483.55 C1127.2,483.950002 1127.2125,484.370831 1127.2375,484.8125 C1127.2625,485.254169 1127.30833,485.616665 1127.375,485.9 L1125.25,485.9 C1125.11667,485.33333 1125.05,484.766669 1125.05,484.2 L1124.975,484.2 C1124.54166,484.833336 1123.99584,485.324998 1123.3375,485.675 C1122.67916,486.025002 1121.9,486.2 1121,486.2 C1120.53333,486.2 1120.04584,486.137501 1119.5375,486.0125 C1119.02916,485.887499 1118.56667,485.683335 1118.15,485.4 C1117.73333,485.116665 1117.3875,484.741669 1117.1125,484.275 C1116.8375,483.808331 1116.7,483.233337 1116.7,482.55 C1116.7,481.649995 1116.94166,480.937503 1117.425,480.4125 C1117.90834,479.887497 1118.54166,479.487501 1119.325,479.2125 C1120.10834,478.937499 1120.99166,478.758334 1121.975,478.675 C1122.95834,478.591666 1123.94999,478.55 1124.95,478.55 L1124.95,478.225 Z M1124.375,480.25 C1123.79166,480.25 1123.1875,480.275 1122.5625,480.325 C1121.9375,480.375 1121.37084,480.474999 1120.8625,480.625 C1120.35416,480.775001 1119.93333,480.999998 1119.6,481.3 C1119.26666,481.600001 1119.1,481.999997 1119.1,482.5 C1119.1,482.850002 1119.17083,483.141665 1119.3125,483.375 C1119.45417,483.608334 1119.64167,483.799999 1119.875,483.95 C1120.10833,484.100001 1120.36667,484.204166 1120.65,484.2625 C1120.93333,484.320834 1121.225,484.35 1121.525,484.35 C1122.62501,484.35 1123.47083,484.020837 1124.0625,483.3625 C1124.65417,482.704163 1124.95,481.875005 1124.95,480.875 L1124.95,480.25 L1124.375,480.25 Z" id="Alnova"></path>
        </g>
    </g>
</svg>