<?xml version="1.0" encoding="UTF-8"?>
<svg width="42px" height="51px" viewBox="0 0 42 51" version="1.1" xmlns="http://www.w3.org/2000/svg" xmlns:xlink="http://www.w3.org/1999/xlink">
    <!-- Generator: Sketch 55.2 (78181) - https://sketchapp.com -->
    <title>Catalogos</title>
    <desc>Created with Sketch.</desc>
    <g id="Page-1" stroke="none" stroke-width="1" fill="none" fill-rule="evenodd">
        <g id="Personas-Morales-Copy" transform="translate(-331.000000, -445.000000)" fill="#000000" fill-rule="nonzero">
            <g id="Catalogos" transform="translate(331.000000, 445.000000)">
                <g id="Reportes-Copy">
                    <path d="M37.8,0 L7.56,0 C5.50536,0 3.79764,1.48512 3.43728,3.43728 C1.48512,3.79764 0,5.50536 0,7.56 L0,46.2 C0,48.51588 1.88412,50.4 4.2,50.4 L34.44,50.4 C36.49464,50.4 38.20236,48.91488 38.56272,46.96272 C40.51488,46.60236 42,44.89464 42,42.84 L42,4.2 C42,1.88412 40.11588,0 37.8,0 Z M36.96,46.2 C36.96,47.58936 35.82936,48.72 34.44,48.72 L4.2,48.72 C2.81064,48.72 1.68,47.58936 1.68,46.2 L1.68,7.56 C1.68,6.17064 2.81064,5.04 4.2,5.04 L29.4,5.04 L29.4,11.76 C29.4,12.22452 29.77548,12.6 30.24,12.6 L36.96,12.6 L36.96,46.2 Z M31.08,10.92 L31.08,6.22776 L35.77224,10.92 L31.08,10.92 Z M40.32,42.84 C40.32,43.93368 39.61524,44.85768 38.64,45.20544 L38.64,11.76 C38.64,11.52732 38.54508,11.31732 38.39304,11.16528 L30.83556,3.6078 C30.68268,3.45492 30.47268,3.36 30.24,3.36 L5.19456,3.36 C5.54232,2.38476 6.46632,1.68 7.56,1.68 L37.8,1.68 C39.18936,1.68 40.32,2.81064 40.32,4.2 L40.32,42.84 Z" id="Shape"></path>
                </g>
                <g id="spreadsheet-cell-row" transform="translate(5.250000, 15.750000)">
                    <path d="M27.2906552,0 L1.05909109,0 C0.474428157,0 0,0.473130388 0,1.0539396 L0,24.1461866 C0,24.5030542 0.179749919,24.8175698 0.453814634,25.008564 L0.453814634,25.1746898 L0.833484013,25.1746898 C0.906170466,25.1905955 0.981393967,25.2 1.05909109,25.2 L27.2906552,25.2 C27.3676546,25.2 27.4426244,25.1905955 27.5155012,25.1746898 L27.5675741,25.1746898 L27.5675741,25.1588473 C28.0167586,25.0365251 28.35,24.6310569 28.35,24.1461866 L28.35,1.05425519 C28.35,0.473130388 27.8744302,0 27.2906552,0 Z M4.1861308,24.2712228 L0.980442574,24.2712228 C0.937566447,24.2449659 0.907756121,24.1997736 0.907756121,24.1462498 L0.907756121,21.4100968 L4.1861308,21.4100968 L4.1861308,24.2712228 Z M4.1861308,20.5065667 L0.907756121,20.5065667 L0.907756121,17.539403 L4.1861308,17.539403 L4.1861308,20.5065667 Z M4.1861308,16.6362516 L0.907756121,16.6362516 L0.907756121,13.5035932 L4.1861308,13.5035932 L4.1861308,16.6362516 Z M4.1861308,12.6001894 L0.907756121,12.6001894 L0.907756121,9.21158861 L4.1861308,9.21158861 L4.1861308,12.6001894 Z M4.1861308,8.30812165 L0.907756121,8.30812165 L0.907756121,4.99488346 L4.1861308,4.99488346 L4.1861308,8.30812165 Z M11.8288005,24.2712228 L5.09426748,24.2712228 L5.09426748,21.4100968 L11.8288005,21.4100968 L11.8288005,24.2712228 Z M11.8288005,20.5065667 L5.09426748,20.5065667 L5.09426748,17.539403 L11.8288005,17.539403 L11.8288005,20.5065667 Z M11.8288005,16.6362516 L5.09426748,16.6362516 L5.09426748,13.5035932 L11.8288005,13.5035932 L11.8288005,16.6362516 Z M11.8288005,12.6001894 L5.09426748,12.6001894 L5.09426748,9.21158861 L11.8288005,9.21158861 L11.8288005,12.6001894 Z M11.8288005,8.30812165 L5.09426748,8.30812165 L5.09426748,4.99488346 L11.8288005,4.99488346 L11.8288005,8.30812165 Z M11.8288005,4.09122714 L5.09426748,4.09122714 L5.09426748,0.903151377 L11.8288005,0.903151377 L11.8288005,4.09122714 Z M19.5476452,24.2712228 L12.7367469,24.2712228 L12.7367469,21.4100968 L19.5476452,21.4100968 L19.5476452,24.2712228 Z M19.5476452,20.5065667 L12.7367469,20.5065667 L12.7367469,17.539403 L19.5476452,17.539403 L19.5476452,20.5065667 Z M19.5476452,16.6362516 L12.7367469,16.6362516 L12.7367469,13.5035932 L19.5476452,13.5035932 L19.5476452,16.6362516 Z M19.5476452,12.6001894 L12.7367469,12.6001894 L12.7367469,9.21158861 L19.5476452,9.21158861 L19.5476452,12.6001894 Z M19.5476452,8.30812165 L12.7367469,8.30812165 L12.7367469,4.99488346 L19.5476452,4.99488346 L19.5476452,8.30812165 Z M19.5476452,4.09122714 L12.7367469,4.09122714 L12.7367469,0.903151377 L19.5476452,0.903151377 L19.5476452,4.09122714 Z M27.4419902,24.1461866 C27.4419902,24.1995211 27.4115456,24.2446503 27.3691134,24.2711597 L20.455655,24.2711597 L20.455655,21.4100337 L27.4419902,21.4100337 L27.4419902,24.1461866 Z M27.4419902,20.5065667 L20.455655,20.5065667 L20.455655,17.539403 L27.4419902,17.539403 L27.4419902,20.5065667 Z M27.4419902,16.6362516 L20.455655,16.6362516 L20.455655,13.5035932 L27.4419902,13.5035932 L27.4419902,16.6362516 Z M27.4419902,12.6001894 L20.455655,12.6001894 L20.455655,9.21158861 L27.4419902,9.21158861 L27.4419902,12.6001894 Z M27.4419902,8.30812165 L20.455655,8.30812165 L20.455655,4.99488346 L27.4419902,4.99488346 L27.4419902,8.30812165 Z M27.4420536,4.09122714 L20.455655,4.09122714 L20.455655,0.903151377 L27.2907186,0.903151377 C27.3739338,0.903151377 27.4420536,0.970876685 27.4420536,1.0539396 L27.4420536,4.09122714 L27.4420536,4.09122714 Z M11.1537552,15.93028 L5.70442775,15.93028 L5.70442775,14.0442595 L11.1536918,14.0442595 L11.1536918,15.93028 L11.1537552,15.93028 Z M18.8541428,16.0014136 L13.4048788,16.0014136 L13.4048788,14.115267 L18.8541428,14.115267 L18.8541428,16.0014136 Z M26.7443651,15.9599453 L21.2951645,15.9599453 L21.2951645,14.0737986 L26.7443651,14.0737986 L26.7443651,15.9599453 Z" id="Shape"></path>
                </g>
            </g>
        </g>
    </g>
</svg>