<?xml version="1.0" encoding="UTF-8"?>
<svg width="40px" height="40px" viewBox="0 0 40 40" version="1.1" xmlns="http://www.w3.org/2000/svg" xmlns:xlink="http://www.w3.org/1999/xlink">
    <!-- Generator: Sketch 55.2 (78181) - https://sketchapp.com -->
    <title>ConsultaComisiones</title>
    <desc>Created with Sketch.</desc>
    <g id="Page-1" stroke="none" stroke-width="1" fill="none" fill-rule="evenodd">
        <g id="Módulo-de-Comisiones" transform="translate(-1074.000000, -283.000000)" fill="#000000" fill-rule="nonzero">
            <g id="ConsultaComisiones" transform="translate(1074.000000, 283.000000)">
                <path d="M24.2110152,17.3100733 C20.4274826,17.3100733 17.3493645,20.3881913 17.3493645,24.171724 C17.3493645,27.9552568 20.4274826,31.0333747 24.2110152,31.0333747 C27.994548,31.0333747 31.0726659,27.9552568 31.0726659,24.171724 C31.0726659,20.3881913 27.994548,17.3100733 24.2110152,17.3100733 Z M24.2110152,29.4739086 C21.2873209,29.4739086 18.9088306,27.0954183 18.9088306,24.171724 C18.9088306,21.2480297 21.2873209,18.8695394 24.2110152,18.8695394 C27.1347095,18.8695394 29.5131999,21.2480297 29.5131999,24.171724 C29.5131999,27.0954183 27.1347095,29.4739086 24.2110152,29.4739086 Z" id="Shape"></path>
                <path d="M39.1867628,35.4087126 L32.9985456,29.2201908 C33.856252,27.732911 34.3475447,26.0086654 34.3475447,24.171724 C34.3475447,21.4606288 33.2775438,18.9950277 31.5380691,17.1742292 L31.5380691,8.42020299 C31.5374599,8.42020299 31.5368507,8.42020299 31.5362416,8.42020299 C31.5362416,8.2173506 31.4588774,8.01815314 31.3099363,7.8689074 L23.6694663,0.228437451 C23.5202205,0.0791916361 23.3207186,0.00213208641 23.1178661,0.00213208641 C23.1178661,0.00121833286 23.1178661,0.000913753546 23.1181707,0 L2.37818575,0 C1.08827581,0 0.0389866516,1.04928916 0.0389866516,2.3391991 L0.0389866516,37.5831322 C0.0389866516,38.8730421 1.08827581,39.9223313 2.37818575,39.9223313 L29.1991745,39.9223313 C30.4887799,39.9223313 31.5383736,38.8730421 31.5383736,37.5831322 L31.5383736,35.2384506 L35.4476992,39.1480807 C35.963054,39.6634356 36.6401425,39.9211129 37.3175356,39.9211129 C37.9946241,39.9211129 38.6717126,39.6634356 39.1870674,39.1480807 C40.217777,38.1170665 40.217777,36.4397268 39.1867628,35.4087126 Z M24.2110152,32.7487874 C19.4817516,32.7487874 15.6339519,28.9009876 15.6339519,24.171724 C15.6339519,19.4424604 19.4817516,15.5946607 24.2110152,15.5946607 C28.9402788,15.5946607 32.7880786,19.4424604 32.7880786,24.171724 C32.7880786,28.9009876 28.9402788,32.7487874 24.2110152,32.7487874 Z M23.8979037,2.66236187 L28.8760118,7.64077459 L24.6776367,7.64077459 C24.2475652,7.64077459 23.8979037,7.29080842 23.8979037,6.86104156 L23.8979037,2.66236187 Z M29.9789076,37.5831322 C29.9789076,38.0132037 29.6289415,38.3628652 29.1991745,38.3628652 L2.37818575,38.3628652 C1.94811425,38.3628652 1.59845272,38.0132037 1.59845272,37.5831322 L1.59845272,2.3391991 C1.59845272,1.9091276 1.94811425,1.55946607 2.37818575,1.55946607 L22.3384376,1.55946607 L22.3384376,6.86073692 C22.3384376,8.15064686 23.3877268,9.19993602 24.6776367,9.19993602 L29.978603,9.19993602 L29.978603,15.8410685 C28.3405545,14.7031456 26.3525398,14.0351946 24.2110152,14.0351946 C18.6216086,14.0351946 14.0744858,18.5823174 14.0744858,24.171724 C14.0744858,25.2630457 14.2487074,26.3147715 14.5694335,27.3007074 L5.04115683,27.3007074 C4.61078068,27.3007074 4.26142379,27.6497598 4.26142379,28.0804404 C4.26142379,28.5108166 4.61078068,28.8601734 5.04115683,28.8601734 L14.9979821,28.8601734 C15.0713867,28.8601734 15.1426592,28.8492084 15.209972,28.8300198 C16.8997997,32.0817501 20.3001667,34.3082534 24.2110152,34.3082534 C26.0476521,34.3082534 27.7718976,33.8169607 29.2591775,32.9592544 L29.9789076,33.6789846 L29.9789076,37.5831322 Z M38.0841716,38.0451849 C37.66141,38.468251 36.9733566,38.468251 36.550595,38.0451849 L30.5670578,32.0616476 C31.1311459,31.6062957 31.6452824,31.0921592 32.1006343,30.5280711 L38.0841716,36.5113038 C38.5072376,36.93437 38.5072376,37.6224234 38.0841716,38.0451849 L38.0841716,38.0451849 Z" id="Shape"></path>
                <path d="M24.2110152,20.6632299 C23.7803346,20.6632299 23.4312822,21.0122823 23.4312822,21.442963 C23.4312822,21.8736437 23.7803346,22.222696 24.2110152,22.222696 C25.2855848,22.222696 26.1600433,23.0971544 26.1600433,24.171724 C26.1600433,24.6024047 26.5090956,24.951457 26.9397763,24.951457 C27.370457,24.951457 27.7195093,24.6024047 27.7195093,24.171724 C27.7195093,22.2370114 26.1457278,20.6632299 24.2110152,20.6632299 L24.2110152,20.6632299 Z" id="Path"></path>
                <path d="M12.0584496,21.8943553 L5.04115683,21.8943553 C4.61078068,21.8943553 4.26142379,22.2434077 4.26142379,22.6740884 C4.26142379,23.104769 4.61078068,23.4538214 5.04115683,23.4538214 L12.0584496,23.4538214 C12.4891302,23.4538214 12.8381826,23.104769 12.8381826,22.6740884 C12.8381826,22.2434077 12.4891302,21.8943553 12.0584496,21.8943553 Z" id="Path"></path>
                <path d="M12.5205023,16.4883079 L5.04115683,16.4883079 C4.61078068,16.4883079 4.26142379,16.8373602 4.26142379,17.2680409 C4.26142379,17.6984169 4.61078068,18.0477739 5.04115683,18.0477739 L12.5205023,18.0477739 C12.9511829,18.0477739 13.3002353,17.6984169 13.3002353,17.2680409 C13.3002353,16.8373602 12.9511829,16.4883079 12.5205023,16.4883079 Z" id="Path"></path>
                <path d="M14.8539143,32.7067549 C14.6486252,32.7067549 14.4476002,32.7899061 14.3026187,32.9351923 C14.157637,33.0801739 14.0741812,33.2811988 14.0741812,33.486488 C14.0741812,33.6914725 14.157637,33.8928019 14.3026187,34.037479 C14.4476002,34.1827652 14.6486252,34.266221 14.8539143,34.266221 C15.0588988,34.266221 15.2602283,34.1827652 15.4058191,34.037479 C15.5508007,33.8928019 15.6336473,33.6914725 15.6336473,33.486488 C15.6336473,33.2811988 15.5508007,33.0801739 15.4058191,32.9351923 C15.2602283,32.7899061 15.0588988,32.7067549 14.8539143,32.7067549 Z" id="Path"></path>
                <path d="M11.6515264,32.7067549 L5.04115683,32.7067549 C4.61078068,32.7067549 4.26142379,33.0558073 4.26142379,33.486488 C4.26142379,33.916864 4.61078068,34.266221 5.04115683,34.266221 L11.6515264,34.266221 C12.0819024,34.266221 12.4312594,33.916864 12.4312594,33.486488 C12.4312594,33.0558073 12.082207,32.7067549 11.6515264,32.7067549 Z" id="Path"></path>
                <path d="M5.04085226,12.6417264 C5.24675044,12.6417264 5.44716623,12.5582706 5.59214784,12.413289 C5.73804322,12.2673936 5.8205853,12.0672825 5.8205853,11.8619933 C5.8205853,11.6570088 5.73804322,11.4559839 5.59214784,11.3100885 C5.44716623,11.1651069 5.24583675,11.0822603 5.04085226,11.0822603 C4.8358677,11.0822603 4.63545198,11.1651069 4.4895566,11.3100885 C4.34457499,11.4550701 4.26111923,11.6560951 4.26111923,11.8619933 C4.26111923,12.0672825 4.34457499,12.2683074 4.4895566,12.413289 C4.63484278,12.5582706 4.8358677,12.6417264 5.04085226,12.6417264 Z" id="Path"></path>
                <path d="M20.0001523,11.0822603 L8.34618924,11.0822603 C7.91581318,11.0822603 7.56645621,11.4313127 7.56645621,11.8619933 C7.56645621,12.2923695 7.91581318,12.6417264 8.34618924,12.6417264 L20.0001523,12.6417264 C20.430833,12.6417264 20.7798853,12.2923695 20.7798853,11.8619933 C20.7798853,11.4313127 20.430833,11.0822603 20.0001523,11.0822603 Z" id="Path"></path>
                <path d="M5.04115683,7.23537431 L20.0001523,7.23537431 C20.430833,7.23537431 20.7798853,6.88632191 20.7798853,6.45564128 C20.7798853,6.02496058 20.430833,5.67590825 20.0001523,5.67590825 L5.04115683,5.67590825 C4.61078068,5.67590825 4.26142379,6.02496058 4.26142379,6.45564128 C4.26142379,6.88632191 4.61078068,7.23537431 5.04115683,7.23537431 Z" id="Path"></path>
            </g>
        </g>
    </g>
</svg>