<?xml version="1.0" encoding="UTF-8"?>
<svg width="45px" height="43px" viewBox="0 0 45 43" version="1.1" xmlns="http://www.w3.org/2000/svg" xmlns:xlink="http://www.w3.org/1999/xlink">
    <!-- Generator: Sketch 55.2 (78181) - https://sketchapp.com -->
    <title>ÓrdenesPago</title>
    <desc>Created with Sketch.</desc>
    <g id="Page-1" stroke="none" stroke-width="1" fill="none" fill-rule="evenodd">
        <g id="Personas-Morales" transform="translate(-792.000000, -278.000000)" fill="#000000" fill-rule="nonzero">
            <g id="Group-3" transform="translate(738.000000, 249.000000)">
                <g id="ÓrdenesPago" transform="translate(54.000000, 29.000000)">
                    <path d="M34.4107802,6.40943324 C34.4303201,6.41085432 34.44986,6.4122754 34.4697552,6.4122754 C34.5035059,6.4122754 34.5372566,6.40943324 34.5702967,6.40481475 C35.4545647,6.42293356 36.1622634,7.14413243 36.1633292,8.02840052 C36.1633292,8.43021127 36.4891121,8.75599429 36.890923,8.75599429 C37.2927337,8.75599429 37.6185167,8.43021127 37.6185167,8.02840052 C37.6167403,6.5820947 36.6099041,5.33083231 35.1973489,5.01961544 L35.1973489,4.3204433 C35.1973489,3.91863254 34.871566,3.59284952 34.4697552,3.59284952 C34.0679443,3.59284952 33.7421614,3.91863254 33.7421614,4.3204433 L33.7421614,5.05265566 C32.2486046,5.45197949 31.2822692,6.89686423 31.4837075,8.42985602 C31.6851457,9.96284782 32.9918303,11.1089501 34.5379671,11.1089501 C35.4357354,11.1089501 36.1633292,11.8368992 36.1633292,12.7346674 C36.1633292,13.6320805 35.4357354,14.3600295 34.5379671,14.3600295 C33.6401988,14.3600295 32.912605,13.6320805 32.912605,12.7346674 C32.912605,12.3328566 32.5868221,12.0070736 32.1850112,12.0070736 C31.7832005,12.0070736 31.4574174,12.3328566 31.4574174,12.7346674 C31.4591939,14.1287485 32.3956865,15.3483917 33.7421614,15.7104123 L33.7421614,16.5076391 C33.7421614,16.9094499 34.0679443,17.2352328 34.4697552,17.2352328 C34.871566,17.2352328 35.1973489,16.9094499 35.1973489,16.5076391 L35.1973489,15.7438077 C36.7338934,15.4073667 37.7702171,13.9671004 37.6007532,12.4032002 C37.4316445,10.8392999 36.1111044,9.65411786 34.5379671,9.65447311 C33.6650677,9.65482836 32.9477768,8.96560378 32.9133156,8.09341493 C32.8792096,7.22122617 33.5403678,6.47764516 34.4107802,6.40978849 L34.4107802,6.40943324 Z" id="Path"></path>
                    <path d="M34.5795337,0.0355270399 C30.103482,0.0355270399 26.2836147,2.95620497 24.8525854,6.86702152 L6.79383586,6.86702152 C6.39380134,6.86702152 6.06908425,7.22762099 6.06624208,7.62730017 L5.89429121,33.1513467 L0.746778424,33.1513467 C0.34496758,33.1513467 -5.68434189e-14,33.4423132 -5.68434189e-14,33.8448345 L-5.68434189e-14,37.0838348 C0.00923698489,40.1331206 2.41086488,42.6381322 5.45695333,42.7759771 L5.45695333,42.7919642 L27.9214112,42.7919642 L27.9214112,42.770648 C28.1033096,42.7773982 28.1782717,42.7919642 28.2933793,42.7919642 L28.3090112,42.7919642 C31.4616807,42.7869905 34.0150091,40.2297541 34.0150091,37.0770847 L34.0150091,20.7005403 C34.1969075,20.7104879 34.3894641,20.715817 34.5777574,20.715817 C40.2738077,20.715817 44.9090206,16.0717223 44.9090206,10.3753167 C44.9090206,4.67926645 40.2759393,0.0355270399 34.5795337,0.0355270399 Z M5.73370899,41.3367767 L5.7290905,41.3367767 C3.37542404,41.3335793 1.46584571,39.4303958 1.45518755,37.0763741 L1.45518755,34.6065343 L22.5554071,34.6065343 L22.5554071,37.0660712 C22.5564729,38.584497 23.1629195,40.0400398 24.2400994,41.1104695 C24.3164824,41.1868526 24.4113396,41.2458275 24.4912755,41.3367767 L5.73370899,41.3367767 Z M32.5598215,37.0763741 C32.5601768,39.4261325 30.6577038,41.3321582 28.3083006,41.3367767 L28.2944451,41.3367767 C25.9354496,41.3325134 24.0223185,39.4254219 24.0105946,37.0667818 L24.0105946,33.8448345 C24.0166342,33.6586728 23.9455801,33.4785507 23.8137749,33.3471007 C23.6819695,33.2156507 23.5018474,33.1449519 23.316041,33.1513467 L7.34947876,33.1513467 L7.5164558,8.32220907 L24.448643,8.32220907 C24.3196799,8.98834109 24.252889,9.66477593 24.2493363,10.3429871 C24.2479153,11.7772138 24.547053,13.1954532 25.1275648,14.5067562 L18.2552142,14.5067562 C17.8530481,14.5067562 17.5276204,14.8325392 17.5276204,15.2343499 C17.5276204,15.6361608 17.8530481,15.9619437 18.2552142,15.9619437 L25.9169756,15.9619437 C27.417993,18.3223603 29.8174893,19.9679727 32.5598215,20.5186419 L32.5598215,37.0763741 Z M34.5795337,19.2609847 C29.6782233,19.2609847 25.7045239,15.2876406 25.7048791,10.3859748 C25.7048791,5.48430912 29.6782233,1.51096498 34.579889,1.51096498 C39.4811994,1.51096498 43.4545435,5.48466446 43.4545435,10.3859748 C43.4492145,15.2851536 39.4790678,19.2556556 34.5795337,19.2609847 Z" id="Shape"></path>
                    <path d="M13.5848296,19.3490918 C12.300527,19.3490918 11.2560321,20.3605466 11.2560321,21.6039929 C11.2560321,22.8474394 12.300527,23.8588941 13.5848296,23.8588941 C14.869132,23.8588941 15.9139822,22.8474394 15.9139822,21.6039929 C15.9139822,20.3605466 14.869132,19.3490918 13.5848296,19.3490918 L13.5848296,19.3490918 Z M13.5848296,22.4037066 C13.1027276,22.4037066 12.7112196,22.0448835 12.7112196,21.6039929 C12.7112196,21.1627471 13.1030828,20.8042793 13.5848296,20.8042793 C14.0665761,20.8042793 14.4587946,21.1631024 14.4587946,21.6039929 C14.4587946,22.0448835 14.0665761,22.4037066 13.5848296,22.4037066 Z" id="Shape"></path>
                    <path d="M17.5276204,21.6007955 C17.5276204,22.0026063 17.8530481,22.3283893 18.2552142,22.3283893 L27.9555171,22.3283893 C28.357328,22.3283893 28.6831109,22.0026063 28.6831109,21.6007955 C28.6831109,21.1989847 28.357328,20.8732017 27.9555171,20.8732017 L18.2552142,20.8732017 C17.8530481,20.8732017 17.5276204,21.1989847 17.5276204,21.6007955 Z" id="Path"></path>
                    <path d="M13.5848296,13.0242128 C12.300527,13.0242128 11.2560321,14.0360229 11.2560321,15.2794693 C11.2560321,16.5229157 12.300527,17.5343706 13.5848296,17.5343706 C14.869132,17.5343706 15.9139822,16.5229157 15.9139822,15.2794693 C15.9139822,14.0360229 14.869132,13.0242128 13.5848296,13.0242128 Z M13.5848296,16.079183 C13.1027276,16.079183 12.7112196,15.7203599 12.7112196,15.2794693 C12.7112196,14.8385788 13.1030828,14.4794004 13.5848296,14.4794004 C14.0665761,14.4794004 14.4587946,14.8382235 14.4587946,15.2794693 C14.4587946,15.7203599 14.0665761,16.0795382 13.5848296,16.0795382 L13.5848296,16.079183 Z" id="Shape"></path>
                    <path d="M13.5848296,25.6732601 C12.300527,25.6732601 11.2560321,26.6847149 11.2560321,27.9281613 C11.2560321,29.1716077 12.300527,30.1830626 13.5848296,30.1830626 C14.869132,30.1830626 15.9139822,29.1716077 15.9139822,27.9281613 C15.9139822,26.6847149 14.869132,25.6732601 13.5848296,25.6732601 Z M13.5848296,28.727875 C13.1027276,28.727875 12.7112196,28.3694071 12.7112196,27.9281613 C12.7112196,27.4872707 13.1030828,27.1284477 13.5848296,27.1284477 C14.0665761,27.1284477 14.4587946,27.4872707 14.4587946,27.9281613 C14.4587946,28.3690519 14.0665761,28.727875 13.5848296,28.727875 L13.5848296,28.727875 Z" id="Shape"></path>
                    <path d="M27.9555171,27.2396473 L18.2552142,27.2396473 C17.8530481,27.2396473 17.5276204,27.5654303 17.5276204,27.967241 C17.5276204,28.3690519 17.8530481,28.6948348 18.2552142,28.6948348 L27.9555171,28.6948348 C28.357328,28.6948348 28.6831109,28.3690519 28.6831109,27.967241 C28.6831109,27.5654303 28.357328,27.2396473 27.9555171,27.2396473 Z" id="Path"></path>
                </g>
            </g>
        </g>
    </g>
</svg>