<?xml version="1.0" encoding="UTF-8"?>
<svg width="42px" height="35px" viewBox="0 0 42 35" version="1.1" xmlns="http://www.w3.org/2000/svg" xmlns:xlink="http://www.w3.org/1999/xlink">
    <!-- Generator: Sketch 55.2 (78181) - https://sketchapp.com -->
    <title>BonificarComisiones</title>
    <desc>Created with Sketch.</desc>
    <g id="Page-1" stroke="none" stroke-width="1" fill="none" fill-rule="evenodd">
        <g id="Módulo-de-Comisiones" transform="translate(-883.000000, -283.000000)" fill="#000000" fill-rule="nonzero">
            <g id="BonificarComisiones" transform="translate(883.000000, 283.000000)">
                <path d="M38.8445859,18.2555625 C38.3810273,18.2555625 37.9529883,18.3686016 37.5733477,18.5389805 C36.9961758,17.8008633 36.1003125,17.3231133 35.0904258,17.3221289 C34.568543,17.3221289 34.0884961,17.4605977 33.676043,17.6680547 L33.6328945,17.6920078 L32.3433633,18.4568672 C31.7652891,17.7655898 30.8994492,17.3226211 29.9280352,17.3221289 C29.4061523,17.3221289 28.9261055,17.4605977 28.5136523,17.6680547 L28.4620547,17.6971758 L23.5248398,20.7210937 C22.4098711,20.3916562 21.1719375,20.0303086 19.9757578,19.6910273 C18.7138711,19.3329609 17.5003008,19.0002422 16.5275742,18.7548047 C16.0404727,18.6318398 15.6144023,18.5309414 15.2661797,18.4591641 C15.0916172,18.4229883 14.9367422,18.3944414 14.7992578,18.3733594 C14.6598867,18.3526875 14.5434844,18.338168 14.4121523,18.3376758 C14.3107617,18.338168 14.2229883,18.3470273 14.1230742,18.35925 C13.7594297,18.4071562 13.2422227,18.5178984 12.6321562,18.6609609 C11.3857734,18.9538125 9.79502344,19.3798828 8.91605859,19.619168 L8.91605859,18.1315312 C8.91605859,17.099168 8.07138281,16.2544102 7.0389375,16.2544102 L1.87712109,16.2544102 C0.844675781,16.2544102 0,17.09925 0,18.1316953 L0,32.6790352 C0,33.7113984 0.844675781,34.5561562 1.87712109,34.5561562 L7.03901953,34.5561562 C8.07138281,34.5561562 8.91614062,33.7114805 8.91614062,32.6790352 L8.91614062,31.5495469 C10.030207,31.7921133 12.502793,32.3261367 15.109582,32.8615547 C16.8726797,33.2233945 18.6947578,33.5856445 20.1997031,33.8587266 C20.9524219,33.9953086 21.6258164,34.109332 22.1772305,34.1900508 C22.7333203,34.2703594 23.1476602,34.3200703 23.4634805,34.321957 C23.7093281,34.3210547 23.9421328,34.274543 24.1936406,34.2050625 C24.6615469,34.0731562 25.1940938,33.849375 25.803668,33.5532422 C27.9251602,32.5189922 30.9721289,30.581332 33.8464219,28.6639336 C36.7155469,26.748832 39.3992813,24.8577656 40.7141602,23.9520586 C41.5372617,23.3847305 42,22.4260312 42,21.4114687 C41.9986055,19.6689609 40.5874219,18.2564648 38.8445859,18.2555625 Z M7.50823828,32.6788711 C7.50823828,32.933168 7.29331641,33.1480898 7.03901953,33.1480898 L1.87712109,33.1480898 C1.62282422,33.1480898 1.40790234,32.933168 1.40790234,32.6788711 L1.40790234,18.1316953 C1.40790234,17.8773984 1.62282422,17.6624766 1.87712109,17.6624766 L7.03901953,17.6624766 C7.29331641,17.6624766 7.50823828,17.8773984 7.50823828,18.1316953 L7.50823828,32.6788711 Z M39.9159141,22.7923828 C38.298832,23.9064492 34.6802695,26.4615586 31.1776992,28.7366133 C29.4278086,29.8731563 27.7070391,30.9389062 26.2959375,31.7113125 C25.591125,32.0975156 24.9622734,32.4095625 24.459668,32.6184141 C24.2086523,32.7225117 23.9889727,32.8009336 23.8148203,32.84925 C23.6416523,32.8984687 23.5111406,32.914957 23.4638086,32.9140139 C23.3103281,32.9153672 22.9040273,32.8750078 22.3817344,32.7970781 C20.532832,32.526293 17.0720156,31.8350156 14.0920664,31.2133008 C12.6007383,30.9021562 11.227125,30.6084023 10.2262617,30.3924961 C9.64482422,30.2672344 9.19619531,30.169125 8.91646875,30.1085859 L8.91646875,21.0790781 C9.05403516,21.0410156 9.23417578,20.9917969 9.45049219,20.9331445 C10.1924648,20.7318398 11.3247422,20.4300469 12.3402891,20.1800156 C12.8475703,20.0546719 13.3267148,19.9431094 13.7072578,19.8637031 C13.896832,19.8243281 14.0625352,19.7929102 14.1896836,19.7726484 C14.3144531,19.7519766 14.4115781,19.7445117 14.4125625,19.7459062 C14.4149414,19.7454141 14.4886055,19.7500898 14.5890117,19.7656758 C14.9775938,19.8238359 15.7738711,20.0101289 16.7438086,20.2640156 C19.6669102,21.0275625 24.276,22.4076562 26.1381094,22.9730977 C26.7823828,23.1673477 27.365707,23.4601992 27.7486289,23.8154766 C27.9410742,23.9929102 28.0856133,24.1824844 28.1827383,24.3874805 C28.2798633,24.5934609 28.3347422,24.8164219 28.3357266,25.0890117 C28.3352344,25.6413281 28.11375,26.1349922 27.7519922,26.4978164 C27.3925312,26.8558828 26.9044453,27.0749883 26.3596758,27.0801562 L24.5430938,26.9023125 L18.343582,26.1063633 C17.9577891,26.0571445 17.6048906,26.3292422 17.5551797,26.7149531 C17.5053867,27.1007461 17.7785508,27.4530703 18.1637695,27.5028633 L24.3833789,28.3010273 L26.3083242,28.4896172 L26.3430234,28.4896172 C28.2205547,28.489125 29.7423984,26.9672812 29.7433828,25.0892578 C29.7442852,24.6167578 29.6396953,24.1723125 29.4543047,23.7833203 C29.1751523,23.197207 28.7260313,22.7434102 28.2182578,22.3979766 C27.7085977,22.0516406 27.1333125,21.8048906 26.5476914,21.6265547 C26.221125,21.527543 25.8095742,21.4026914 25.3393711,21.2614336 L29.1596484,18.9211641 C29.4073828,18.7991836 29.6608594,18.7301953 29.9292656,18.7297021 C30.384457,18.7292109 30.7955156,18.9056602 31.10625,19.1910469 L29.218875,20.3102812 C28.8847617,20.5083867 28.7745117,20.9405273 28.9730273,21.2746406 C29.171543,21.6087539 29.6032734,21.7194961 29.9377969,21.5210625 L34.3189219,18.9227227 C34.5680508,18.7992656 34.8229219,18.7298672 35.0923125,18.7298672 C35.5780195,18.729375 36.014918,18.9316641 36.3316406,19.2526523 L31.2302813,22.2780469 C30.8956758,22.4761523 30.785918,22.908293 30.9844336,23.2428164 C31.1829492,23.5769297 31.6146797,23.6871797 31.9492031,23.4886641 L37.4654766,20.2169297 C37.5189609,20.2079883 37.5729375,20.1948633 37.6255195,20.1723047 C37.7385586,20.1243984 37.8305977,20.0484375 37.9013906,19.9582852 L38.0735742,19.8559922 C38.3227031,19.7325352 38.5775742,19.6631367 38.8468828,19.6631367 C39.3307031,19.6636289 39.7633359,19.8579609 40.0820273,20.1751758 C40.3992422,20.4938672 40.5934922,20.9269102 40.5940664,21.4112227 C40.5916875,22.0011914 40.3213945,22.5164297 39.9159141,22.7923828 Z" id="Shape"></path>
                <path d="M25.43625,8.07515625 C24.8182266,7.62185156 24.1020937,7.37264062 23.3912109,7.17133594 C23.2945781,7.14410156 23.19975,7.12211719 23.1031172,7.0966875 L23.1031172,2.79972656 C23.7896367,2.90251172 24.2973281,3.11653125 24.6352148,3.38067187 C24.8745,3.56655469 25.0393008,3.77491406 25.1523398,4.00903125 C25.2635742,4.24323047 25.3232109,4.50737109 25.3236211,4.81047656 C25.3236211,5.19905859 25.6389492,5.51438672 26.0275312,5.51438672 C26.4161133,5.51438672 26.7314432,5.19905859 26.7314432,4.81047656 C26.7319336,4.31910937 26.6310352,3.83816016 26.4226758,3.40224609 C26.1111211,2.74575 25.5564258,2.20803516 24.835125,1.85792578 C24.336293,1.61478516 23.7543633,1.46040234 23.1035273,1.38394922 L23.1035273,0.764941406 C23.1035273,0.375867187 22.7881992,0.06103125 22.3996172,0.06103125 C22.010543,0.06103125 21.695707,0.375867187 21.695707,0.764941406 L21.695707,1.34498437 C21.1856367,1.38435937 20.7275742,1.48435547 20.3221758,1.63873828 C19.5253242,1.94003906 18.942082,2.45429297 18.5811445,3.03195703 C18.2188945,3.61003125 18.067793,4.23839062 18.0673008,4.81047656 C18.0654141,5.41250391 18.2103633,5.95456641 18.4831172,6.39614062 C18.7200234,6.78283594 19.0419961,7.08315234 19.3930078,7.31357812 C20.0100469,7.71667969 20.7149414,7.93348828 21.417375,8.12117578 C21.5098242,8.14512891 21.6026836,8.16858984 21.6952148,8.19155859 L21.6952148,12.8138555 C21.010418,12.7383047 20.4853359,12.518625 20.1330117,12.2192109 C19.7007891,11.8475273 19.4793867,11.374043 19.4746289,10.7696367 C19.4746289,10.3805625 19.1593008,10.0657266 18.7707188,10.0657266 C18.3821367,10.0657266 18.0667614,10.3805625 18.0667614,10.7696367 C18.0616406,11.7536836 18.4811484,12.6716133 19.2235313,13.2938203 C19.8603398,13.8325195 20.7096914,14.1553945 21.6951328,14.2352109 L21.6951328,14.8465898 C21.6951328,15.2351719 22.0099688,15.5505 22.399043,15.5505 C22.787625,15.5505 23.1029531,15.2351719 23.1029531,14.8465898 L23.1029531,14.2097812 C23.8998047,14.1294727 24.6439922,13.9329258 25.2803906,13.5387656 C25.7149102,13.2674883 26.0917617,12.8921133 26.3461406,12.4177266 C26.6024063,11.9446523 26.7319336,11.3853633 26.7308672,10.7696367 C26.7317695,10.127168 26.593875,9.55754297 26.3320313,9.08258203 C26.1040664,8.66692969 25.7877539,8.33412891 25.43625,8.07515625 Z M21.6947227,6.73632422 C21.0095977,6.55282031 20.4188906,6.33798047 20.0579531,6.06104297 C19.8637031,5.914125 19.729418,5.75974219 19.6331953,5.5715625 C19.537875,5.38198828 19.4755312,5.14680469 19.4745457,4.81039453 C19.4740547,4.37776172 19.6331953,3.85965234 20.0216953,3.46508203 C20.2174219,3.26566406 20.4726211,3.08782031 20.8222383,2.95451953 C21.063,2.86305469 21.3538828,2.79537891 21.6946406,2.76026953 L21.6946406,6.73632422 L21.6947227,6.73632422 Z M25.1072227,11.7486797 C25.0077187,11.9316914 24.879668,12.0823828 24.7125703,12.2174883 C24.4628672,12.4183828 24.1166133,12.5802305 23.6848828,12.6876914 C23.5046602,12.7327266 23.3080313,12.7660313 23.1029531,12.7918711 L23.1029531,8.554875 C23.5332891,8.67915234 23.9275313,8.81630859 24.2466328,8.98791797 C24.6028125,9.17650781 24.8594883,9.39052734 25.0340508,9.65433984 C25.2067266,9.91946484 25.32075,10.2521836 25.3231289,10.7693086 C25.3221445,11.1949688 25.2376523,11.5050469 25.1072227,11.7486797 Z" id="Shape"></path>
            </g>
        </g>
    </g>
</svg>