<?xml version="1.0" encoding="UTF-8"?>
<svg width="40px" height="43px" viewBox="0 0 40 43" version="1.1" xmlns="http://www.w3.org/2000/svg" xmlns:xlink="http://www.w3.org/1999/xlink">
    <!-- Generator: Sketch 55.2 (78181) - https://sketchapp.com -->
    <title>ModuloComisiones</title>
    <desc>Created with Sketch.</desc>
    <g id="Page-1" stroke="none" stroke-width="1" fill="none" fill-rule="evenodd">
        <g id="Personas-Morales" transform="translate(-976.000000, -280.000000)" fill="#000000" fill-rule="nonzero">
            <g id="Group-4" transform="translate(922.000000, 249.000000)">
                <g id="ModuloComisiones" transform="translate(54.000000, 31.000000)">
                    <path d="M15.3333333,25.8 C11.6513672,25.8 8.66666667,29.008553 8.66666667,32.9666667 C8.66666667,36.9247803 11.6513672,40.1333333 15.3333333,40.1333333 C19.0152995,40.1333333 22,36.9247803 22,32.9666667 C21.9960938,29.0103028 19.0136718,25.8041992 15.3333333,25.8 Z M15.3333333,38.7 C12.3876953,38.7 10,36.1332275 10,32.9666667 C10,29.8001058 12.3876953,27.2333333 15.3333333,27.2333333 C18.2789713,27.2333333 20.6666667,29.8001058 20.6666667,32.9666667 C20.6634115,36.1314779 18.2773438,38.6965007 15.3333333,38.7 Z" id="Shape"></path>
                    <path d="M15.3333333,30.8166667 C16.1474609,30.8166667 16.6666667,31.2407878 16.6666667,31.5333333 L18,31.5333333 C18,30.5150227 17.1608073,29.6902262 16,29.45507 L16,28.6666667 L14.6666667,28.6666667 L14.6666667,29.45507 C13.5058593,29.6884766 12.6666667,30.5136231 12.6666667,31.5333333 C12.6666667,32.7395589 13.8378907,33.6833333 15.3333333,33.6833333 C16.1474609,33.6833333 16.6666667,34.1074544 16.6666667,34.4 C16.6666667,34.6925456 16.1474609,35.1166667 15.3333333,35.1166667 C14.5192058,35.1166667 14,34.6925456 14,34.4 L12.6666667,34.4 C12.6666667,35.4183106 13.5058593,36.2431071 14.6666667,36.4782634 L14.6666667,37.2666667 L16,37.2666667 L16,36.4782634 C17.1608073,36.2448568 18,35.4197102 18,34.4 C18,33.1937744 16.828776,32.25 15.3333333,32.25 C14.5192058,32.25 14,31.8258789 14,31.5333333 C14,31.2407878 14.5192058,30.8166667 15.3333333,30.8166667 Z" id="Path"></path>
                    <path d="M34,41.5666667 L6,41.5666667 L6,24.3666667 L16.6666667,24.3666667 C17.7711588,24.3666667 18.6666667,23.4039957 18.6666667,22.2166667 L18.6666667,4.3 L26,4.3 L26,12.9 L34,12.9 L34,22.9333333 L35.3333333,22.9333333 L35.3333333,11.8865885 L26.9427083,2.86666667 L18.6666667,2.86666667 L18.6666667,2.15 C18.6666667,0.962670921 17.7711588,0 16.6666667,0 L2,0 C0.895507833,0 0,0.962670921 0,2.15 L0,22.2166667 C0,23.4039957 0.895507833,24.3666667 2,24.3666667 L4.66666667,24.3666667 L4.66666667,43 L35.3333333,43 L35.3333333,32.9666667 L34,32.9666667 L34,41.5666667 Z M27.3333333,5.31341146 L33.0572917,11.4666667 L27.3333333,11.4666667 L27.3333333,5.31341146 Z M1.33333333,22.2166667 L1.33333333,2.15 C1.33333333,1.75422361 1.63183592,1.43333333 2,1.43333333 L16.6666667,1.43333333 C17.0348307,1.43333333 17.3333333,1.75422361 17.3333333,2.15 L17.3333333,22.2166667 C17.3333333,22.6124431 17.0348307,22.9333333 16.6666667,22.9333333 L2,22.9333333 C1.63183592,22.9333333 1.33333333,22.6124431 1.33333333,22.2166667 Z" id="Shape"></path>
                    <polygon id="Path" points="21.3333333 17.9166667 22.6666667 17.9166667 22.6666667 19.35 21.3333333 19.35"></polygon>
                    <polygon id="Path" points="24 17.9166667 32 17.9166667 32 19.35 24 19.35"></polygon>
                    <polygon id="Path" points="21.3333333 15.05 22.6666667 15.05 22.6666667 16.4833333 21.3333333 16.4833333"></polygon>
                    <polygon id="Path" points="24 15.05 32 15.05 32 16.4833333 24 16.4833333"></polygon>
                    <polygon id="Path" points="21.3333333 20.7833333 22.6666667 20.7833333 22.6666667 22.2166667 21.3333333 22.2166667"></polygon>
                    <polygon id="Path" points="24 20.7833333 32 20.7833333 32 22.2166667 24 22.2166667"></polygon>
                    <polygon id="Path" points="21.3333333 23.65 22.6666667 23.65 22.6666667 25.0833333 21.3333333 25.0833333"></polygon>
                    <polygon id="Path" points="24 23.65 32 23.65 32 25.0833333 24 25.0833333"></polygon>
                    <path d="M16.6666667,2.15 L2,2.15 L2,7.16666667 L16.6666667,7.16666667 L16.6666667,2.15 Z M15.3333333,5.73333333 L3.33333333,5.73333333 L3.33333333,3.58333333 L15.3333333,3.58333333 L15.3333333,5.73333333 Z" id="Shape"></path>
                    <path d="M5.33333333,7.88333333 L4,7.88333333 C3.26367183,7.88333333 2.66666667,8.52511389 2.66666667,9.31666667 L2.66666667,10.75 C2.66666667,11.5415528 3.26367183,12.1833333 4,12.1833333 L5.33333333,12.1833333 C6.0696615,12.1833333 6.66666667,11.5415528 6.66666667,10.75 L6.66666667,9.31666667 C6.66666667,8.52511389 6.0696615,7.88333333 5.33333333,7.88333333 Z M4,10.75 L4,9.31666667 L5.33333333,9.31666667 L5.33333333,10.75 L4,10.75 Z" id="Shape"></path>
                    <path d="M10,7.88333333 L8.66666667,7.88333333 C7.9303385,7.88333333 7.33333333,8.52511389 7.33333333,9.31666667 L7.33333333,10.75 C7.33333333,11.5415528 7.9303385,12.1833333 8.66666667,12.1833333 L10,12.1833333 C10.7363282,12.1833333 11.3333333,11.5415528 11.3333333,10.75 L11.3333333,9.31666667 C11.3333333,8.52511389 10.7363282,7.88333333 10,7.88333333 Z M8.66666667,10.75 L8.66666667,9.31666667 L10,9.31666667 L10,10.75 L8.66666667,10.75 Z" id="Shape"></path>
                    <path d="M14.6666667,7.88333333 L13.3333333,7.88333333 C12.5970052,7.88333333 12,8.52511389 12,9.31666667 L12,10.75 C12,11.5415528 12.5970052,12.1833333 13.3333333,12.1833333 L14.6666667,12.1833333 C15.4029948,12.1833333 16,11.5415528 16,10.75 L16,9.31666667 C16,8.52511389 15.4029948,7.88333333 14.6666667,7.88333333 Z M13.3333333,10.75 L13.3333333,9.31666667 L14.6666667,9.31666667 L14.6666667,10.75 L13.3333333,10.75 Z" id="Shape"></path>
                    <path d="M5.33333333,12.9 L4,12.9 C3.26367183,12.9 2.66666667,13.5417806 2.66666667,14.3333333 L2.66666667,15.7666667 C2.66666667,16.5582194 3.26367183,17.2 4,17.2 L5.33333333,17.2 C6.0696615,17.2 6.66666667,16.5582194 6.66666667,15.7666667 L6.66666667,14.3333333 C6.66666667,13.5417806 6.0696615,12.9 5.33333333,12.9 Z M4,15.7666667 L4,14.3333333 L5.33333333,14.3333333 L5.33333333,15.7666667 L4,15.7666667 Z" id="Shape"></path>
                    <path d="M10,12.9 L8.66666667,12.9 C7.9303385,12.9 7.33333333,13.5417806 7.33333333,14.3333333 L7.33333333,15.7666667 C7.33333333,16.5582194 7.9303385,17.2 8.66666667,17.2 L10,17.2 C10.7363282,17.2 11.3333333,16.5582194 11.3333333,15.7666667 L11.3333333,14.3333333 C11.3333333,13.5417806 10.7363282,12.9 10,12.9 Z M8.66666667,15.7666667 L8.66666667,14.3333333 L10,14.3333333 L10,15.7666667 L8.66666667,15.7666667 Z" id="Shape"></path>
                    <path d="M14.6666667,12.9 L13.3333333,12.9 C12.5970052,12.9 12,13.5417806 12,14.3333333 L12,15.7666667 C12,16.5582194 12.5970052,17.2 13.3333333,17.2 L14.6666667,17.2 C15.4029948,17.2 16,16.5582194 16,15.7666667 L16,14.3333333 C16,13.5417806 15.4029948,12.9 14.6666667,12.9 Z M13.3333333,15.7666667 L13.3333333,14.3333333 L14.6666667,14.3333333 L14.6666667,15.7666667 L13.3333333,15.7666667 Z" id="Shape"></path>
                    <path d="M5.33333333,17.9166667 L4,17.9166667 C3.26367183,17.9166667 2.66666667,18.5584472 2.66666667,19.35 L2.66666667,20.7833333 C2.66666667,21.5748861 3.26367183,22.2166667 4,22.2166667 L5.33333333,22.2166667 C6.0696615,22.2166667 6.66666667,21.5748861 6.66666667,20.7833333 L6.66666667,19.35 C6.66666667,18.5584472 6.0696615,17.9166667 5.33333333,17.9166667 Z M4,20.7833333 L4,19.35 L5.33333333,19.35 L5.33333333,20.7833333 L4,20.7833333 Z" id="Shape"></path>
                    <path d="M10,17.9166667 L8.66666667,17.9166667 C7.9303385,17.9166667 7.33333333,18.5584472 7.33333333,19.35 L7.33333333,20.7833333 C7.33333333,21.5748861 7.9303385,22.2166667 8.66666667,22.2166667 L10,22.2166667 C10.7363282,22.2166667 11.3333333,21.5748861 11.3333333,20.7833333 L11.3333333,19.35 C11.3333333,18.5584472 10.7363282,17.9166667 10,17.9166667 Z M8.66666667,20.7833333 L8.66666667,19.35 L10,19.35 L10,20.7833333 L8.66666667,20.7833333 Z" id="Shape"></path>
                    <path d="M14.6666667,17.9166667 L13.3333333,17.9166667 C12.5970052,17.9166667 12,18.5584472 12,19.35 L12,20.7833333 C12,21.5748861 12.5970052,22.2166667 13.3333333,22.2166667 L14.6666667,22.2166667 C15.4029948,22.2166667 16,21.5748861 16,20.7833333 L16,19.35 C16,18.5584472 15.4029948,17.9166667 14.6666667,17.9166667 Z M13.3333333,20.7833333 L13.3333333,19.35 L14.6666667,19.35 L14.6666667,20.7833333 L13.3333333,20.7833333 Z" id="Shape"></path>
                    <path d="M39.3945313,22.8675456 C38.6031901,22.0553467 37.3580729,22.0553467 36.5667318,22.8675456 L25.1380208,35.1530599 C25.0826823,35.2132487 25.0374349,35.2832357 25.0045573,35.3602214 L23.3951823,39.1171224 C23.2789713,39.3893717 23.3326823,39.7109619 23.5299479,39.9226726 C23.726888,40.1347331 24.0260417,40.1924723 24.2792968,40.0675456 L27.7740885,38.3374674 C27.8457032,38.302124 27.9108073,38.253833 27.9667968,38.1939941 L39.3945313,25.9081299 C40.1757813,25.0686361 40.1757813,23.7070394 39.3945313,22.8675456 Z M27.1074218,37.0888997 L25.3606771,37.9539388 L26.1653646,36.0761882 L34.6865234,26.9152425 L35.6292318,27.928654 L27.1074218,37.0888997 Z M36.5738933,26.9120931 L35.6311849,25.8990316 L36.0979818,25.3972249 L37.0406901,26.4106364 L36.5738933,26.9120931 Z M38.4541016,24.8912191 L37.9827474,25.3979248 L37.0400391,24.3845134 L37.5120442,23.8778076 C37.7753907,23.606958 38.1904297,23.606958 38.4541016,23.8778076 C38.7141927,24.1577556 38.7141927,24.6112712 38.4541016,24.8912191 Z" id="Shape"></path>
                </g>
            </g>
        </g>
    </g>
</svg>