<?xml version="1.0" encoding="UTF-8"?>
<svg width="45px" height="41px" viewBox="0 0 45 41" version="1.1" xmlns="http://www.w3.org/2000/svg" xmlns:xlink="http://www.w3.org/1999/xlink">
    <!-- Generator: Sketch 55.2 (78181) - https://sketchapp.com -->
    <title>AltaPaquetesCom</title>
    <desc>Created with Sketch.</desc>
    <g id="Page-1" stroke="none" stroke-width="1" fill="none" fill-rule="evenodd">
        <g id="Módulo-de-Comisiones" transform="translate(-514.000000, -280.000000)" fill="#000000" fill-rule="nonzero">
            <g id="AltaPaquetesCom" transform="translate(514.000000, 280.000000)">
                <path d="M34.323623,16.9106546 C34.3226072,16.9023251 34.3219977,16.8938939 34.3207788,16.8856659 C34.3148871,16.8446275 34.3070655,16.8036907 34.2959932,16.7632619 C34.2958916,16.7628555 34.2956885,16.7624492 34.2955869,16.7619413 C34.2852257,16.7241535 34.2720203,16.6868736 34.257088,16.65 C34.2528217,16.6394357 34.248149,16.6292777 34.2435779,16.6189165 C34.2317946,16.5923025 34.2186907,16.5660948 34.2044695,16.5402935 C34.1982731,16.5290181 34.1922799,16.5177427 34.1855756,16.5066704 C34.1820203,16.5006772 34.1791761,16.4944808 34.1754176,16.4884876 C34.1603837,16.4646163 34.1439278,16.442167 34.1272686,16.419921 C34.1241196,16.4157562 34.1215801,16.4113883 34.1184312,16.4073251 C34.0930361,16.3744131 34.0656095,16.3438375 34.0368623,16.3148871 C34.0314786,16.3094018 34.0255869,16.3043228 34.02,16.2990406 C33.9950113,16.2749661 33.9691084,16.2524153 33.942088,16.2311851 C33.9351806,16.2258014 33.9284763,16.2204176 33.9213657,16.215237 C33.8852032,16.1884199 33.8479233,16.1634312 33.8090181,16.1417946 L18.8437246,7.6351693 L27.4602596,2.20936795 L41.9056659,10.4202935 L35.82193,14.2511851 C35.3471445,14.5500339 35.2046275,15.1772912 35.5035779,15.6519752 C35.8024266,16.1267607 36.4295824,16.2692777 36.9043679,15.9703273 L44.4239391,11.2353725 C44.7262415,11.0451129 44.9063431,10.71 44.8984805,10.3528442 C44.8901919,9.99568849 44.6952596,9.66920993 44.3846275,9.49266366 L27.9354515,0.14261851 C27.6100903,-0.0424604966 27.2091535,-0.0333182844 26.8922235,0.166083521 L16.3323589,6.81562077 C16.3302257,6.81694131 16.327991,6.81836343 16.3258578,6.81968397 L11.0490745,10.1424718 C11.0466366,10.1439955 11.0441986,10.1455192 11.0418623,10.1470429 L0.474785553,16.8011512 C0.17248307,16.9914108 -0.00761851016,17.3265237 0.000244100143,17.6836795 C0.00853273138,18.0408352 0.203465011,18.3673138 0.514097065,18.54386 L16.9633747,27.8939052 C17.1191986,27.9825847 17.2922912,28.0266704 17.4652822,28.0266704 C17.6535102,28.0266704 17.8414334,27.9743567 18.0065011,27.8704402 L25.5260722,23.1353837 C26.0008578,22.836535 26.1433747,22.2092777 25.8444244,21.7345937 C25.5456772,21.2598081 24.9183183,21.1171896 24.4436343,21.4162415 L17.4385666,25.8272573 L2.99316027,17.6161287 L11.6097968,12.1902257 L27.016456,20.9476524 L27.016456,32.5462754 C27.016456,32.9162302 27.2174831,33.2568284 27.5413205,33.4356095 C27.6944018,33.5201242 27.8634312,33.5620767 28.0322573,33.5620767 C28.2205869,33.5620767 28.4085102,33.509763 28.5734763,33.4058465 L33.8570655,30.0787923 C34.1524605,29.8927991 34.3316479,29.5682506 34.3316479,29.2192212 L34.3316479,17.029605 C34.3316479,17.0236117 34.3306321,17.0179233 34.3304289,17.01193 C34.3298194,16.9782054 34.3275847,16.9444808 34.323623,16.9106546 Z M29.0480587,30.7063544 L29.0480587,20.3567607 C29.0480587,19.991377 28.8518059,19.6542325 28.5341648,19.4737246 L13.5601354,10.9622235 L16.8932844,8.86327314 L31.3385892,17.0743002 L30.0738149,17.8706885 C29.5990293,18.1695372 29.4565124,18.7967946 29.7554628,19.2714786 C29.948465,19.5782506 30.2784989,19.7461625 30.6160497,19.7461625 C30.8009255,19.7461625 30.9882393,19.6956772 31.1562528,19.5898307 L32.2999436,18.8697291 L32.2999436,28.6586005 L29.0480587,30.7063544 Z" id="Shape"></path>
                <path d="M43.3416027,13.5793341 L35.8220316,18.3142889 C35.3473187,18.6131377 35.2047291,19.240395 35.5036795,19.715079 C35.6966817,20.021851 36.0267156,20.189763 36.3642664,20.189763 C36.5491422,20.189763 36.736456,20.1392777 36.9044695,20.0334312 L44.4240406,15.2984763 C44.8987536,14.9996275 45.0413431,14.3723702 44.7423928,13.8976862 C44.443544,13.4229283 43.8162867,13.2802822 43.3416027,13.5793341 Z" id="Path"></path>
                <path d="M24.4435327,25.4793454 L17.438465,29.8903612 L1.51791196,20.8408916 C1.03053047,20.563781 0.410079007,20.7340293 0.132866817,21.2220203 C-0.144345372,21.7097065 0.0262076749,22.3298533 0.513995485,22.6070655 L16.9632731,31.9571106 C17.1190971,32.0457901 17.2921896,32.0898758 17.4651806,32.0898758 C17.6534086,32.0898758 17.8413318,32.0375621 18.0063995,31.9336456 L25.5259707,27.1985892 C26.0006836,26.8997404 26.1432731,26.2724831 25.8443228,25.7977991 C25.5455756,25.322912 24.9182167,25.1802935 24.4435327,25.4793454 Z" id="Path"></path>
                <path d="M43.3416027,17.6425395 L35.8220316,22.3774944 C35.3473187,22.6763431 35.2047291,23.3036005 35.5036795,23.7782844 C35.6966817,24.0850564 36.0267156,24.2529684 36.3642664,24.2529684 C36.5491422,24.2529684 36.736456,24.2024831 36.9044695,24.0966366 L44.4240406,19.3616817 C44.8987536,19.062833 45.0413431,18.4355756 44.7423928,17.9608916 C44.443544,17.4860045 43.8162867,17.3434876 43.3416027,17.6425395 Z" id="Path"></path>
                <path d="M24.4435327,29.5425508 L17.438465,33.9535666 L1.51791196,24.9040971 C1.03053047,24.6269865 0.410079007,24.7972348 0.132866817,25.2852257 C-0.144345372,25.772912 0.0262076749,26.3930587 0.513995485,26.6702709 L16.9632731,36.020316 C17.1190971,36.1089955 17.2921896,36.1530813 17.4651806,36.1530813 C17.6534086,36.1530813 17.8413318,36.1007675 18.0063995,35.996851 L25.5259707,31.2617946 C26.0006836,30.9629458 26.1432731,30.3356885 25.8443228,29.8610045 C25.5455756,29.3860158 24.9182167,29.2434989 24.4435327,29.5425508 Z" id="Path"></path>
                <path d="M43.3416027,21.7057449 L35.8220316,26.4406998 C35.3473187,26.7395485 35.2047291,27.3668059 35.5036795,27.8414898 C35.6966817,28.1482619 36.0267156,28.3161738 36.3642664,28.3161738 C36.5491422,28.3161738 36.736456,28.2656885 36.9044695,28.159842 L44.4240406,23.4248871 C44.8987536,23.1260384 45.0413431,22.498781 44.7423928,22.0240971 C44.443544,21.5493115 43.8162867,21.4067946 43.3416027,21.7057449 Z" id="Path"></path>
                <path d="M24.4435327,33.6057562 L17.438465,38.016772 L1.51791196,28.9673025 C1.03053047,28.6901919 0.410079007,28.8604402 0.132866817,29.3484312 C-0.144345372,29.8361174 0.0262076749,30.4562641 0.513995485,30.7334763 L16.9632731,40.0835214 C17.1190971,40.1722009 17.2921896,40.2162867 17.4651806,40.2162867 C17.6534086,40.2162867 17.8413318,40.1639729 18.0063995,40.0600564 L25.5259707,35.325 C26.0006836,35.0261512 26.1432731,34.3988939 25.8443228,33.9242099 C25.5455756,33.4493228 24.9182167,33.3067043 24.4435327,33.6057562 Z" id="Path"></path>
            </g>
        </g>
    </g>
</svg>