<?xml version="1.0" encoding="UTF-8"?>
<svg width="40px" height="48px" viewBox="0 0 40 48" version="1.1" xmlns="http://www.w3.org/2000/svg" xmlns:xlink="http://www.w3.org/1999/xlink">
    <!-- Generator: Sketch 55.2 (78181) - https://sketchapp.com -->
    <title>ParametrizarComisiones</title>
    <desc>Created with Sketch.</desc>
    <defs>
        <polygon id="path-1" points="0.00386785714 0.0274329561 17.9744036 0.0274329561 17.9744036 7 0.00386785714 7"></polygon>
    </defs>
    <g id="Page-1" stroke="none" stroke-width="1" fill="none" fill-rule="evenodd">
        <g id="Módulo-de-Comisiones" transform="translate(-332.000000, -275.000000)">
            <g id="ParametrizarComisiones" transform="translate(332.000000, 275.000000)">
                <path d="M27.2746987,32.5031001 C27.2765207,31.5365886 26.5032736,30.7500964 25.553947,30.7526029 C24.6201884,30.755012 23.8465119,31.5378994 23.8397479,32.4870425 C23.8327691,33.4532263 24.6030099,34.2455079 25.5510481,34.2473678 C26.5084272,34.2491126 27.2729776,33.475401 27.2746987,32.5031001 L27.2746987,32.5031001 Z M10,33.2626112 L10,31.5229342 L22.2620104,31.5229342 C22.6203967,30.4407429 23.2958337,29.6572001 24.3413599,29.239813 C25.0821826,28.9441138 25.8414721,28.9234684 26.6017279,29.1690288 C28.1531608,29.6700898 29.1383475,31.1990524 28.9841705,32.8583324 C28.8341808,34.4722798 27.5727424,35.7768737 25.9436841,35.9765553 C24.5230225,36.1507851 22.7593278,35.3645114 22.1903975,33.2626112 L10,33.2626112 Z" id="Fill-1" fill="#000000"></path>
                <g id="Group-5" transform="translate(10.000000, 36.000000)">
                    <mask id="mask-2" fill="white">
                        <use xlink:href="#path-1"></use>
                    </mask>
                    <g id="Clip-4"></g>
                    <path d="M10.381725,3.5291 C10.3818321,2.54665556 9.60783214,1.74854444 8.65983214,1.75341099 C7.72801071,1.75821111 6.95851071,2.5561 6.95388204,3.52232222 C6.94918929,4.50521111 7.71911786,5.30821111 8.66636786,5.30821111 C9.62090357,5.30821111 10.381725,4.51921111 10.381725,3.5291 L10.381725,3.5291 Z M17.9744036,2.52843333 L17.9744036,4.29787778 L12.018975,4.29787778 C11.4318321,6.07454444 10.2745821,7.09321111 8.44308214,6.99332222 C6.82415357,6.90487778 5.80811786,5.91098889 5.307975,4.30776667 L0.00386785714,4.30776667 L0.00386785714,2.53765556 L5.36808214,2.53765556 C5.40590357,2.44187778 5.43933214,2.35921111 5.47115357,2.27598889 C5.99154643,0.918766667 7.25411786,0.0281 8.658975,0.0274329561 C10.0673679,0.0267666667 11.3287607,0.909766667 11.8430464,2.27432222 C11.9153679,2.46643333 11.9961536,2.53554444 12.2022964,2.53443333 C14.0231893,2.5241 15.8440821,2.52843333 17.6650821,2.52843333 L17.9744036,2.52843333 Z" id="Fill-3" fill="#000000" mask="url(#mask-2)"></path>
                </g>
                <path d="M20.3963324,25.5116502 C20.3989025,24.5239336 19.6337469,23.7277506 18.6793153,23.7247372 C17.7477514,23.7217408 16.9675653,24.5230433 16.9623861,25.4880563 C16.9572587,26.4773309 17.7224144,27.2821948 18.6704044,27.2844253 C19.6307408,27.2866464 20.3938566,26.5029281 20.3963324,25.5116502 M21.982894,24.5026768 L28,24.5026768 L28,26.2740004 L22.0324943,26.2740004 C21.2648694,28.1690808 20.1327568,29.0566346 18.5675534,28.9972046 C17.2208279,28.9460103 15.8198855,28.0881715 15.3206609,26.2870216 L10,26.2870216 L10,24.5089092 L15.3720864,24.5089092 C15.9320768,22.9922217 16.9519981,22.1028872 18.5048551,22.0080664 C20.0699511,21.9124666 21.067112,22.6620183 21.982894,24.5026768" id="Fill-6" fill="#000000"></path>
                <g fill="#000000" fill-rule="nonzero">
                    <path d="M36,0 L7.2,0 C5.2432,0 3.6168,1.4144 3.2736,3.2736 C1.4144,3.6168 0,5.2432 0,7.2 L0,44 C0,46.2056 1.7944,48 4,48 L32.8,48 C34.7568,48 36.3832,46.5856 36.7264,44.7264 C38.5856,44.3832 40,42.7568 40,40.8 L40,4 C40,1.7944 38.2056,0 36,0 Z M35.2,44 C35.2,45.3232 34.1232,46.4 32.8,46.4 L4,46.4 C2.6768,46.4 1.6,45.3232 1.6,44 L1.6,7.2 C1.6,5.8768 2.6768,4.8 4,4.8 L28,4.8 L28,11.2 C28,11.6424 28.3576,12 28.8,12 L35.2,12 L35.2,44 Z M29.6,10.4 L29.6,5.9312 L34.0688,10.4 L29.6,10.4 Z M38.4,40.8 C38.4,41.8416 37.7288,42.7216 36.8,43.0528 L36.8,11.2 C36.8,10.9784 36.7096,10.7784 36.5648,10.6336 L29.3672,3.436 C29.2216,3.2904 29.0216,3.2 28.8,3.2 L4.9472,3.2 C5.2784,2.2712 6.1584,1.6 7.2,1.6 L36,1.6 C37.3232,1.6 38.4,2.6768 38.4,4 L38.4,40.8 Z" id="Shape"></path>
                    <g id="Group" transform="translate(4.000000, 7.000000)">
                        <path d="M6.19047619,-1.50102153e-13 C2.77150761,-1.50102153e-13 2.04281037e-14,2.77150761 2.04281037e-14,6.19047619 C2.04281037e-14,9.60944477 2.77150761,12.3809524 6.19047619,12.3809524 C9.60944477,12.3809524 12.3809524,9.60944477 12.3809524,6.19047619 C12.3773251,2.77301901 9.60793337,0.00362723214 6.19047619,-1.50102153e-13 Z M6.19047619,11.1428571 C3.4552409,11.1428571 1.23809524,8.92571148 1.23809524,6.19047619 C1.23809524,3.4552409 3.4552409,1.23809524 6.19047619,1.23809524 C8.92571148,1.23809524 11.1428571,3.4552409 11.1428571,6.19047619 C11.1398345,8.92420015 8.92420015,11.1398345 6.19047619,11.1428571 Z" id="Shape"></path>
                        <path d="M6.19047619,4.33333333 C6.9464518,4.33333333 7.42857143,4.69968378 7.42857143,4.95238095 L8.66666667,4.95238095 C8.66666667,4.07277712 7.88741633,3.36032829 6.80952381,3.15720329 L6.80952381,2.47619048 L5.57142857,2.47619048 L5.57142857,3.15720329 C4.49353605,3.35881696 3.71428571,4.07156812 3.71428571,4.95238095 C3.71428571,5.9943034 4.80185086,6.80952381 6.19047619,6.80952381 C6.9464518,6.80952381 7.42857143,7.17587426 7.42857143,7.42857143 C7.42857143,7.6812686 6.9464518,8.04761905 6.19047619,8.04761905 C5.43450058,8.04761905 4.95238095,7.6812686 4.95238095,7.42857143 L3.71428571,7.42857143 C3.71428571,8.30817526 4.49353605,9.02062409 5.57142857,9.22374909 L5.57142857,9.9047619 L6.80952381,9.9047619 L6.80952381,9.22374909 C7.88741633,9.02213542 8.66666667,8.30938426 8.66666667,7.42857143 C8.66666667,6.38664898 7.57910152,5.57142857 6.19047619,5.57142857 C5.43450058,5.57142857 4.95238095,5.20507812 4.95238095,4.95238095 C4.95238095,4.69968378 5.43450058,4.33333333 6.19047619,4.33333333 Z" id="Path"></path>
                    </g>
                </g>
            </g>
        </g>
    </g>
</svg>