<?xml version="1.0" encoding="UTF-8"?>
<svg width="48px" height="48px" viewBox="0 0 48 48" version="1.1" xmlns="http://www.w3.org/2000/svg" xmlns:xlink="http://www.w3.org/1999/xlink">
    <!-- Generator: Sketch 55.2 (78181) - https://sketchapp.com -->
    <title>DepositoAzteca</title>
    <desc>Created with Sketch.</desc>
    <g id="Page-1" stroke="none" stroke-width="1" fill="none" fill-rule="evenodd">
        <g id="Personas-Morales" transform="translate(-604.000000, -275.000000)" fill="#000000" fill-rule="nonzero">
            <g id="Group-2" transform="translate(554.000000, 249.000000)">
                <g id="DepositoAzteca" transform="translate(50.000000, 26.000000)">
                    <path d="M48,6.25891116 C48,2.80773928 45.1911231,0 41.7393693,0 C38.6055741,0 36.0029305,2.31372075 35.5490705,5.32177734 L0.937757563,5.32177734 C0.419792987,5.32177734 0,5.74145513 0,6.25927734 L0,26.7575683 L0,26.7583008 L0,26.758667 L0,32.2207031 C0,32.7385254 0.419792987,33.1582031 0.937757563,33.1582031 L13.4190909,33.1582031 L13.4190909,36.4248047 C13.4190909,36.942627 13.838884,37.3623047 14.3568485,37.3623047 C14.8744468,37.3623047 15.294606,36.942627 15.294606,36.4248047 L15.294606,22.7980958 C15.294606,21.6130371 16.2224733,20.6850586 17.4071248,20.6850586 C17.9716108,20.6850586 18.5027626,20.9047852 18.9016759,21.3035888 C19.3009554,21.7027588 19.5207423,22.2333984 19.5207423,22.7980958 L19.5207423,30.7847901 C19.5207423,30.8792724 19.5251382,30.9726563 19.5324643,31.0656739 C19.5833816,31.6853027 19.8017033,32.2712402 20.1713117,32.7744141 C20.171678,32.7747803 20.1720443,32.7751464 20.1720443,32.7755127 C20.1724106,32.7755127 20.1724106,32.7758789 20.1724106,32.7758789 C20.172777,32.7762451 20.1731433,32.7766114 20.1735096,32.7769776 C20.805397,33.6383057 21.82008,34.152832 22.8893434,34.152832 C23.7886382,34.152832 24.6340853,33.8023682 25.2707348,33.1658935 L25.2784273,33.1582031 L32.8229799,33.1582031 L27.7341799,40.9562989 C27.7162307,40.9837646 27.700113,41.0119629 27.6850941,41.0408935 C27.2979028,41.7956543 27.0931347,42.6430664 27.0931347,43.4919433 L27.0931347,47.0625 C27.0931347,47.5803223 27.513294,48 28.0308922,48 C28.5488568,48 28.9686498,47.5803223 28.9686498,47.0625 L28.9686498,43.4919433 C28.9686498,42.9547119 29.094661,42.4182129 29.3334962,41.9373779 L34.4343845,34.1202393 C34.4519674,34.0931396 34.4684514,34.0653076 34.4831039,34.036377 C34.6285295,33.7536621 34.7468482,33.4599609 34.839525,33.1582031 L41.7393693,33.1582031 C42.2569676,33.1582031 42.6771269,32.7385254 42.6771269,32.2207031 L42.6771269,26.758667 L42.6771269,26.7583008 C42.6771269,26.7579346 42.6771269,26.7579346 42.6771269,26.7575683 L42.6771269,12.4475098 C45.6856437,11.9937744 48,9.39147947 48,6.25891116 Z M38.7253579,11.7429199 C39.2836167,12.0509033 39.889496,12.2724609 40.5147898,12.3969727 C40.5825575,12.4101563 40.6506914,12.4222412 40.7188254,12.4332276 C40.7451998,12.4376221 40.7715742,12.442749 40.7979487,12.4467773 C40.7990475,12.4471435 40.8001465,12.4471435 40.8012455,12.4475098 L40.8012455,21.8411865 C38.791294,22.2235107 37.2036998,23.810669 36.8212705,25.8200683 L28.4100247,25.8200683 C30.4262035,23.463501 31.616716,20.1108398 31.616716,16.553833 C31.616716,12.9378662 30.3983638,9.55444331 28.3341983,7.19677734 L35.5479716,7.19677734 C35.5633566,7.29895022 35.5824048,7.40039063 35.602552,7.50109866 C35.8846118,8.89636228 36.6542324,10.1726074 37.7513355,11.0793458 C38.0550078,11.3302002 38.3802925,11.5524902 38.7253579,11.7429199 Z M40.8016117,28.5516357 L21.3962575,28.5516357 L21.3962575,27.696167 L40.8016117,27.696167 L40.8016117,28.5516357 Z M38.7509997,25.8200683 C39.0572362,24.8466797 39.8275894,24.0765381 40.8016117,23.7703857 L40.8016117,25.8200683 L38.7509997,25.8200683 Z M1.87551513,25.8200683 L1.87551513,23.7703857 C2.84953756,24.0765381 3.61989067,24.8466797 3.92612722,25.8200683 L1.87551513,25.8200683 Z M1.87551513,27.696167 L13.4190909,27.696167 L13.4190909,28.5516357 L1.87551513,28.5516357 L1.87551513,27.696167 Z M13.4190909,23.677002 L13.4190909,25.8200683 L5.85549007,25.8200683 C5.47306081,23.810669 3.8858329,22.223877 1.87551513,21.8411865 L1.87551513,11.1756592 C3.8858329,10.7933349 5.47306081,9.20617678 5.85549007,7.19677734 L14.9612626,7.19677734 C12.897097,9.55444331 11.6787447,12.9378662 11.6787447,16.553833 C11.6783784,19.1220703 12.280961,21.5782471 13.4190909,23.677002 Z M1.87551513,7.19677734 L3.92612722,7.19677734 C3.61989067,8.17053225 2.84953756,8.94067388 1.87551513,9.24682613 L1.87551513,7.19677734 Z M1.87551513,31.2832031 L1.87551513,30.4266357 L13.4190909,30.4266357 L13.4190909,31.2832031 L1.87551513,31.2832031 Z M17.4071248,18.8100586 C16.1777832,18.8100586 14.9960621,19.3963623 14.2465887,20.369751 C14.2165511,20.4089355 14.1872462,20.4484864 14.158674,20.4884033 C14.1491498,20.5023193 14.1385268,20.5151367 14.1290027,20.5290527 C13.7498703,19.2773438 13.5538936,17.9359131 13.5538936,16.553833 C13.5538936,12.6577148 15.1359932,9.10400391 17.7005403,7.19677734 L25.5949205,7.19677734 C28.1594676,9.10400391 29.7412009,12.6577148 29.7412009,16.553833 C29.7412009,20.3741455 28.2052566,23.8923339 25.7143381,25.8200683 L21.3962575,25.8200683 L21.3962575,23.161377 C21.5032205,23.2038574 21.6193413,23.2276612 21.741323,23.2276612 C22.2589212,23.2276612 22.6790806,22.8079834 22.6790806,22.2901612 L22.6790806,21.6767578 C23.8633658,21.6335449 24.813578,20.6575928 24.813578,19.4633789 L24.813578,17.7381592 C24.813578,16.5164795 23.8194084,15.522583 22.5973931,15.522583 L20.8852529,15.522583 C20.6973351,15.522583 20.5445831,15.369873 20.5445831,15.1820068 L20.5445831,13.5534668 C20.5445831,13.3656006 20.6973351,13.2128906 20.8852529,13.2128906 L22.5973931,13.2128906 C22.7853109,13.2128906 22.9380628,13.3656006 22.9380628,13.5534668 C22.9380628,14.0712891 23.3582222,14.4909668 23.8758204,14.4909668 C24.3937849,14.4909668 24.813578,14.0712891 24.813578,13.5534668 C24.813578,12.3592529 23.8633658,11.3833008 22.6790806,11.3400879 L22.6790806,10.7266846 C22.6790806,10.2088623 22.2592876,9.78918459 21.7416893,9.78918459 C21.741323,9.78918459 21.741323,9.78918459 21.741323,9.78918459 C21.2237248,9.78918459 20.8035654,10.2088623 20.8035654,10.7266846 L20.8035654,11.3400879 C19.6196465,11.3833008 18.6694344,12.3592529 18.669068,13.5534668 L18.669068,15.182373 C18.669068,16.4040527 19.6632376,17.397583 20.8852529,17.397583 L22.5973931,17.397583 C22.7853109,17.397583 22.9380628,17.5506592 22.9380628,17.7385254 L22.9380628,19.4633789 C22.9380628,19.6512451 22.7853109,19.8039551 22.5973931,19.8039551 L21.7416893,19.8039551 C21.7416893,19.8039551 21.7416893,19.8039551 21.741323,19.8039551 L21.7409567,19.8039551 L20.8852529,19.8039551 C20.6973351,19.8039551 20.5445831,19.6512451 20.5445831,19.4641114 L20.5445831,19.3062744 C20.5449495,18.7884521 20.1251564,18.3684083 19.6075583,18.368042 C19.607192,18.368042 19.607192,18.368042 19.6068256,18.368042 C19.1859336,18.368042 18.8295125,18.6456299 18.7111939,19.0275879 C18.3584358,18.9060058 17.9873623,18.8334961 17.606032,18.8148193 C17.5400959,18.8115234 17.4737935,18.8100586 17.4071248,18.8100586 Z M34.0926158,31.2832031 L21.4819744,31.2832031 C21.4801429,31.2777099 21.477945,31.2722167 21.4761134,31.2667237 C21.4684209,31.244751 21.4618273,31.2220459 21.4556,31.199707 C21.4167709,31.0653076 21.3962575,30.9246826 21.3962575,30.7847901 L21.3962575,30.4266357 L40.8016117,30.4266357 L40.8016117,31.2832031 L34.0926158,31.2832031 Z M41.7422998,10.6428223 C41.7412009,10.6428223 41.740102,10.642456 41.7393693,10.642456 C40.8323819,10.642456 39.9891328,10.3659668 39.2891114,9.89282231 C38.1224091,9.10437009 37.3542538,7.76953125 37.3542538,6.25891116 C37.3542538,3.84155269 39.3213468,1.875 41.7393693,1.875 C44.1570255,1.875 46.1244849,3.84155269 46.1244849,6.25891116 C46.1244849,8.67517088 44.1588572,10.6409912 41.7422998,10.6428223 Z" id="Shape"></path>
                    <path d="M44.0538959,5.05371112 L42.9462888,5.05371112 L42.9462888,3.94610411 C42.9462888,3.42352937 42.5223899,3 42.0001847,3 C41.4776101,3 41.0540806,3.42352937 41.0540806,3.94610411 L41.0540806,5.05371112 L39.9461041,5.05371112 C39.4235294,5.05371112 39,5.47724058 39,5.99981523 C39,6.52238987 39.4235294,6.94591933 39.9461041,6.94591933 L41.0540806,6.94591933 L41.0540806,8.05389589 C41.0540806,8.57647063 41.4776101,9 42.0001847,9 C42.5223899,9 42.9462888,8.57647063 42.9462888,8.05389589 L42.9462888,6.94591933 L44.0538959,6.94591933 C44.5764705,6.94591933 45,6.52238987 45,5.99981523 C45,5.47724058 44.5764705,5.05371112 44.0538959,5.05371112 Z" id="Path"></path>
                    <path d="M14,43 C13.4476563,43 13,43.4312161 13,43.9632751 L13,47.0367249 C13,47.5687839 13.4476563,48 14,48 C14.5519532,48 15,47.5687839 15,47.0367249 L15,43.9632751 C15,43.4312161 14.5519532,43 14,43 Z" id="Path"></path>
                    <path d="M14.9251725,39.6181192 C14.7635994,39.2235168 14.3536027,38.9716597 13.9287396,39.0025552 C13.5136571,39.0326685 13.1525626,39.3259805 13.0379357,39.726058 C12.9221351,40.1284819 13.0778399,40.5704052 13.4178086,40.8144408 C13.7523003,41.0549565 14.2139377,41.061996 14.556645,40.8336038 C14.9490368,40.5719695 15.1063066,40.0526118 14.9251725,39.6181192 Z" id="Path"></path>
                </g>
            </g>
        </g>
    </g>
</svg>