<?xml version="1.0" encoding="UTF-8"?>
<svg width="45px" height="40px" viewBox="0 0 45 40" version="1.1" xmlns="http://www.w3.org/2000/svg" xmlns:xlink="http://www.w3.org/1999/xlink">
    <!-- Generator: Sketch 55.2 (78181) - https://sketchapp.com -->
    <title>VisorHTH</title>
    <desc>Created with Sketch.</desc>
    <defs>
        <polygon id="path-1" points="0.0926992744 0.0793240799 43.0556471 0.0793240799 43.0556471 28.0587 0.0926992744 28.0587"></polygon>
        <polygon id="path-3" points="0 0 21 0 21 20 0 20"></polygon>
    </defs>
    <g id="Page-1" stroke="none" stroke-width="1" fill="none" fill-rule="evenodd">
        <g id="Personas-Morales-Copy" transform="translate(-698.000000, -452.000000)">
            <g id="VisorHTH" transform="translate(698.000000, 452.000000)">
                <g id="Group-3" transform="translate(1.941176, 11.011588)">
                    <mask id="mask-2" fill="white">
                        <use xlink:href="#path-1"></use>
                    </mask>
                    <g id="Clip-2"></g>
                    <path d="M38.1239647,26.5249941 C38.2381412,25.8205235 38.3526706,25.1271706 38.4627882,24.4331118 C39.0402,20.7927 39.6176118,17.1521118 40.1929059,13.5111706 C40.6328471,10.7261118 41.0796706,7.94193529 41.5037294,5.15440588 C41.7364941,3.62458235 40.8345529,2.17734706 39.3869647,1.76175882 C38.9704941,1.64228824 38.5178471,1.60646471 38.0816118,1.60558235 C33.4210235,1.59481765 28.7602588,1.59887647 24.0996706,1.59887647 C19.3656706,1.59887647 14.6314941,1.59605294 9.89731765,1.60011176 C7.50472941,1.60222941 5.44284706,3.25611176 5.04049412,5.5287 C4.74367059,7.20587647 4.50031765,8.89258235 4.23384706,10.5752294 C3.54014118,14.9555824 2.84661176,19.3361118 2.15396471,23.7166412 C2.00784706,24.6409941 1.86578824,25.5660529 1.71649412,26.5249941 L38.1239647,26.5249941 Z M19.7854941,28.0583471 C13.5664941,28.0581706 7.34767059,28.0587 1.12884706,28.0578176 C0.221258824,28.0576412 -0.0115058824,27.7585235 0.131788235,26.8572882 C0.944788235,21.7377 1.75002353,16.6167 2.55861176,11.4962294 C2.88402353,9.43664118 3.19567059,7.37440588 3.54190588,5.31817059 C4.01961176,2.48034706 6.67884706,0.0672882353 9.89890588,0.0803470588 C17.7790235,0.112817647 25.6593176,0.0881117647 33.5394353,0.0925235294 C35.3325529,0.0934058824 37.1307882,0.0364058824 38.9172,0.1527 C41.5076118,0.321229412 43.3947882,2.73005294 43.0044353,5.29646471 C42.3486706,9.60834706 41.6500235,13.9138765 40.9688471,18.2218765 C40.4962588,21.2098765 40.0247294,24.1980529 39.5479059,27.1853471 C39.4330235,27.9053471 39.2362588,28.0587 38.4862588,28.0587 C32.2526118,28.0587 26.0189647,28.0587 19.7854941,28.0583471 L19.7854941,28.0583471 Z" id="Fill-1" fill="#000000" mask="url(#mask-2)"></path>
                </g>
                <g id="Group-6" transform="translate(13.000000, 15.000000)">
                    <mask id="mask-4" fill="white">
                        <use xlink:href="#path-3"></use>
                    </mask>
                    <g id="Clip-2"></g>
                    <path d="M10.9524944,16.9399565 L20.0460182,16.9399565 L20.0460182,10.9178132 L10.9524944,10.9178132 L10.9524944,16.9399565 Z M15.9606969,17.8617085 L15.9606969,19.0907111 C16.1538874,19.0907111 16.3414771,19.0898706 16.5290668,19.0909403 C16.86646,19.0927742 17.063437,19.2614908 17.0621749,19.545818 C17.0608338,19.8242615 16.8560471,19.9983269 16.5228348,19.9989382 C15.8325869,20.0001608 15.1423389,20.0006193 14.4520909,19.998709 C14.1404933,19.9977921 13.9290802,19.8127234 13.9263981,19.5468114 C13.9237949,19.2792183 14.1335514,19.0941496 14.4445968,19.0910168 C14.5760989,19.0896413 14.707601,19.0913988 14.8390242,19.089947 C14.8900631,19.0894121 14.9409443,19.0839869 15.0034216,19.0800899 L15.0034216,17.8617085 L14.7767047,17.8617085 C13.369861,17.8617085 11.9630963,17.8617085 10.5563315,17.8617849 C10.1724747,17.8617849 10.0011355,17.6994869 10.0009777,17.330725 C10.0001888,15.0893464 9.99971553,12.8479677 10.0001888,10.6065891 C10.0002677,10.1393328 10.1424982,10.0001875 10.6189666,10.0001875 C13.892714,9.9998054 17.1663826,10.0000189 20.44013,10.0007223 C20.8192536,10.0007987 20.9993492,10.1724954 20.999507,10.5351444 C21.000138,12.801968 21.0002169,15.0688681 20.9994281,17.3357681 C20.9992703,17.6887893 20.8188592,17.86125 20.4530672,17.8614029 C19.0396761,17.8620141 17.6263638,17.8617085 16.2129726,17.8617085 L15.9606969,17.8617085 Z" id="Fill-1" fill="#000000" mask="url(#mask-4)"></path>
                    <path d="M10.0441497,6.96765384 L10.0441497,0.924638103 L0.938109288,0.924638103 L0.938109288,1.15096143 C0.938424851,2.99967525 0.938740414,4.84838908 0.938898195,6.69710291 C0.938977086,6.96757758 0.938819304,6.96765384 1.20988782,6.96765384 C2.78028652,6.96765384 4.35060632,6.96765384 5.92092613,6.96765384 L9.80534745,6.96765384 L10.0441497,6.96765384 Z M5.99224334,7.87370967 L5.99224334,9.09469655 C6.17992436,9.09469655 6.36145191,9.09195139 6.54282168,9.09530659 C6.86682587,9.10125444 7.06736609,9.27046315 7.07351956,9.53804015 C7.07967304,9.80920111 6.86871925,9.99602461 6.53950827,9.99747344 C5.83659195,10.0006761 5.13351784,10.0012862 4.4306804,9.99663464 C4.18635584,9.99495705 4.02131645,9.87950775 3.95757275,9.69184545 C3.89635355,9.51188486 3.94834253,9.29722847 4.11204078,9.19794513 C4.21120642,9.13770408 4.34137611,9.10926116 4.46057999,9.09919557 C4.64794545,9.08333463 4.83783542,9.09500157 5.03450998,9.09500157 L5.03450998,7.87370967 C4.94583681,7.87370967 4.86891836,7.87370967 4.79192102,7.87370967 C3.39200517,7.87386218 1.99208932,7.87401469 0.592173476,7.87409095 C0.177208282,7.8741672 0.000177504123,7.70686485 0.000177504123,7.3118666 C-5.91680406e-05,5.06289296 -5.91680406e-05,2.81399557 0.000177504123,0.565098188 C0.000177504123,0.164533357 0.170975915,0.00012867945 0.58712447,0.00012867945 C3.86676953,-4.289315e-05 7.14641459,-4.289315e-05 10.4260596,0.00012867945 C10.8362125,0.000204933939 10.9995163,0.157136672 10.9995952,0.553507505 C11.0001474,2.81513939 11.0001474,5.07669502 10.9995163,7.33825065 C10.9994374,7.70625482 10.8282445,7.87271837 10.4457034,7.87317589 C9.05233552,7.87447222 7.6589676,7.87370967 6.26559969,7.87370967 L5.99224334,7.87370967 Z" id="Fill-3" fill="#000000" mask="url(#mask-4)"></path>
                    <path d="M12.7846487,6.30402693 C13.0356914,6.52854134 13.2808791,6.74765531 13.520693,6.96201689 C13.4193134,7.05310435 13.3244305,7.13835935 13.2356432,7.21814189 C12.8282804,6.85184785 12.4118543,6.47734514 12,6.10701878 C12.4053577,5.74302893 12.8212223,5.36967831 13.2329965,5 C13.321864,5.07985455 13.4169073,5.16518154 13.5151588,5.25346078 C13.2758261,5.46645425 13.0291145,5.68600025 12.7823227,5.90561826 C12.7857716,5.91080269 12.7891402,5.9158431 12.7925088,5.92095552 L17,5.92095552 L17,9 L16.5886269,9 L16.5886269,6.30402693 L12.7846487,6.30402693 Z" id="Fill-4" fill="#000000" mask="url(#mask-4)"></path>
                    <path d="M8.2153513,14.6959496 C7.96422842,14.4715032 7.71912095,14.2523132 7.47930703,14.0379478 C7.58060635,13.9469307 7.67556946,13.8616022 7.76427655,13.7818902 C8.1716394,14.1481908 8.58814565,14.5227003 9,14.8929613 C8.59464228,15.2569577 8.17869747,15.630387 7.76692332,16 C7.67805582,15.920144 7.58301251,15.8348155 7.48476099,15.7466067 C7.72409368,15.5336094 7.97088547,15.3139874 8.21759705,15.0943654 C8.21422842,15.0892529 8.2108598,15.0842124 8.20741097,15.0790279 L4,15.0790279 L4,12 L4.41137312,12 L4.41137312,14.6959496 L8.2153513,14.6959496 Z" id="Fill-5" fill="#000000" mask="url(#mask-4)"></path>
                </g>
                <path d="M1.50622941,18.7698706 C1.52917059,18.7728706 1.55211176,18.7756941 1.57505294,18.7785176 C1.75381765,17.6678118 1.92975882,16.5565765 2.11240588,15.4465765 C2.30528824,14.2732235 2.4447,13.0869882 2.71364118,11.9311059 C3.24817059,9.63257647 5.64587647,7.19163529 9.08458235,7.21069412 C18.2735824,7.26134118 27.4629353,7.22922353 36.6521118,7.23010588 L37.3114059,7.23010588 C37.2969353,7.12387059 37.3031118,7.07569412 37.2837,7.04234118 C37.2244059,6.94122353 37.1601706,6.84222353 37.0894059,6.74851765 C36.2079353,5.57957647 35.0400529,4.97357647 33.5702294,4.97269412 C30.4678765,4.97075294 27.3657,4.97198824 24.2633471,4.97163529 C22.9306412,4.97163529 22.9306412,4.97145882 22.6631118,3.67404706 C22.3267588,2.04381176 21.6932294,1.51810588 20.0232882,1.51687059 C14.7154059,1.51298824 9.4077,1.51351765 4.09999412,1.51704706 C2.93705294,1.51792941 2.03334706,2.16222353 1.67987647,3.27116471 C1.56605294,3.62834118 1.51734706,4.01975294 1.51381765,4.39634118 C1.49705294,6.16051765 1.50622941,7.92487059 1.50622941,9.68922353 L1.50622941,18.7698706 Z M23.3621118,8.73822353 C18.6572294,8.73822353 13.9505824,8.81551765 9.24834706,8.70751765 C6.6567,8.64804706 4.34440588,10.4845765 3.95122941,13.2666353 C3.24658235,18.2536941 2.39899412,23.2204588 1.61122941,28.1956941 C1.57434706,28.4277529 1.54911176,28.6622824 1.50005294,28.8916941 C1.40811176,29.3226353 1.09011176,29.5601647 0.679111765,29.5211647 C0.302347059,29.4853412 0.0358764706,29.1929294 0.00322941176,28.7761059 C-0.00241764706,28.7030471 0.00111176471,28.6292824 0.00111176471,28.5556941 C0.00111176471,20.4544588 -0.00153529412,12.3534 0.00322941176,4.25216471 C0.00446470588,2.35369412 1.13158235,0.726811765 2.82534706,0.198282353 C3.23846471,0.0694588235 3.69022941,0.0110470588 4.12434706,0.00998823529 C9.38793529,-0.00271764706 14.6513471,-0.00342352941 19.9149353,0.00857647059 C20.4540529,0.00963529412 21.0090529,0.0500470588 21.5287588,0.182047059 C22.9733471,0.548929412 23.6958176,1.61781176 24.0302294,2.98316471 C24.1271118,3.37828235 24.2843471,3.47728235 24.6778765,3.47481176 C27.5887588,3.45610588 30.4998176,3.46034118 33.4108765,3.46616471 C36.2019353,3.47181176 38.3914059,5.06357647 39.2562882,7.70198824 C39.4465235,8.28257647 39.1428176,8.71334118 38.4907588,8.72869412 C37.5798176,8.75004706 36.6678176,8.73787059 35.7561706,8.73804706 C31.6248176,8.73857647 27.4934647,8.73822353 23.3621118,8.73822353 L23.3621118,8.73822353 Z" id="Fill-4" fill="#000000"></path>
            </g>
        </g>
    </g>
</svg>